%TF.GenerationSoftware,KiCad,Pcbnew,6.0.2+dfsg-1*%
%TF.CreationDate,2023-08-31T23:14:48-03:00*%
%TF.ProjectId,placa_alimentacao,706c6163-615f-4616-9c69-6d656e746163,rev?*%
%TF.SameCoordinates,Original*%
%TF.FileFunction,Copper,L2,Bot*%
%TF.FilePolarity,Positive*%
%FSLAX46Y46*%
G04 Gerber Fmt 4.6, Leading zero omitted, Abs format (unit mm)*
G04 Created by KiCad (PCBNEW 6.0.2+dfsg-1) date 2023-08-31 23:14:48*
%MOMM*%
%LPD*%
G01*
G04 APERTURE LIST*
%TA.AperFunction,ComponentPad*%
%ADD10C,3.000000*%
%TD*%
%TA.AperFunction,ComponentPad*%
%ADD11R,1.600000X1.600000*%
%TD*%
%TA.AperFunction,ComponentPad*%
%ADD12C,1.600000*%
%TD*%
%TA.AperFunction,ComponentPad*%
%ADD13O,1.600000X1.600000*%
%TD*%
%TA.AperFunction,ComponentPad*%
%ADD14R,1.800000X1.800000*%
%TD*%
%TA.AperFunction,ComponentPad*%
%ADD15C,1.800000*%
%TD*%
%TA.AperFunction,ComponentPad*%
%ADD16R,1.280000X1.280000*%
%TD*%
%TA.AperFunction,ComponentPad*%
%ADD17R,2.500000X4.500000*%
%TD*%
%TA.AperFunction,ComponentPad*%
%ADD18O,2.500000X4.500000*%
%TD*%
%TA.AperFunction,ComponentPad*%
%ADD19O,1.800000X1.800000*%
%TD*%
%TA.AperFunction,ComponentPad*%
%ADD20R,1.500000X1.500000*%
%TD*%
%TA.AperFunction,ComponentPad*%
%ADD21C,6.000000*%
%TD*%
%TA.AperFunction,ComponentPad*%
%ADD22R,6.000000X6.000000*%
%TD*%
%TA.AperFunction,ComponentPad*%
%ADD23R,2.000000X1.905000*%
%TD*%
%TA.AperFunction,ComponentPad*%
%ADD24O,2.000000X1.905000*%
%TD*%
%TA.AperFunction,Conductor*%
%ADD25C,0.500000*%
%TD*%
%TA.AperFunction,Conductor*%
%ADD26C,1.000000*%
%TD*%
%TA.AperFunction,Conductor*%
%ADD27C,1.500000*%
%TD*%
%TA.AperFunction,Conductor*%
%ADD28C,4.000000*%
%TD*%
%TA.AperFunction,Conductor*%
%ADD29C,6.000000*%
%TD*%
%TA.AperFunction,Conductor*%
%ADD30C,5.000000*%
%TD*%
%TA.AperFunction,Conductor*%
%ADD31C,8.000000*%
%TD*%
G04 APERTURE END LIST*
D10*
%TO.P,F1,1*%
%TO.N,/Vin*%
X109220000Y-57150000D03*
%TO.P,F1,2*%
%TO.N,/VDC*%
X109220000Y-34650000D03*
%TD*%
D11*
%TO.P,C3,1*%
%TO.N,Net-(C3-Pad1)*%
X135777361Y-59536027D03*
D12*
%TO.P,C3,2*%
%TO.N,GND*%
X133277361Y-59536027D03*
%TD*%
%TO.P,R3,1*%
%TO.N,/VDC*%
X158750000Y-45720000D03*
D13*
%TO.P,R3,2*%
%TO.N,Net-(D5-Pad2)*%
X158750000Y-53340000D03*
%TD*%
D14*
%TO.P,D5,1,K*%
%TO.N,GND*%
X157480000Y-60960000D03*
D15*
%TO.P,D5,2,A*%
%TO.N,Net-(D5-Pad2)*%
X157480000Y-58420000D03*
%TD*%
D11*
%TO.P,C1,1*%
%TO.N,/VDC*%
X124460000Y-45720000D03*
D12*
%TO.P,C1,2*%
%TO.N,GND*%
X124460000Y-48220000D03*
%TD*%
D16*
%TO.P,J3,1,1*%
%TO.N,GND*%
X170180000Y-36830000D03*
D15*
%TO.P,J3,2,2*%
%TO.N,VOUT*%
X167680000Y-36830000D03*
%TO.P,J3,3,3*%
%TO.N,DATA*%
X165180000Y-36830000D03*
%TD*%
D17*
%TO.P,Q1,1,BASE*%
%TO.N,/Tbase*%
X129165000Y-26245000D03*
D18*
%TO.P,Q1,2,COLLECTOR*%
%TO.N,/VDC*%
X134615000Y-26245000D03*
%TO.P,Q1,3,EMITTER*%
%TO.N,VOUT*%
X140065000Y-26245000D03*
%TD*%
D14*
%TO.P,D2,1,A*%
%TO.N,/ADJ*%
X152400000Y-52070000D03*
D19*
%TO.P,D2,2,K*%
%TO.N,Net-(C3-Pad1)*%
X152400000Y-64770000D03*
%TD*%
D16*
%TO.P,J6,1,1*%
%TO.N,GND*%
X170155962Y-59051842D03*
D15*
%TO.P,J6,2,2*%
%TO.N,VOUT*%
X167655962Y-59051842D03*
%TO.P,J6,3,3*%
%TO.N,DATA*%
X165155962Y-59051842D03*
%TD*%
D16*
%TO.P,J8,1,1*%
%TO.N,GND*%
X170237184Y-25574833D03*
D15*
%TO.P,J8,2,2*%
%TO.N,VOUT*%
X167737184Y-25574833D03*
%TO.P,J8,3,3*%
%TO.N,DATA*%
X165237184Y-25574833D03*
%TD*%
D11*
%TO.P,C2,1*%
%TO.N,/VDC*%
X152400000Y-45760000D03*
D12*
%TO.P,C2,2*%
%TO.N,GND*%
X152400000Y-48260000D03*
%TD*%
D20*
%TO.P,VR1,1*%
%TO.N,/ADJ*%
X124460000Y-55880000D03*
D15*
%TO.P,VR1,2*%
X124460000Y-58420000D03*
%TO.P,VR1,3*%
%TO.N,GND*%
X124460000Y-60960000D03*
%TD*%
D12*
%TO.P,R1,1*%
%TO.N,Net-(C3-Pad1)*%
X147320000Y-59690000D03*
D13*
%TO.P,R1,2*%
%TO.N,/ADJ*%
X147320000Y-52070000D03*
%TD*%
D16*
%TO.P,J10,1,1*%
%TO.N,GND*%
X170115617Y-64570729D03*
D15*
%TO.P,J10,2,2*%
%TO.N,VOUT*%
X167615617Y-64570729D03*
%TO.P,J10,3,3*%
%TO.N,DATA*%
X165115617Y-64570729D03*
%TD*%
D17*
%TO.P,Q2,1,BASE*%
%TO.N,/Tbase*%
X111435000Y-26245000D03*
D18*
%TO.P,Q2,2,COLLECTOR*%
%TO.N,/VDC*%
X116885000Y-26245000D03*
%TO.P,Q2,3,EMITTER*%
%TO.N,VOUT*%
X122335000Y-26245000D03*
%TD*%
D21*
%TO.P,J1,N,NEG*%
%TO.N,GND*%
X108160000Y-64770000D03*
D22*
%TO.P,J1,P,POS*%
%TO.N,/Vin*%
X115360000Y-64770000D03*
%TD*%
D16*
%TO.P,J7,1,1*%
%TO.N,GND*%
X170150740Y-47961093D03*
D15*
%TO.P,J7,2,2*%
%TO.N,VOUT*%
X167650740Y-47961093D03*
%TO.P,J7,3,3*%
%TO.N,DATA*%
X165150740Y-47961093D03*
%TD*%
D14*
%TO.P,D1,1,A*%
%TO.N,Net-(C3-Pad1)*%
X142240000Y-59690000D03*
D19*
%TO.P,D1,2,K*%
%TO.N,/VDC*%
X142240000Y-46990000D03*
%TD*%
D23*
%TO.P,U1,1,ADJ*%
%TO.N,/ADJ*%
X134620000Y-50800000D03*
D24*
%TO.P,U1,2,VO*%
%TO.N,Net-(C3-Pad1)*%
X134620000Y-48260000D03*
%TO.P,U1,3,VI*%
%TO.N,/VDC*%
X134620000Y-45720000D03*
%TD*%
D14*
%TO.P,D3,1,A*%
%TO.N,Net-(C3-Pad1)*%
X135890000Y-66040000D03*
D19*
%TO.P,D3,2,K*%
%TO.N,/Tbase*%
X123190000Y-66040000D03*
%TD*%
D16*
%TO.P,J5,1,1*%
%TO.N,GND*%
X170208592Y-31180780D03*
D15*
%TO.P,J5,2,2*%
%TO.N,VOUT*%
X167708592Y-31180780D03*
%TO.P,J5,3,3*%
%TO.N,DATA*%
X165208592Y-31180780D03*
%TD*%
D16*
%TO.P,J4,1,1*%
%TO.N,GND*%
X170155962Y-53516993D03*
D15*
%TO.P,J4,2,2*%
%TO.N,VOUT*%
X167655962Y-53516993D03*
%TO.P,J4,3,3*%
%TO.N,DATA*%
X165155962Y-53516993D03*
%TD*%
D12*
%TO.P,R2,1*%
%TO.N,/Tbase*%
X124460000Y-39370000D03*
D13*
%TO.P,R2,2*%
%TO.N,GND*%
X132080000Y-39370000D03*
%TD*%
D14*
%TO.P,D4,1,A*%
%TO.N,VOUT*%
X146069631Y-27523558D03*
D19*
%TO.P,D4,2,K*%
%TO.N,/VDC*%
X146069631Y-40223558D03*
%TD*%
D21*
%TO.P,J2,N,NEG*%
%TO.N,GND*%
X154940000Y-36620000D03*
D22*
%TO.P,J2,P,POS*%
%TO.N,VOUT*%
X154940000Y-29420000D03*
%TD*%
D16*
%TO.P,J9,1,1*%
%TO.N,GND*%
X170179999Y-42401862D03*
D15*
%TO.P,J9,2,2*%
%TO.N,VOUT*%
X167679999Y-42401862D03*
%TO.P,J9,3,3*%
%TO.N,DATA*%
X165179999Y-42401862D03*
%TD*%
D25*
%TO.N,Net-(C3-Pad1)*%
X135890000Y-59648666D02*
X135777361Y-59536027D01*
D26*
X135777361Y-59536027D02*
X142086027Y-59536027D01*
D27*
X136120000Y-48260000D02*
X134620000Y-48260000D01*
X142240000Y-59690000D02*
X142240000Y-54380000D01*
X142240000Y-54380000D02*
X136120000Y-48260000D01*
D25*
X142240000Y-59690000D02*
X142086027Y-59536027D01*
D26*
X135890000Y-66040000D02*
X142240000Y-59690000D01*
X147320000Y-59690000D02*
X152400000Y-64770000D01*
X142240000Y-59690000D02*
X147320000Y-59690000D01*
X135890000Y-66040000D02*
X135890000Y-59648666D01*
D28*
%TO.N,/VDC*%
X134615000Y-26245000D02*
X134615000Y-32495000D01*
X152400000Y-44450000D02*
X152400000Y-45260489D01*
D29*
X114730000Y-34650000D02*
X109220000Y-34650000D01*
D28*
X142240000Y-46990000D02*
X139700000Y-44450000D01*
X142240000Y-46990000D02*
X142240000Y-44430000D01*
X158750000Y-45720000D02*
X157480000Y-44450000D01*
X142240000Y-44053189D02*
X146069631Y-40223558D01*
X134615000Y-32495000D02*
X132460000Y-34650000D01*
X125230489Y-44450000D02*
X124460000Y-45220489D01*
X142240000Y-44430000D02*
X132460000Y-34650000D01*
X144780000Y-44450000D02*
X152400000Y-44450000D01*
X142240000Y-46990000D02*
X142240000Y-44053189D01*
X116885000Y-26245000D02*
X116885000Y-32495000D01*
X138033558Y-40223558D02*
X132460000Y-34650000D01*
D30*
X132460000Y-34650000D02*
X114730000Y-34650000D01*
D28*
X157480000Y-44450000D02*
X152400000Y-44450000D01*
X139700000Y-44450000D02*
X125230489Y-44450000D01*
X146069631Y-40223558D02*
X138033558Y-40223558D01*
X116885000Y-32495000D02*
X114730000Y-34650000D01*
X142240000Y-46990000D02*
X144780000Y-44450000D01*
D25*
%TO.N,Net-(D5-Pad2)*%
X157480000Y-58420000D02*
X158750000Y-57150000D01*
X158750000Y-57150000D02*
X158750000Y-53340000D01*
D29*
%TO.N,/Vin*%
X115360000Y-60750000D02*
X111760000Y-57150000D01*
D31*
X111760000Y-57150000D02*
X109220000Y-57150000D01*
D29*
X115360000Y-64770000D02*
X115360000Y-60750000D01*
D27*
%TO.N,/Tbase*%
X121062691Y-63912691D02*
X123190000Y-66040000D01*
X123140000Y-39370000D02*
X124460000Y-39370000D01*
X121062691Y-41447309D02*
X123140000Y-39370000D01*
X121062691Y-41447309D02*
X121062691Y-63912691D01*
%TO.N,/ADJ*%
X124460000Y-58420000D02*
X124460000Y-55880000D01*
X129540000Y-55880000D02*
X134620000Y-50800000D01*
X124460000Y-55880000D02*
X129540000Y-55880000D01*
X154940000Y-65999275D02*
X152280957Y-68658318D01*
X127000000Y-63400905D02*
X127000000Y-58420000D01*
X127000000Y-58420000D02*
X134620000Y-50800000D01*
X147320000Y-52070000D02*
X152400000Y-52070000D01*
X152400000Y-52070000D02*
X152400000Y-59690000D01*
X154940000Y-62230000D02*
X154940000Y-65999275D01*
X152280957Y-68658318D02*
X132257413Y-68658318D01*
X152400000Y-59690000D02*
X154940000Y-62230000D01*
X132257413Y-68658318D02*
X127000000Y-63400905D01*
X124460000Y-58420000D02*
X127000000Y-58420000D01*
%TD*%
%TA.AperFunction,Conductor*%
%TO.N,VOUT*%
G36*
X161498246Y-33146377D02*
G01*
X158645653Y-33146377D01*
X158577532Y-33126375D01*
X158531039Y-33072719D01*
X158520935Y-33002445D01*
X158547181Y-32941768D01*
X158616844Y-32854502D01*
X158624305Y-32842654D01*
X158696287Y-32693752D01*
X158700937Y-32680549D01*
X158738527Y-32517730D01*
X158739947Y-32507812D01*
X158740000Y-32505973D01*
X158740000Y-32438115D01*
X158735525Y-32422876D01*
X158734135Y-32421671D01*
X158726452Y-32420000D01*
X151158116Y-32420000D01*
X151142877Y-32424475D01*
X151141672Y-32425865D01*
X151140001Y-32433548D01*
X151140001Y-32506003D01*
X151140052Y-32507797D01*
X151141473Y-32517728D01*
X151179063Y-32680549D01*
X151183713Y-32693752D01*
X151255695Y-32842654D01*
X151263156Y-32854502D01*
X151332819Y-32941768D01*
X151359686Y-33007485D01*
X151346759Y-33077295D01*
X151298142Y-33129034D01*
X151234349Y-33146377D01*
X137928106Y-33146376D01*
X137764758Y-33146376D01*
X137696637Y-33126374D01*
X137650144Y-33072718D01*
X137638758Y-33020376D01*
X137638758Y-27510736D01*
X138028576Y-27510736D01*
X138029687Y-27526619D01*
X138030906Y-27535296D01*
X138088687Y-27807135D01*
X138091106Y-27815572D01*
X138186155Y-28076713D01*
X138189726Y-28084733D01*
X138320186Y-28330095D01*
X138324845Y-28337551D01*
X138488185Y-28562369D01*
X138493832Y-28569099D01*
X138686879Y-28769005D01*
X138693401Y-28774876D01*
X138800723Y-28858726D01*
X138812353Y-28863339D01*
X138814175Y-28856496D01*
X141315000Y-28856496D01*
X141318878Y-28869703D01*
X141326740Y-28866671D01*
X141333464Y-28861417D01*
X141539974Y-28675475D01*
X141546077Y-28669155D01*
X141679993Y-28509561D01*
X144369632Y-28509561D01*
X144369683Y-28511355D01*
X144371104Y-28521286D01*
X144408694Y-28684107D01*
X144413344Y-28697310D01*
X144485326Y-28846212D01*
X144492787Y-28858060D01*
X144595977Y-28987325D01*
X144605864Y-28997212D01*
X144735129Y-29100402D01*
X144746977Y-29107863D01*
X144895879Y-29179845D01*
X144909082Y-29184495D01*
X145071901Y-29222085D01*
X145081819Y-29223505D01*
X145083658Y-29223558D01*
X145151516Y-29223558D01*
X145166755Y-29219083D01*
X145167960Y-29217693D01*
X145169631Y-29210010D01*
X145169631Y-29205442D01*
X146969631Y-29205442D01*
X146974106Y-29220681D01*
X146975496Y-29221886D01*
X146983179Y-29223557D01*
X147055634Y-29223557D01*
X147057436Y-29223505D01*
X147067359Y-29222085D01*
X147230180Y-29184495D01*
X147243383Y-29179845D01*
X147392285Y-29107863D01*
X147404133Y-29100402D01*
X147533398Y-28997212D01*
X147543285Y-28987325D01*
X147646475Y-28858060D01*
X147653936Y-28846212D01*
X147725918Y-28697310D01*
X147730568Y-28684107D01*
X147768158Y-28521288D01*
X147769578Y-28511370D01*
X147769631Y-28509531D01*
X147769631Y-28441673D01*
X147765156Y-28426434D01*
X147763766Y-28425229D01*
X147756083Y-28423558D01*
X146987746Y-28423558D01*
X146972507Y-28428033D01*
X146971302Y-28429423D01*
X146969631Y-28437106D01*
X146969631Y-29205442D01*
X145169631Y-29205442D01*
X145169631Y-28441673D01*
X145165156Y-28426434D01*
X145163766Y-28425229D01*
X145156083Y-28423558D01*
X144387747Y-28423558D01*
X144372508Y-28428033D01*
X144371303Y-28429423D01*
X144369632Y-28437106D01*
X144369632Y-28509561D01*
X141679993Y-28509561D01*
X141724707Y-28456273D01*
X141729867Y-28449170D01*
X141877136Y-28213491D01*
X141881248Y-28205757D01*
X141994287Y-27951867D01*
X141997286Y-27943626D01*
X142073887Y-27676487D01*
X142075711Y-27667908D01*
X142097490Y-27512940D01*
X142095429Y-27498920D01*
X142081999Y-27495000D01*
X141333115Y-27495000D01*
X141317876Y-27499475D01*
X141316671Y-27500865D01*
X141315000Y-27508548D01*
X141315000Y-28856496D01*
X138814175Y-28856496D01*
X138815000Y-28853396D01*
X138815000Y-27513115D01*
X138810525Y-27497876D01*
X138809135Y-27496671D01*
X138801452Y-27495000D01*
X138045591Y-27495000D01*
X138030632Y-27499392D01*
X138028576Y-27510736D01*
X137638758Y-27510736D01*
X137638758Y-26605443D01*
X144369631Y-26605443D01*
X144374106Y-26620682D01*
X144375496Y-26621887D01*
X144383179Y-26623558D01*
X145151516Y-26623558D01*
X145166755Y-26619083D01*
X145167960Y-26617693D01*
X145169631Y-26610010D01*
X145169631Y-26605443D01*
X146969631Y-26605443D01*
X146974106Y-26620682D01*
X146975496Y-26621887D01*
X146983179Y-26623558D01*
X147751515Y-26623558D01*
X147766754Y-26619083D01*
X147767959Y-26617693D01*
X147769630Y-26610010D01*
X147769630Y-26537555D01*
X147769578Y-26535753D01*
X147768158Y-26525830D01*
X147739543Y-26401885D01*
X151140000Y-26401885D01*
X151144475Y-26417124D01*
X151145865Y-26418329D01*
X151153548Y-26420000D01*
X151921885Y-26420000D01*
X151937124Y-26415525D01*
X151938329Y-26414135D01*
X151940000Y-26406452D01*
X151940000Y-26401885D01*
X157940000Y-26401885D01*
X157944475Y-26417124D01*
X157945865Y-26418329D01*
X157953548Y-26420000D01*
X158721884Y-26420000D01*
X158737123Y-26415525D01*
X158738328Y-26414135D01*
X158739999Y-26406452D01*
X158739999Y-26333997D01*
X158739947Y-26332195D01*
X158738527Y-26322272D01*
X158700937Y-26159451D01*
X158696287Y-26146248D01*
X158624305Y-25997346D01*
X158616844Y-25985498D01*
X158513654Y-25856233D01*
X158503767Y-25846346D01*
X158374502Y-25743156D01*
X158362654Y-25735695D01*
X158213752Y-25663713D01*
X158200549Y-25659063D01*
X158037730Y-25621473D01*
X158027812Y-25620053D01*
X158025973Y-25620000D01*
X157958115Y-25620000D01*
X157942876Y-25624475D01*
X157941671Y-25625865D01*
X157940000Y-25633548D01*
X157940000Y-26401885D01*
X151940000Y-26401885D01*
X151940000Y-25638116D01*
X151935525Y-25622877D01*
X151934135Y-25621672D01*
X151926452Y-25620001D01*
X151853997Y-25620001D01*
X151852195Y-25620053D01*
X151842272Y-25621473D01*
X151679451Y-25659063D01*
X151666248Y-25663713D01*
X151517346Y-25735695D01*
X151505498Y-25743156D01*
X151376233Y-25846346D01*
X151366346Y-25856233D01*
X151263156Y-25985498D01*
X151255695Y-25997346D01*
X151183713Y-26146248D01*
X151179063Y-26159451D01*
X151141473Y-26322270D01*
X151140053Y-26332188D01*
X151140000Y-26334027D01*
X151140000Y-26401885D01*
X147739543Y-26401885D01*
X147730568Y-26363009D01*
X147725918Y-26349806D01*
X147653936Y-26200904D01*
X147646475Y-26189056D01*
X147543285Y-26059791D01*
X147533398Y-26049904D01*
X147404133Y-25946714D01*
X147392285Y-25939253D01*
X147243383Y-25867271D01*
X147230180Y-25862621D01*
X147067361Y-25825031D01*
X147057443Y-25823611D01*
X147055604Y-25823558D01*
X146987746Y-25823558D01*
X146972507Y-25828033D01*
X146971302Y-25829423D01*
X146969631Y-25837106D01*
X146969631Y-26605443D01*
X145169631Y-26605443D01*
X145169631Y-25841674D01*
X145165156Y-25826435D01*
X145163766Y-25825230D01*
X145156083Y-25823559D01*
X145083628Y-25823559D01*
X145081826Y-25823611D01*
X145071903Y-25825031D01*
X144909082Y-25862621D01*
X144895879Y-25867271D01*
X144746977Y-25939253D01*
X144735129Y-25946714D01*
X144605864Y-26049904D01*
X144595977Y-26059791D01*
X144492787Y-26189056D01*
X144485326Y-26200904D01*
X144413344Y-26349806D01*
X144408694Y-26363009D01*
X144371104Y-26525828D01*
X144369684Y-26535746D01*
X144369631Y-26537585D01*
X144369631Y-26605443D01*
X137638758Y-26605443D01*
X137638758Y-24977060D01*
X138032510Y-24977060D01*
X138034571Y-24991080D01*
X138048001Y-24995000D01*
X138796885Y-24995000D01*
X138812124Y-24990525D01*
X138813329Y-24989135D01*
X138815000Y-24981452D01*
X138815000Y-24976885D01*
X141315000Y-24976885D01*
X141319475Y-24992124D01*
X141320865Y-24993329D01*
X141328548Y-24995000D01*
X142084409Y-24995000D01*
X142099368Y-24990608D01*
X142101424Y-24979264D01*
X142100313Y-24963381D01*
X142099094Y-24954704D01*
X142041313Y-24682865D01*
X142038894Y-24674428D01*
X141943845Y-24413287D01*
X141940274Y-24405267D01*
X141809814Y-24159905D01*
X141805155Y-24152449D01*
X141641815Y-23927631D01*
X141636168Y-23920901D01*
X141443121Y-23720995D01*
X141436599Y-23715124D01*
X141329277Y-23631274D01*
X141317647Y-23626661D01*
X141315000Y-23636604D01*
X141315000Y-24976885D01*
X138815000Y-24976885D01*
X138815000Y-23633504D01*
X138811122Y-23620297D01*
X138803260Y-23623329D01*
X138796536Y-23628583D01*
X138590026Y-23814525D01*
X138583923Y-23820845D01*
X138405293Y-24033727D01*
X138400133Y-24040830D01*
X138252864Y-24276509D01*
X138248752Y-24284243D01*
X138135713Y-24538133D01*
X138132714Y-24546374D01*
X138056113Y-24813513D01*
X138054289Y-24822092D01*
X138032510Y-24977060D01*
X137638758Y-24977060D01*
X137638758Y-23074148D01*
X125304289Y-23074148D01*
X125304289Y-29084000D01*
X125284287Y-29152121D01*
X125230631Y-29198614D01*
X125178289Y-29210000D01*
X123499893Y-29210000D01*
X123431772Y-29189998D01*
X123385279Y-29136342D01*
X123375175Y-29066068D01*
X123404669Y-29001488D01*
X123429435Y-28979541D01*
X123596542Y-28866826D01*
X123603459Y-28861422D01*
X123809974Y-28675475D01*
X123816077Y-28669155D01*
X123994707Y-28456273D01*
X123999867Y-28449170D01*
X124147136Y-28213491D01*
X124151248Y-28205757D01*
X124264287Y-27951867D01*
X124267286Y-27943626D01*
X124343887Y-27676487D01*
X124345711Y-27667908D01*
X124367490Y-27512940D01*
X124365429Y-27498920D01*
X124351999Y-27495000D01*
X120315591Y-27495000D01*
X120300632Y-27499392D01*
X120298576Y-27510736D01*
X120299687Y-27526619D01*
X120300906Y-27535296D01*
X120358687Y-27807135D01*
X120361106Y-27815572D01*
X120456155Y-28076713D01*
X120459726Y-28084733D01*
X120590186Y-28330095D01*
X120594845Y-28337551D01*
X120758185Y-28562369D01*
X120763832Y-28569099D01*
X120956879Y-28769005D01*
X120963401Y-28774877D01*
X121182389Y-28945969D01*
X121189662Y-28950875D01*
X121231242Y-28974881D01*
X121280235Y-29026263D01*
X121293672Y-29095977D01*
X121267285Y-29161888D01*
X121209453Y-29203070D01*
X121168242Y-29210000D01*
X119811500Y-29210000D01*
X119743379Y-29189998D01*
X119696886Y-29136342D01*
X119685500Y-29084000D01*
X119685500Y-26160827D01*
X119671268Y-25917689D01*
X119662333Y-25867271D01*
X119614694Y-25598469D01*
X119614693Y-25598465D01*
X119614052Y-25594848D01*
X119537519Y-25340559D01*
X119520621Y-25284413D01*
X119520621Y-25284412D01*
X119519560Y-25280888D01*
X119390407Y-24983146D01*
X119389144Y-24977060D01*
X120302510Y-24977060D01*
X120304571Y-24991080D01*
X120318001Y-24995000D01*
X121066885Y-24995000D01*
X121082124Y-24990525D01*
X121083329Y-24989135D01*
X121085000Y-24981452D01*
X121085000Y-24976885D01*
X123585000Y-24976885D01*
X123589475Y-24992124D01*
X123590865Y-24993329D01*
X123598548Y-24995000D01*
X124354409Y-24995000D01*
X124369368Y-24990608D01*
X124371424Y-24979264D01*
X124370313Y-24963381D01*
X124369094Y-24954704D01*
X124311313Y-24682865D01*
X124308894Y-24674428D01*
X124213845Y-24413287D01*
X124210274Y-24405267D01*
X124079814Y-24159905D01*
X124075155Y-24152449D01*
X123911815Y-23927631D01*
X123906168Y-23920901D01*
X123713121Y-23720995D01*
X123706599Y-23715124D01*
X123599277Y-23631274D01*
X123587647Y-23626661D01*
X123585000Y-23636604D01*
X123585000Y-24976885D01*
X121085000Y-24976885D01*
X121085000Y-23633504D01*
X121081122Y-23620297D01*
X121073260Y-23623329D01*
X121066536Y-23628583D01*
X120860026Y-23814525D01*
X120853923Y-23820845D01*
X120675293Y-24033727D01*
X120670133Y-24040830D01*
X120522864Y-24276509D01*
X120518752Y-24284243D01*
X120405713Y-24538133D01*
X120402714Y-24546374D01*
X120326113Y-24813513D01*
X120324289Y-24822092D01*
X120302510Y-24977060D01*
X119389144Y-24977060D01*
X119380000Y-24933004D01*
X119380000Y-20051000D01*
X119400002Y-19982879D01*
X119453658Y-19936386D01*
X119506000Y-19925000D01*
X161498246Y-19925000D01*
X161498246Y-33146377D01*
G37*
%TD.AperFunction*%
%TD*%
%TA.AperFunction,Conductor*%
%TO.N,VOUT*%
G36*
X174885320Y-19945002D02*
G01*
X174931813Y-19998658D01*
X174941917Y-20068932D01*
X174912423Y-20133512D01*
X174903616Y-20142696D01*
X174657863Y-20374281D01*
X174655646Y-20376876D01*
X174655641Y-20376882D01*
X174425132Y-20646775D01*
X174422908Y-20649379D01*
X174420980Y-20652206D01*
X174420978Y-20652208D01*
X174221768Y-20944239D01*
X174219037Y-20948242D01*
X174217430Y-20951252D01*
X174217428Y-20951255D01*
X174050241Y-21264369D01*
X174050237Y-21264378D01*
X174048636Y-21267376D01*
X173913697Y-21603046D01*
X173912777Y-21606320D01*
X173912775Y-21606325D01*
X173821259Y-21931905D01*
X173815800Y-21951325D01*
X173756090Y-22308141D01*
X173737217Y-22635446D01*
X173735264Y-22669318D01*
X173735436Y-22672713D01*
X173735436Y-22672714D01*
X173740469Y-22772059D01*
X173753568Y-23030632D01*
X173810786Y-23387856D01*
X173906249Y-23736810D01*
X174038841Y-24073414D01*
X174040424Y-24076429D01*
X174205426Y-24390713D01*
X174205431Y-24390721D01*
X174207010Y-24393729D01*
X174208904Y-24396547D01*
X174208909Y-24396556D01*
X174335255Y-24584579D01*
X174408789Y-24694009D01*
X174641818Y-24970740D01*
X174644278Y-24973091D01*
X174644281Y-24973094D01*
X174707748Y-25033744D01*
X174903371Y-25220685D01*
X175190388Y-25440921D01*
X175275717Y-25492802D01*
X175496597Y-25627099D01*
X175496602Y-25627102D01*
X175499512Y-25628871D01*
X175502600Y-25630317D01*
X175502599Y-25630317D01*
X175824042Y-25780893D01*
X175824052Y-25780897D01*
X175827126Y-25782337D01*
X175830344Y-25783439D01*
X175830347Y-25783440D01*
X176166175Y-25898420D01*
X176166183Y-25898422D01*
X176169398Y-25899523D01*
X176172726Y-25900273D01*
X176518999Y-25978309D01*
X176519005Y-25978310D01*
X176522324Y-25979058D01*
X176525703Y-25979443D01*
X176525709Y-25979444D01*
X176676195Y-25996589D01*
X176881776Y-26020012D01*
X176885181Y-26020030D01*
X176885184Y-26020030D01*
X177079819Y-26021049D01*
X177243548Y-26021907D01*
X177246934Y-26021557D01*
X177246936Y-26021557D01*
X177600017Y-25985070D01*
X177600026Y-25985069D01*
X177603409Y-25984719D01*
X177606742Y-25984005D01*
X177606745Y-25984004D01*
X177716923Y-25960383D01*
X177957148Y-25908883D01*
X178300629Y-25795288D01*
X178629832Y-25645262D01*
X178815760Y-25534866D01*
X178937962Y-25462308D01*
X178937967Y-25462305D01*
X178940907Y-25460559D01*
X178967063Y-25440921D01*
X179227481Y-25245393D01*
X179230214Y-25243341D01*
X179252908Y-25222105D01*
X179316313Y-25190164D01*
X179386922Y-25197574D01*
X179442316Y-25241981D01*
X179465000Y-25314105D01*
X179465000Y-71464000D01*
X179444998Y-71532121D01*
X179391342Y-71578614D01*
X179339000Y-71590000D01*
X161578527Y-71590000D01*
X161510406Y-71569998D01*
X161463913Y-71516342D01*
X161452527Y-71464000D01*
X161452527Y-64526090D01*
X163410933Y-64526090D01*
X163423060Y-64778549D01*
X163472369Y-65026442D01*
X163473948Y-65030840D01*
X163473950Y-65030847D01*
X163556194Y-65259915D01*
X163557777Y-65264324D01*
X163677409Y-65486969D01*
X163680204Y-65490713D01*
X163680206Y-65490715D01*
X163825843Y-65685747D01*
X163825848Y-65685753D01*
X163828635Y-65689485D01*
X163831944Y-65692765D01*
X163831949Y-65692771D01*
X163996945Y-65856333D01*
X164008134Y-65867425D01*
X164011896Y-65870183D01*
X164011899Y-65870186D01*
X164150948Y-65972140D01*
X164211963Y-66016878D01*
X164216098Y-66019054D01*
X164216102Y-66019056D01*
X164333569Y-66080858D01*
X164435643Y-66134562D01*
X164674261Y-66217891D01*
X164678854Y-66218763D01*
X164917986Y-66264164D01*
X164917989Y-66264164D01*
X164922575Y-66265035D01*
X165042698Y-66269755D01*
X165170462Y-66274775D01*
X165170467Y-66274775D01*
X165175130Y-66274958D01*
X165253274Y-66266400D01*
X165421724Y-66247952D01*
X165421729Y-66247951D01*
X165426377Y-66247442D01*
X165489452Y-66230836D01*
X165502659Y-66227359D01*
X167237235Y-66227359D01*
X167245124Y-66230836D01*
X167418046Y-66263667D01*
X167427298Y-66264721D01*
X167670445Y-66274275D01*
X167679759Y-66273949D01*
X167921633Y-66247460D01*
X167930810Y-66245759D01*
X167982194Y-66232231D01*
X167994268Y-66224943D01*
X167994096Y-66223448D01*
X167991107Y-66219011D01*
X167628429Y-65856333D01*
X167614485Y-65848719D01*
X167612652Y-65848850D01*
X167606037Y-65853101D01*
X167243798Y-66215340D01*
X167237235Y-66227359D01*
X165502659Y-66227359D01*
X165666275Y-66184283D01*
X165666278Y-66184282D01*
X165670798Y-66183092D01*
X165903022Y-66083320D01*
X166010391Y-66016878D01*
X166113975Y-65952779D01*
X166113979Y-65952776D01*
X166117948Y-65950320D01*
X166212606Y-65870186D01*
X166307289Y-65790031D01*
X166307290Y-65790030D01*
X166310855Y-65787012D01*
X166393503Y-65692771D01*
X166474423Y-65600500D01*
X166474427Y-65600495D01*
X166477505Y-65596985D01*
X166549763Y-65484648D01*
X166611711Y-65388339D01*
X166611713Y-65388336D01*
X166614236Y-65384413D01*
X166718045Y-65153965D01*
X166786651Y-64910705D01*
X166802880Y-64783138D01*
X166818150Y-64663107D01*
X166818150Y-64663101D01*
X166818548Y-64659976D01*
X166820885Y-64570729D01*
X166802154Y-64318674D01*
X166746373Y-64072157D01*
X166657927Y-63844716D01*
X168675117Y-63844716D01*
X168675118Y-64573889D01*
X168675118Y-65298565D01*
X168675391Y-65303318D01*
X168715790Y-65478306D01*
X168793953Y-65639995D01*
X168905997Y-65780349D01*
X169046351Y-65892393D01*
X169208040Y-65970556D01*
X169214901Y-65972140D01*
X169377829Y-66009755D01*
X169377832Y-66009755D01*
X169383028Y-66010955D01*
X169387780Y-66011229D01*
X169389604Y-66011229D01*
X170121855Y-66011228D01*
X170843453Y-66011228D01*
X170848206Y-66010955D01*
X171023194Y-65970556D01*
X171184883Y-65892393D01*
X171325237Y-65780349D01*
X171437281Y-65639995D01*
X171515444Y-65478306D01*
X171517028Y-65471445D01*
X171554643Y-65308517D01*
X171554643Y-65308514D01*
X171555843Y-65303318D01*
X171556117Y-65298566D01*
X171556117Y-64570729D01*
X171556116Y-63844686D01*
X171556116Y-63842893D01*
X171555843Y-63838140D01*
X171515444Y-63663152D01*
X171437281Y-63501463D01*
X171325237Y-63361109D01*
X171184883Y-63249065D01*
X171171963Y-63242819D01*
X171029536Y-63173968D01*
X171029537Y-63173968D01*
X171023194Y-63170902D01*
X171016333Y-63169318D01*
X170853405Y-63131703D01*
X170853402Y-63131703D01*
X170848206Y-63130503D01*
X170843454Y-63130229D01*
X170841630Y-63130229D01*
X170109379Y-63130230D01*
X169387781Y-63130230D01*
X169383028Y-63130503D01*
X169208040Y-63170902D01*
X169201697Y-63173968D01*
X169201698Y-63173968D01*
X169059272Y-63242819D01*
X169046351Y-63249065D01*
X168905997Y-63361109D01*
X168793953Y-63501463D01*
X168715790Y-63663152D01*
X168714206Y-63670013D01*
X168685916Y-63792553D01*
X168675391Y-63838140D01*
X168675117Y-63842892D01*
X168675117Y-63844716D01*
X166657927Y-63844716D01*
X166657915Y-63844686D01*
X166656460Y-63840945D01*
X166656459Y-63840943D01*
X166654767Y-63836592D01*
X166529348Y-63617155D01*
X166372872Y-63418667D01*
X166188777Y-63245487D01*
X165981106Y-63101420D01*
X165976913Y-63099352D01*
X165758610Y-62991697D01*
X165758607Y-62991696D01*
X165754422Y-62989632D01*
X165709996Y-62975411D01*
X165658020Y-62958774D01*
X165520764Y-62914838D01*
X167235500Y-62914838D01*
X167235834Y-62917192D01*
X167238004Y-62920324D01*
X167602805Y-63285125D01*
X167616749Y-63292739D01*
X167618582Y-63292608D01*
X167625197Y-63288357D01*
X167989511Y-62924043D01*
X167995856Y-62912424D01*
X167987291Y-62908783D01*
X167768812Y-62873201D01*
X167759524Y-62872388D01*
X167516220Y-62869203D01*
X167506908Y-62869773D01*
X167265806Y-62902585D01*
X167256688Y-62904523D01*
X167247380Y-62907236D01*
X167235500Y-62914838D01*
X165520764Y-62914838D01*
X165513704Y-62912578D01*
X165509097Y-62911828D01*
X165509094Y-62911827D01*
X165268852Y-62872701D01*
X165268853Y-62872701D01*
X165264241Y-62871950D01*
X165141643Y-62870345D01*
X165016190Y-62868703D01*
X165016187Y-62868703D01*
X165011513Y-62868642D01*
X164761072Y-62902725D01*
X164756582Y-62904034D01*
X164756576Y-62904035D01*
X164653468Y-62934089D01*
X164518420Y-62973452D01*
X164514173Y-62975410D01*
X164514170Y-62975411D01*
X164478843Y-62991697D01*
X164288887Y-63079268D01*
X164284978Y-63081831D01*
X164081429Y-63215283D01*
X164081424Y-63215287D01*
X164077516Y-63217849D01*
X164037615Y-63253462D01*
X163910841Y-63366612D01*
X163888950Y-63386150D01*
X163727332Y-63580475D01*
X163596212Y-63796554D01*
X163594403Y-63800868D01*
X163594402Y-63800870D01*
X163576029Y-63844686D01*
X163498471Y-64029640D01*
X163436256Y-64274612D01*
X163410933Y-64526090D01*
X161452527Y-64526090D01*
X161452527Y-59007203D01*
X163451278Y-59007203D01*
X163463405Y-59259662D01*
X163512714Y-59507555D01*
X163514293Y-59511953D01*
X163514295Y-59511960D01*
X163596539Y-59741028D01*
X163598122Y-59745437D01*
X163717754Y-59968082D01*
X163720549Y-59971826D01*
X163720551Y-59971828D01*
X163866188Y-60166860D01*
X163866193Y-60166866D01*
X163868980Y-60170598D01*
X163872289Y-60173878D01*
X163872294Y-60173884D01*
X164037290Y-60337446D01*
X164048479Y-60348538D01*
X164052241Y-60351296D01*
X164052244Y-60351299D01*
X164191293Y-60453253D01*
X164252308Y-60497991D01*
X164256443Y-60500167D01*
X164256447Y-60500169D01*
X164373914Y-60561971D01*
X164475988Y-60615675D01*
X164714606Y-60699004D01*
X164719199Y-60699876D01*
X164958331Y-60745277D01*
X164958334Y-60745277D01*
X164962920Y-60746148D01*
X165083043Y-60750868D01*
X165210807Y-60755888D01*
X165210812Y-60755888D01*
X165215475Y-60756071D01*
X165293619Y-60747513D01*
X165462069Y-60729065D01*
X165462074Y-60729064D01*
X165466722Y-60728555D01*
X165529797Y-60711949D01*
X165543004Y-60708472D01*
X167277580Y-60708472D01*
X167285469Y-60711949D01*
X167458391Y-60744780D01*
X167467643Y-60745834D01*
X167710790Y-60755388D01*
X167720104Y-60755062D01*
X167961978Y-60728573D01*
X167971155Y-60726872D01*
X168022539Y-60713344D01*
X168034613Y-60706056D01*
X168034441Y-60704561D01*
X168031452Y-60700124D01*
X167668774Y-60337446D01*
X167654830Y-60329832D01*
X167652997Y-60329963D01*
X167646382Y-60334214D01*
X167284143Y-60696453D01*
X167277580Y-60708472D01*
X165543004Y-60708472D01*
X165706620Y-60665396D01*
X165706623Y-60665395D01*
X165711143Y-60664205D01*
X165943367Y-60564433D01*
X166050736Y-60497991D01*
X166154320Y-60433892D01*
X166154324Y-60433889D01*
X166158293Y-60431433D01*
X166252951Y-60351299D01*
X166347634Y-60271144D01*
X166347635Y-60271143D01*
X166351200Y-60268125D01*
X166433848Y-60173884D01*
X166514768Y-60081613D01*
X166514772Y-60081608D01*
X166517850Y-60078098D01*
X166590108Y-59965761D01*
X166652056Y-59869452D01*
X166652058Y-59869449D01*
X166654581Y-59865526D01*
X166758390Y-59635078D01*
X166826996Y-59391818D01*
X166843225Y-59264251D01*
X166858495Y-59144220D01*
X166858495Y-59144214D01*
X166858893Y-59141089D01*
X166861230Y-59051842D01*
X166842499Y-58799787D01*
X166786718Y-58553270D01*
X166698272Y-58325829D01*
X168715462Y-58325829D01*
X168715463Y-59055002D01*
X168715463Y-59779678D01*
X168715736Y-59784431D01*
X168756135Y-59959419D01*
X168834298Y-60121108D01*
X168946342Y-60261462D01*
X169086696Y-60373506D01*
X169248385Y-60451669D01*
X169255246Y-60453253D01*
X169418174Y-60490868D01*
X169418177Y-60490868D01*
X169423373Y-60492068D01*
X169428125Y-60492342D01*
X169429949Y-60492342D01*
X170162200Y-60492341D01*
X170883798Y-60492341D01*
X170888551Y-60492068D01*
X171063539Y-60451669D01*
X171225228Y-60373506D01*
X171365582Y-60261462D01*
X171477626Y-60121108D01*
X171555789Y-59959419D01*
X171557373Y-59952558D01*
X171594988Y-59789630D01*
X171594988Y-59789627D01*
X171596188Y-59784431D01*
X171596462Y-59779679D01*
X171596462Y-59051842D01*
X171596461Y-58325799D01*
X171596461Y-58324006D01*
X171596188Y-58319253D01*
X171555789Y-58144265D01*
X171477626Y-57982576D01*
X171365582Y-57842222D01*
X171225228Y-57730178D01*
X171212308Y-57723932D01*
X171069881Y-57655081D01*
X171069882Y-57655081D01*
X171063539Y-57652015D01*
X171056678Y-57650431D01*
X170893750Y-57612816D01*
X170893747Y-57612816D01*
X170888551Y-57611616D01*
X170883799Y-57611342D01*
X170881975Y-57611342D01*
X170149724Y-57611343D01*
X169428126Y-57611343D01*
X169423373Y-57611616D01*
X169248385Y-57652015D01*
X169242042Y-57655081D01*
X169242043Y-57655081D01*
X169099617Y-57723932D01*
X169086696Y-57730178D01*
X168946342Y-57842222D01*
X168834298Y-57982576D01*
X168756135Y-58144265D01*
X168754551Y-58151126D01*
X168726261Y-58273666D01*
X168715736Y-58319253D01*
X168715462Y-58324005D01*
X168715462Y-58325829D01*
X166698272Y-58325829D01*
X166698260Y-58325799D01*
X166696805Y-58322058D01*
X166696804Y-58322056D01*
X166695112Y-58317705D01*
X166569693Y-58098268D01*
X166413217Y-57899780D01*
X166229122Y-57726600D01*
X166021451Y-57582533D01*
X166017258Y-57580465D01*
X165798955Y-57472810D01*
X165798952Y-57472809D01*
X165794767Y-57470745D01*
X165750341Y-57456524D01*
X165698365Y-57439887D01*
X165561109Y-57395951D01*
X167275845Y-57395951D01*
X167276179Y-57398305D01*
X167278349Y-57401437D01*
X167643150Y-57766238D01*
X167657094Y-57773852D01*
X167658927Y-57773721D01*
X167665542Y-57769470D01*
X168029856Y-57405156D01*
X168036201Y-57393537D01*
X168027636Y-57389896D01*
X167809157Y-57354314D01*
X167799869Y-57353501D01*
X167556565Y-57350316D01*
X167547253Y-57350886D01*
X167306151Y-57383698D01*
X167297033Y-57385636D01*
X167287725Y-57388349D01*
X167275845Y-57395951D01*
X165561109Y-57395951D01*
X165554049Y-57393691D01*
X165549442Y-57392941D01*
X165549439Y-57392940D01*
X165309197Y-57353814D01*
X165309198Y-57353814D01*
X165304586Y-57353063D01*
X165181988Y-57351458D01*
X165056535Y-57349816D01*
X165056532Y-57349816D01*
X165051858Y-57349755D01*
X164801417Y-57383838D01*
X164796927Y-57385147D01*
X164796921Y-57385148D01*
X164693813Y-57415202D01*
X164558765Y-57454565D01*
X164554518Y-57456523D01*
X164554515Y-57456524D01*
X164519188Y-57472810D01*
X164329232Y-57560381D01*
X164325323Y-57562944D01*
X164121774Y-57696396D01*
X164121769Y-57696400D01*
X164117861Y-57698962D01*
X164077960Y-57734575D01*
X163951186Y-57847725D01*
X163929295Y-57867263D01*
X163767677Y-58061588D01*
X163636557Y-58277667D01*
X163634748Y-58281981D01*
X163634747Y-58281983D01*
X163616374Y-58325799D01*
X163538816Y-58510753D01*
X163476601Y-58755725D01*
X163451278Y-59007203D01*
X161452527Y-59007203D01*
X161452527Y-53472354D01*
X163451278Y-53472354D01*
X163463405Y-53724813D01*
X163512714Y-53972706D01*
X163514293Y-53977104D01*
X163514295Y-53977111D01*
X163596539Y-54206179D01*
X163598122Y-54210588D01*
X163717754Y-54433233D01*
X163720549Y-54436977D01*
X163720551Y-54436979D01*
X163866188Y-54632011D01*
X163866193Y-54632017D01*
X163868980Y-54635749D01*
X163872289Y-54639029D01*
X163872294Y-54639035D01*
X164037290Y-54802597D01*
X164048479Y-54813689D01*
X164052241Y-54816447D01*
X164052244Y-54816450D01*
X164191293Y-54918404D01*
X164252308Y-54963142D01*
X164256443Y-54965318D01*
X164256447Y-54965320D01*
X164373914Y-55027122D01*
X164475988Y-55080826D01*
X164714606Y-55164155D01*
X164719199Y-55165027D01*
X164958331Y-55210428D01*
X164958334Y-55210428D01*
X164962920Y-55211299D01*
X165083043Y-55216019D01*
X165210807Y-55221039D01*
X165210812Y-55221039D01*
X165215475Y-55221222D01*
X165293619Y-55212664D01*
X165462069Y-55194216D01*
X165462074Y-55194215D01*
X165466722Y-55193706D01*
X165529797Y-55177100D01*
X165543004Y-55173623D01*
X167277580Y-55173623D01*
X167285469Y-55177100D01*
X167458391Y-55209931D01*
X167467643Y-55210985D01*
X167710790Y-55220539D01*
X167720104Y-55220213D01*
X167961978Y-55193724D01*
X167971155Y-55192023D01*
X168022539Y-55178495D01*
X168034613Y-55171207D01*
X168034441Y-55169712D01*
X168031452Y-55165275D01*
X167668774Y-54802597D01*
X167654830Y-54794983D01*
X167652997Y-54795114D01*
X167646382Y-54799365D01*
X167284143Y-55161604D01*
X167277580Y-55173623D01*
X165543004Y-55173623D01*
X165706620Y-55130547D01*
X165706623Y-55130546D01*
X165711143Y-55129356D01*
X165943367Y-55029584D01*
X166050736Y-54963142D01*
X166154320Y-54899043D01*
X166154324Y-54899040D01*
X166158293Y-54896584D01*
X166252951Y-54816450D01*
X166347634Y-54736295D01*
X166347635Y-54736294D01*
X166351200Y-54733276D01*
X166433848Y-54639035D01*
X166514768Y-54546764D01*
X166514772Y-54546759D01*
X166517850Y-54543249D01*
X166590108Y-54430912D01*
X166652056Y-54334603D01*
X166652058Y-54334600D01*
X166654581Y-54330677D01*
X166758390Y-54100229D01*
X166826996Y-53856969D01*
X166843225Y-53729402D01*
X166858495Y-53609371D01*
X166858495Y-53609365D01*
X166858893Y-53606240D01*
X166861230Y-53516993D01*
X166842499Y-53264938D01*
X166786718Y-53018421D01*
X166698272Y-52790980D01*
X168715462Y-52790980D01*
X168715463Y-53520153D01*
X168715463Y-54244829D01*
X168715736Y-54249582D01*
X168756135Y-54424570D01*
X168834298Y-54586259D01*
X168946342Y-54726613D01*
X169086696Y-54838657D01*
X169248385Y-54916820D01*
X169255246Y-54918404D01*
X169418174Y-54956019D01*
X169418177Y-54956019D01*
X169423373Y-54957219D01*
X169428125Y-54957493D01*
X169429949Y-54957493D01*
X170162200Y-54957492D01*
X170883798Y-54957492D01*
X170888551Y-54957219D01*
X171063539Y-54916820D01*
X171225228Y-54838657D01*
X171365582Y-54726613D01*
X171477626Y-54586259D01*
X171555789Y-54424570D01*
X171557373Y-54417709D01*
X171594988Y-54254781D01*
X171594988Y-54254778D01*
X171596188Y-54249582D01*
X171596462Y-54244830D01*
X171596462Y-53516993D01*
X171596461Y-52790950D01*
X171596461Y-52789157D01*
X171596188Y-52784404D01*
X171555789Y-52609416D01*
X171477626Y-52447727D01*
X171365582Y-52307373D01*
X171225228Y-52195329D01*
X171212308Y-52189083D01*
X171069881Y-52120232D01*
X171069882Y-52120232D01*
X171063539Y-52117166D01*
X171056678Y-52115582D01*
X170893750Y-52077967D01*
X170893747Y-52077967D01*
X170888551Y-52076767D01*
X170883799Y-52076493D01*
X170881975Y-52076493D01*
X170149724Y-52076494D01*
X169428126Y-52076494D01*
X169423373Y-52076767D01*
X169248385Y-52117166D01*
X169242042Y-52120232D01*
X169242043Y-52120232D01*
X169099617Y-52189083D01*
X169086696Y-52195329D01*
X168946342Y-52307373D01*
X168834298Y-52447727D01*
X168756135Y-52609416D01*
X168754551Y-52616277D01*
X168726261Y-52738817D01*
X168715736Y-52784404D01*
X168715462Y-52789156D01*
X168715462Y-52790980D01*
X166698272Y-52790980D01*
X166698260Y-52790950D01*
X166696805Y-52787209D01*
X166696804Y-52787207D01*
X166695112Y-52782856D01*
X166569693Y-52563419D01*
X166413217Y-52364931D01*
X166229122Y-52191751D01*
X166021451Y-52047684D01*
X166017258Y-52045616D01*
X165798955Y-51937961D01*
X165798952Y-51937960D01*
X165794767Y-51935896D01*
X165750341Y-51921675D01*
X165698365Y-51905038D01*
X165561109Y-51861102D01*
X167275845Y-51861102D01*
X167276179Y-51863456D01*
X167278349Y-51866588D01*
X167643150Y-52231389D01*
X167657094Y-52239003D01*
X167658927Y-52238872D01*
X167665542Y-52234621D01*
X168029856Y-51870307D01*
X168036201Y-51858688D01*
X168027636Y-51855047D01*
X167809157Y-51819465D01*
X167799869Y-51818652D01*
X167556565Y-51815467D01*
X167547253Y-51816037D01*
X167306151Y-51848849D01*
X167297033Y-51850787D01*
X167287725Y-51853500D01*
X167275845Y-51861102D01*
X165561109Y-51861102D01*
X165554049Y-51858842D01*
X165549442Y-51858092D01*
X165549439Y-51858091D01*
X165309197Y-51818965D01*
X165309198Y-51818965D01*
X165304586Y-51818214D01*
X165181988Y-51816609D01*
X165056535Y-51814967D01*
X165056532Y-51814967D01*
X165051858Y-51814906D01*
X164801417Y-51848989D01*
X164796927Y-51850298D01*
X164796921Y-51850299D01*
X164693813Y-51880353D01*
X164558765Y-51919716D01*
X164554518Y-51921674D01*
X164554515Y-51921675D01*
X164519188Y-51937961D01*
X164329232Y-52025532D01*
X164325323Y-52028095D01*
X164121774Y-52161547D01*
X164121769Y-52161551D01*
X164117861Y-52164113D01*
X164077960Y-52199726D01*
X163951186Y-52312876D01*
X163929295Y-52332414D01*
X163767677Y-52526739D01*
X163636557Y-52742818D01*
X163634748Y-52747132D01*
X163634747Y-52747134D01*
X163616374Y-52790950D01*
X163538816Y-52975904D01*
X163476601Y-53220876D01*
X163451278Y-53472354D01*
X161452527Y-53472354D01*
X161452527Y-47916454D01*
X163446056Y-47916454D01*
X163446280Y-47921120D01*
X163446280Y-47921126D01*
X163448049Y-47957944D01*
X163458183Y-48168913D01*
X163459096Y-48173502D01*
X163501181Y-48385077D01*
X163507492Y-48416806D01*
X163509071Y-48421204D01*
X163509073Y-48421211D01*
X163591317Y-48650279D01*
X163592900Y-48654688D01*
X163712532Y-48877333D01*
X163715327Y-48881077D01*
X163715329Y-48881079D01*
X163860966Y-49076111D01*
X163860971Y-49076117D01*
X163863758Y-49079849D01*
X163867067Y-49083129D01*
X163867072Y-49083135D01*
X164032068Y-49246697D01*
X164043257Y-49257789D01*
X164047019Y-49260547D01*
X164047022Y-49260550D01*
X164186071Y-49362504D01*
X164247086Y-49407242D01*
X164251221Y-49409418D01*
X164251225Y-49409420D01*
X164368692Y-49471222D01*
X164470766Y-49524926D01*
X164709384Y-49608255D01*
X164713977Y-49609127D01*
X164953109Y-49654528D01*
X164953112Y-49654528D01*
X164957698Y-49655399D01*
X165077821Y-49660119D01*
X165205585Y-49665139D01*
X165205590Y-49665139D01*
X165210253Y-49665322D01*
X165288397Y-49656764D01*
X165456847Y-49638316D01*
X165456852Y-49638315D01*
X165461500Y-49637806D01*
X165524575Y-49621200D01*
X165537782Y-49617723D01*
X167272358Y-49617723D01*
X167280247Y-49621200D01*
X167453169Y-49654031D01*
X167462421Y-49655085D01*
X167705568Y-49664639D01*
X167714882Y-49664313D01*
X167956756Y-49637824D01*
X167965933Y-49636123D01*
X168017317Y-49622595D01*
X168029391Y-49615307D01*
X168029219Y-49613812D01*
X168026230Y-49609375D01*
X167663552Y-49246697D01*
X167649608Y-49239083D01*
X167647775Y-49239214D01*
X167641160Y-49243465D01*
X167278921Y-49605704D01*
X167272358Y-49617723D01*
X165537782Y-49617723D01*
X165701398Y-49574647D01*
X165701401Y-49574646D01*
X165705921Y-49573456D01*
X165938145Y-49473684D01*
X166045514Y-49407242D01*
X166149098Y-49343143D01*
X166149102Y-49343140D01*
X166153071Y-49340684D01*
X166247729Y-49260550D01*
X166342412Y-49180395D01*
X166342413Y-49180394D01*
X166345978Y-49177376D01*
X166428626Y-49083135D01*
X166509546Y-48990864D01*
X166509550Y-48990859D01*
X166512628Y-48987349D01*
X166584886Y-48875012D01*
X166646834Y-48778703D01*
X166646836Y-48778700D01*
X166649359Y-48774777D01*
X166753168Y-48544329D01*
X166821774Y-48301069D01*
X166838003Y-48173502D01*
X166853273Y-48053471D01*
X166853273Y-48053465D01*
X166853671Y-48050340D01*
X166856008Y-47961093D01*
X166837277Y-47709038D01*
X166781496Y-47462521D01*
X166693050Y-47235080D01*
X168710240Y-47235080D01*
X168710241Y-47964253D01*
X168710241Y-48688929D01*
X168710514Y-48693682D01*
X168750913Y-48868670D01*
X168829076Y-49030359D01*
X168941120Y-49170713D01*
X169081474Y-49282757D01*
X169243163Y-49360920D01*
X169250024Y-49362504D01*
X169412952Y-49400119D01*
X169412955Y-49400119D01*
X169418151Y-49401319D01*
X169422903Y-49401593D01*
X169424727Y-49401593D01*
X170156978Y-49401592D01*
X170878576Y-49401592D01*
X170883329Y-49401319D01*
X171058317Y-49360920D01*
X171220006Y-49282757D01*
X171360360Y-49170713D01*
X171472404Y-49030359D01*
X171550567Y-48868670D01*
X171552151Y-48861809D01*
X171589766Y-48698881D01*
X171589766Y-48698878D01*
X171590966Y-48693682D01*
X171591240Y-48688930D01*
X171591240Y-47961093D01*
X171591239Y-47235050D01*
X171591239Y-47233257D01*
X171590966Y-47228504D01*
X171550567Y-47053516D01*
X171472404Y-46891827D01*
X171360360Y-46751473D01*
X171220006Y-46639429D01*
X171207086Y-46633183D01*
X171064659Y-46564332D01*
X171064660Y-46564332D01*
X171058317Y-46561266D01*
X171051456Y-46559682D01*
X170888528Y-46522067D01*
X170888525Y-46522067D01*
X170883329Y-46520867D01*
X170878577Y-46520593D01*
X170876753Y-46520593D01*
X170144502Y-46520594D01*
X169422904Y-46520594D01*
X169418151Y-46520867D01*
X169243163Y-46561266D01*
X169236820Y-46564332D01*
X169236821Y-46564332D01*
X169094395Y-46633183D01*
X169081474Y-46639429D01*
X168941120Y-46751473D01*
X168829076Y-46891827D01*
X168750913Y-47053516D01*
X168749329Y-47060377D01*
X168721039Y-47182917D01*
X168710514Y-47228504D01*
X168710240Y-47233256D01*
X168710240Y-47235080D01*
X166693050Y-47235080D01*
X166693038Y-47235050D01*
X166691583Y-47231309D01*
X166691582Y-47231307D01*
X166689890Y-47226956D01*
X166564471Y-47007519D01*
X166407995Y-46809031D01*
X166223900Y-46635851D01*
X166016229Y-46491784D01*
X165999380Y-46483475D01*
X165793733Y-46382061D01*
X165793730Y-46382060D01*
X165789545Y-46379996D01*
X165745119Y-46365775D01*
X165693143Y-46349138D01*
X165555887Y-46305202D01*
X167270623Y-46305202D01*
X167270957Y-46307556D01*
X167273127Y-46310688D01*
X167637928Y-46675489D01*
X167651872Y-46683103D01*
X167653705Y-46682972D01*
X167660320Y-46678721D01*
X168024634Y-46314407D01*
X168030979Y-46302788D01*
X168022414Y-46299147D01*
X167803935Y-46263565D01*
X167794647Y-46262752D01*
X167551343Y-46259567D01*
X167542031Y-46260137D01*
X167300929Y-46292949D01*
X167291811Y-46294887D01*
X167282503Y-46297600D01*
X167270623Y-46305202D01*
X165555887Y-46305202D01*
X165548827Y-46302942D01*
X165544220Y-46302192D01*
X165544217Y-46302191D01*
X165303975Y-46263065D01*
X165303976Y-46263065D01*
X165299364Y-46262314D01*
X165176766Y-46260709D01*
X165051313Y-46259067D01*
X165051310Y-46259067D01*
X165046636Y-46259006D01*
X164796195Y-46293089D01*
X164791705Y-46294398D01*
X164791699Y-46294399D01*
X164688591Y-46324453D01*
X164553543Y-46363816D01*
X164549296Y-46365774D01*
X164549293Y-46365775D01*
X164513966Y-46382061D01*
X164324010Y-46469632D01*
X164320101Y-46472195D01*
X164116552Y-46605647D01*
X164116547Y-46605651D01*
X164112639Y-46608213D01*
X164072738Y-46643826D01*
X163945964Y-46756976D01*
X163924073Y-46776514D01*
X163762455Y-46970839D01*
X163631335Y-47186918D01*
X163629526Y-47191232D01*
X163629525Y-47191234D01*
X163580137Y-47309012D01*
X163533594Y-47420004D01*
X163471379Y-47664976D01*
X163446056Y-47916454D01*
X161452527Y-47916454D01*
X161452527Y-46483475D01*
X161458524Y-46445064D01*
X161467290Y-46417681D01*
X161474927Y-46378573D01*
X161529425Y-46099507D01*
X161529426Y-46099498D01*
X161530131Y-46095889D01*
X161554999Y-45768961D01*
X161550980Y-45671009D01*
X161541707Y-45445057D01*
X161541556Y-45441366D01*
X161489983Y-45117575D01*
X161457258Y-45001540D01*
X161452527Y-44967339D01*
X161452527Y-42357223D01*
X163475315Y-42357223D01*
X163475539Y-42361889D01*
X163475539Y-42361895D01*
X163477308Y-42398713D01*
X163487442Y-42609682D01*
X163536751Y-42857575D01*
X163538330Y-42861973D01*
X163538332Y-42861980D01*
X163620576Y-43091048D01*
X163622159Y-43095457D01*
X163741791Y-43318102D01*
X163744586Y-43321846D01*
X163744588Y-43321848D01*
X163890225Y-43516880D01*
X163890230Y-43516886D01*
X163893017Y-43520618D01*
X163896326Y-43523898D01*
X163896331Y-43523904D01*
X164061327Y-43687466D01*
X164072516Y-43698558D01*
X164076278Y-43701316D01*
X164076281Y-43701319D01*
X164215330Y-43803273D01*
X164276345Y-43848011D01*
X164280480Y-43850187D01*
X164280484Y-43850189D01*
X164397951Y-43911991D01*
X164500025Y-43965695D01*
X164738643Y-44049024D01*
X164743236Y-44049896D01*
X164982368Y-44095297D01*
X164982371Y-44095297D01*
X164986957Y-44096168D01*
X165107080Y-44100888D01*
X165234844Y-44105908D01*
X165234849Y-44105908D01*
X165239512Y-44106091D01*
X165317656Y-44097533D01*
X165486106Y-44079085D01*
X165486111Y-44079084D01*
X165490759Y-44078575D01*
X165553834Y-44061969D01*
X165567041Y-44058492D01*
X167301617Y-44058492D01*
X167309506Y-44061969D01*
X167482428Y-44094800D01*
X167491680Y-44095854D01*
X167734827Y-44105408D01*
X167744141Y-44105082D01*
X167986015Y-44078593D01*
X167995192Y-44076892D01*
X168046576Y-44063364D01*
X168058650Y-44056076D01*
X168058478Y-44054581D01*
X168055489Y-44050144D01*
X167692811Y-43687466D01*
X167678867Y-43679852D01*
X167677034Y-43679983D01*
X167670419Y-43684234D01*
X167308180Y-44046473D01*
X167301617Y-44058492D01*
X165567041Y-44058492D01*
X165730657Y-44015416D01*
X165730660Y-44015415D01*
X165735180Y-44014225D01*
X165967404Y-43914453D01*
X166074773Y-43848011D01*
X166178357Y-43783912D01*
X166178361Y-43783909D01*
X166182330Y-43781453D01*
X166276988Y-43701319D01*
X166371671Y-43621164D01*
X166371672Y-43621163D01*
X166375237Y-43618145D01*
X166457885Y-43523904D01*
X166538805Y-43431633D01*
X166538809Y-43431628D01*
X166541887Y-43428118D01*
X166614145Y-43315781D01*
X166676093Y-43219472D01*
X166676095Y-43219469D01*
X166678618Y-43215546D01*
X166782427Y-42985098D01*
X166851033Y-42741838D01*
X166867262Y-42614271D01*
X166882532Y-42494240D01*
X166882532Y-42494234D01*
X166882930Y-42491109D01*
X166885267Y-42401862D01*
X166866536Y-42149807D01*
X166810755Y-41903290D01*
X166748813Y-41744005D01*
X166722308Y-41675849D01*
X168739499Y-41675849D01*
X168739500Y-42405022D01*
X168739500Y-43129698D01*
X168739773Y-43134451D01*
X168780172Y-43309439D01*
X168858335Y-43471128D01*
X168970379Y-43611482D01*
X169110733Y-43723526D01*
X169117076Y-43726592D01*
X169117077Y-43726593D01*
X169197939Y-43765683D01*
X169272422Y-43801689D01*
X169279283Y-43803273D01*
X169442211Y-43840888D01*
X169442214Y-43840888D01*
X169447410Y-43842088D01*
X169452162Y-43842362D01*
X169453986Y-43842362D01*
X170186237Y-43842361D01*
X170907835Y-43842361D01*
X170912588Y-43842088D01*
X171087576Y-43801689D01*
X171162059Y-43765683D01*
X171242921Y-43726593D01*
X171242922Y-43726592D01*
X171249265Y-43723526D01*
X171389619Y-43611482D01*
X171501663Y-43471128D01*
X171579826Y-43309439D01*
X171581410Y-43302578D01*
X171619025Y-43139650D01*
X171619025Y-43139647D01*
X171620225Y-43134451D01*
X171620499Y-43129699D01*
X171620499Y-42401862D01*
X171620498Y-41675819D01*
X171620498Y-41674026D01*
X171620225Y-41669273D01*
X171579826Y-41494285D01*
X171501663Y-41332596D01*
X171389619Y-41192242D01*
X171249265Y-41080198D01*
X171236345Y-41073952D01*
X171093918Y-41005101D01*
X171093919Y-41005101D01*
X171087576Y-41002035D01*
X171080715Y-41000451D01*
X170917787Y-40962836D01*
X170917784Y-40962836D01*
X170912588Y-40961636D01*
X170907836Y-40961362D01*
X170906012Y-40961362D01*
X170173761Y-40961363D01*
X169452163Y-40961363D01*
X169447410Y-40961636D01*
X169272422Y-41002035D01*
X169266079Y-41005101D01*
X169266080Y-41005101D01*
X169123654Y-41073952D01*
X169110733Y-41080198D01*
X168970379Y-41192242D01*
X168858335Y-41332596D01*
X168780172Y-41494285D01*
X168778588Y-41501146D01*
X168750298Y-41623686D01*
X168739773Y-41669273D01*
X168739499Y-41674025D01*
X168739499Y-41675849D01*
X166722308Y-41675849D01*
X166720842Y-41672078D01*
X166720841Y-41672076D01*
X166719149Y-41667725D01*
X166593730Y-41448288D01*
X166437254Y-41249800D01*
X166253159Y-41076620D01*
X166045488Y-40932553D01*
X166041295Y-40930485D01*
X165822992Y-40822830D01*
X165822989Y-40822829D01*
X165818804Y-40820765D01*
X165774378Y-40806544D01*
X165722402Y-40789907D01*
X165585146Y-40745971D01*
X167299882Y-40745971D01*
X167300216Y-40748325D01*
X167302386Y-40751457D01*
X167667187Y-41116258D01*
X167681131Y-41123872D01*
X167682964Y-41123741D01*
X167689579Y-41119490D01*
X168053893Y-40755176D01*
X168060238Y-40743557D01*
X168051673Y-40739916D01*
X167833194Y-40704334D01*
X167823906Y-40703521D01*
X167580602Y-40700336D01*
X167571290Y-40700906D01*
X167330188Y-40733718D01*
X167321070Y-40735656D01*
X167311762Y-40738369D01*
X167299882Y-40745971D01*
X165585146Y-40745971D01*
X165578086Y-40743711D01*
X165573479Y-40742961D01*
X165573476Y-40742960D01*
X165333234Y-40703834D01*
X165333235Y-40703834D01*
X165328623Y-40703083D01*
X165206025Y-40701478D01*
X165080572Y-40699836D01*
X165080569Y-40699836D01*
X165075895Y-40699775D01*
X164825454Y-40733858D01*
X164820964Y-40735167D01*
X164820958Y-40735168D01*
X164717850Y-40765222D01*
X164582802Y-40804585D01*
X164578555Y-40806543D01*
X164578552Y-40806544D01*
X164543225Y-40822830D01*
X164353269Y-40910401D01*
X164349360Y-40912964D01*
X164145811Y-41046416D01*
X164145806Y-41046420D01*
X164141898Y-41048982D01*
X164101997Y-41084595D01*
X163975223Y-41197745D01*
X163953332Y-41217283D01*
X163791714Y-41411608D01*
X163660594Y-41627687D01*
X163658785Y-41632001D01*
X163658784Y-41632003D01*
X163594660Y-41784923D01*
X163562853Y-41860773D01*
X163561702Y-41865305D01*
X163561701Y-41865308D01*
X163550898Y-41907847D01*
X163500638Y-42105745D01*
X163475315Y-42357223D01*
X161452527Y-42357223D01*
X161452527Y-36785361D01*
X163475316Y-36785361D01*
X163487443Y-37037820D01*
X163536752Y-37285713D01*
X163538331Y-37290111D01*
X163538333Y-37290118D01*
X163620577Y-37519186D01*
X163622160Y-37523595D01*
X163741792Y-37746240D01*
X163744587Y-37749984D01*
X163744589Y-37749986D01*
X163890226Y-37945018D01*
X163890231Y-37945024D01*
X163893018Y-37948756D01*
X163896327Y-37952036D01*
X163896332Y-37952042D01*
X164061328Y-38115604D01*
X164072517Y-38126696D01*
X164076279Y-38129454D01*
X164076282Y-38129457D01*
X164215331Y-38231411D01*
X164276346Y-38276149D01*
X164280481Y-38278325D01*
X164280485Y-38278327D01*
X164397952Y-38340129D01*
X164500026Y-38393833D01*
X164738644Y-38477162D01*
X164743237Y-38478034D01*
X164982369Y-38523435D01*
X164982372Y-38523435D01*
X164986958Y-38524306D01*
X165107081Y-38529026D01*
X165234845Y-38534046D01*
X165234850Y-38534046D01*
X165239513Y-38534229D01*
X165317657Y-38525671D01*
X165486107Y-38507223D01*
X165486112Y-38507222D01*
X165490760Y-38506713D01*
X165553835Y-38490107D01*
X165567042Y-38486630D01*
X167301618Y-38486630D01*
X167309507Y-38490107D01*
X167482429Y-38522938D01*
X167491681Y-38523992D01*
X167734828Y-38533546D01*
X167744142Y-38533220D01*
X167986016Y-38506731D01*
X167995193Y-38505030D01*
X168046577Y-38491502D01*
X168058651Y-38484214D01*
X168058479Y-38482719D01*
X168055490Y-38478282D01*
X167692812Y-38115604D01*
X167678868Y-38107990D01*
X167677035Y-38108121D01*
X167670420Y-38112372D01*
X167308181Y-38474611D01*
X167301618Y-38486630D01*
X165567042Y-38486630D01*
X165730658Y-38443554D01*
X165730661Y-38443553D01*
X165735181Y-38442363D01*
X165967405Y-38342591D01*
X166074774Y-38276149D01*
X166178358Y-38212050D01*
X166178362Y-38212047D01*
X166182331Y-38209591D01*
X166276989Y-38129457D01*
X166371672Y-38049302D01*
X166371673Y-38049301D01*
X166375238Y-38046283D01*
X166457886Y-37952042D01*
X166538806Y-37859771D01*
X166538810Y-37859766D01*
X166541888Y-37856256D01*
X166614146Y-37743919D01*
X166676094Y-37647610D01*
X166676096Y-37647607D01*
X166678619Y-37643684D01*
X166782428Y-37413236D01*
X166851034Y-37169976D01*
X166867263Y-37042409D01*
X166882533Y-36922378D01*
X166882533Y-36922372D01*
X166882931Y-36919247D01*
X166885268Y-36830000D01*
X166866537Y-36577945D01*
X166810756Y-36331428D01*
X166722310Y-36103987D01*
X168739500Y-36103987D01*
X168739501Y-36833160D01*
X168739501Y-37557836D01*
X168739774Y-37562589D01*
X168780173Y-37737577D01*
X168858336Y-37899266D01*
X168970380Y-38039620D01*
X169110734Y-38151664D01*
X169272423Y-38229827D01*
X169279284Y-38231411D01*
X169442212Y-38269026D01*
X169442215Y-38269026D01*
X169447411Y-38270226D01*
X169452163Y-38270500D01*
X169453987Y-38270500D01*
X170186238Y-38270499D01*
X170907836Y-38270499D01*
X170912589Y-38270226D01*
X171087577Y-38229827D01*
X171249266Y-38151664D01*
X171389620Y-38039620D01*
X171501664Y-37899266D01*
X171579827Y-37737577D01*
X171581411Y-37730716D01*
X171619026Y-37567788D01*
X171619026Y-37567785D01*
X171620226Y-37562589D01*
X171620500Y-37557837D01*
X171620500Y-36830000D01*
X171620499Y-36103957D01*
X171620499Y-36102164D01*
X171620226Y-36097411D01*
X171579827Y-35922423D01*
X171501664Y-35760734D01*
X171389620Y-35620380D01*
X171249266Y-35508336D01*
X171236346Y-35502090D01*
X171093919Y-35433239D01*
X171093920Y-35433239D01*
X171087577Y-35430173D01*
X171080716Y-35428589D01*
X170917788Y-35390974D01*
X170917785Y-35390974D01*
X170912589Y-35389774D01*
X170907837Y-35389500D01*
X170906013Y-35389500D01*
X170173762Y-35389501D01*
X169452164Y-35389501D01*
X169447411Y-35389774D01*
X169272423Y-35430173D01*
X169266080Y-35433239D01*
X169266081Y-35433239D01*
X169123655Y-35502090D01*
X169110734Y-35508336D01*
X168970380Y-35620380D01*
X168858336Y-35760734D01*
X168780173Y-35922423D01*
X168778589Y-35929284D01*
X168750299Y-36051824D01*
X168739774Y-36097411D01*
X168739500Y-36102163D01*
X168739500Y-36103987D01*
X166722310Y-36103987D01*
X166722298Y-36103957D01*
X166720843Y-36100216D01*
X166720842Y-36100214D01*
X166719150Y-36095863D01*
X166593731Y-35876426D01*
X166437255Y-35677938D01*
X166253160Y-35504758D01*
X166045489Y-35360691D01*
X166041296Y-35358623D01*
X165822993Y-35250968D01*
X165822990Y-35250967D01*
X165818805Y-35248903D01*
X165774379Y-35234682D01*
X165722403Y-35218045D01*
X165585147Y-35174109D01*
X167299883Y-35174109D01*
X167300217Y-35176463D01*
X167302387Y-35179595D01*
X167667188Y-35544396D01*
X167681132Y-35552010D01*
X167682965Y-35551879D01*
X167689580Y-35547628D01*
X168053894Y-35183314D01*
X168060239Y-35171695D01*
X168051674Y-35168054D01*
X167833195Y-35132472D01*
X167823907Y-35131659D01*
X167580603Y-35128474D01*
X167571291Y-35129044D01*
X167330189Y-35161856D01*
X167321071Y-35163794D01*
X167311763Y-35166507D01*
X167299883Y-35174109D01*
X165585147Y-35174109D01*
X165578087Y-35171849D01*
X165573480Y-35171099D01*
X165573477Y-35171098D01*
X165333235Y-35131972D01*
X165333236Y-35131972D01*
X165328624Y-35131221D01*
X165206026Y-35129616D01*
X165080573Y-35127974D01*
X165080570Y-35127974D01*
X165075896Y-35127913D01*
X164825455Y-35161996D01*
X164820965Y-35163305D01*
X164820959Y-35163306D01*
X164717851Y-35193360D01*
X164582803Y-35232723D01*
X164578556Y-35234681D01*
X164578553Y-35234682D01*
X164543226Y-35250968D01*
X164353270Y-35338539D01*
X164349361Y-35341102D01*
X164145812Y-35474554D01*
X164145807Y-35474558D01*
X164141899Y-35477120D01*
X164101998Y-35512733D01*
X163975224Y-35625883D01*
X163953333Y-35645421D01*
X163791715Y-35839746D01*
X163660595Y-36055825D01*
X163658786Y-36060139D01*
X163658785Y-36060141D01*
X163640412Y-36103957D01*
X163562854Y-36288911D01*
X163500639Y-36533883D01*
X163475316Y-36785361D01*
X161452527Y-36785361D01*
X161452527Y-31136141D01*
X163503908Y-31136141D01*
X163516035Y-31388600D01*
X163565344Y-31636493D01*
X163566923Y-31640891D01*
X163566925Y-31640898D01*
X163649169Y-31869966D01*
X163650752Y-31874375D01*
X163770384Y-32097020D01*
X163773179Y-32100764D01*
X163773181Y-32100766D01*
X163918818Y-32295798D01*
X163918823Y-32295804D01*
X163921610Y-32299536D01*
X163924919Y-32302816D01*
X163924924Y-32302822D01*
X164089920Y-32466384D01*
X164101109Y-32477476D01*
X164104871Y-32480234D01*
X164104874Y-32480237D01*
X164243923Y-32582191D01*
X164304938Y-32626929D01*
X164309073Y-32629105D01*
X164309077Y-32629107D01*
X164426544Y-32690909D01*
X164528618Y-32744613D01*
X164767236Y-32827942D01*
X164771829Y-32828814D01*
X165010961Y-32874215D01*
X165010964Y-32874215D01*
X165015550Y-32875086D01*
X165135673Y-32879806D01*
X165263437Y-32884826D01*
X165263442Y-32884826D01*
X165268105Y-32885009D01*
X165346249Y-32876451D01*
X165514699Y-32858003D01*
X165514704Y-32858002D01*
X165519352Y-32857493D01*
X165582427Y-32840887D01*
X165595634Y-32837410D01*
X167330210Y-32837410D01*
X167338099Y-32840887D01*
X167511021Y-32873718D01*
X167520273Y-32874772D01*
X167763420Y-32884326D01*
X167772734Y-32884000D01*
X168014608Y-32857511D01*
X168023785Y-32855810D01*
X168075169Y-32842282D01*
X168087243Y-32834994D01*
X168087071Y-32833499D01*
X168084082Y-32829062D01*
X167721404Y-32466384D01*
X167707460Y-32458770D01*
X167705627Y-32458901D01*
X167699012Y-32463152D01*
X167336773Y-32825391D01*
X167330210Y-32837410D01*
X165595634Y-32837410D01*
X165759250Y-32794334D01*
X165759253Y-32794333D01*
X165763773Y-32793143D01*
X165995997Y-32693371D01*
X166103366Y-32626929D01*
X166206950Y-32562830D01*
X166206954Y-32562827D01*
X166210923Y-32560371D01*
X166305581Y-32480237D01*
X166400264Y-32400082D01*
X166400265Y-32400081D01*
X166403830Y-32397063D01*
X166486478Y-32302822D01*
X166567398Y-32210551D01*
X166567402Y-32210546D01*
X166570480Y-32207036D01*
X166642738Y-32094699D01*
X166704686Y-31998390D01*
X166704688Y-31998387D01*
X166707211Y-31994464D01*
X166811020Y-31764016D01*
X166879626Y-31520756D01*
X166895855Y-31393189D01*
X166911125Y-31273158D01*
X166911125Y-31273152D01*
X166911523Y-31270027D01*
X166913860Y-31180780D01*
X166895129Y-30928725D01*
X166839348Y-30682208D01*
X166750902Y-30454767D01*
X168768092Y-30454767D01*
X168768093Y-31183940D01*
X168768093Y-31908616D01*
X168768366Y-31913369D01*
X168808765Y-32088357D01*
X168886928Y-32250046D01*
X168998972Y-32390400D01*
X169139326Y-32502444D01*
X169301015Y-32580607D01*
X169307876Y-32582191D01*
X169470804Y-32619806D01*
X169470807Y-32619806D01*
X169476003Y-32621006D01*
X169480755Y-32621280D01*
X169482579Y-32621280D01*
X170214830Y-32621279D01*
X170936428Y-32621279D01*
X170941181Y-32621006D01*
X171116169Y-32580607D01*
X171277858Y-32502444D01*
X171418212Y-32390400D01*
X171530256Y-32250046D01*
X171608419Y-32088357D01*
X171610003Y-32081496D01*
X171647618Y-31918568D01*
X171647618Y-31918565D01*
X171648818Y-31913369D01*
X171649092Y-31908617D01*
X171649092Y-31180780D01*
X171649091Y-30454737D01*
X171649091Y-30452944D01*
X171648818Y-30448191D01*
X171608419Y-30273203D01*
X171530256Y-30111514D01*
X171418212Y-29971160D01*
X171277858Y-29859116D01*
X171264938Y-29852870D01*
X171122511Y-29784019D01*
X171122512Y-29784019D01*
X171116169Y-29780953D01*
X171109308Y-29779369D01*
X170946380Y-29741754D01*
X170946377Y-29741754D01*
X170941181Y-29740554D01*
X170936429Y-29740280D01*
X170934605Y-29740280D01*
X170202354Y-29740281D01*
X169480756Y-29740281D01*
X169476003Y-29740554D01*
X169301015Y-29780953D01*
X169294672Y-29784019D01*
X169294673Y-29784019D01*
X169152247Y-29852870D01*
X169139326Y-29859116D01*
X168998972Y-29971160D01*
X168886928Y-30111514D01*
X168808765Y-30273203D01*
X168807181Y-30280064D01*
X168778891Y-30402604D01*
X168768366Y-30448191D01*
X168768092Y-30452943D01*
X168768092Y-30454767D01*
X166750902Y-30454767D01*
X166750890Y-30454737D01*
X166749435Y-30450996D01*
X166749434Y-30450994D01*
X166747742Y-30446643D01*
X166622323Y-30227206D01*
X166465847Y-30028718D01*
X166281752Y-29855538D01*
X166074081Y-29711471D01*
X166069888Y-29709403D01*
X165851585Y-29601748D01*
X165851582Y-29601747D01*
X165847397Y-29599683D01*
X165802971Y-29585462D01*
X165750995Y-29568825D01*
X165613739Y-29524889D01*
X167328475Y-29524889D01*
X167328809Y-29527243D01*
X167330979Y-29530375D01*
X167695780Y-29895176D01*
X167709724Y-29902790D01*
X167711557Y-29902659D01*
X167718172Y-29898408D01*
X168082486Y-29534094D01*
X168088831Y-29522475D01*
X168080266Y-29518834D01*
X167861787Y-29483252D01*
X167852499Y-29482439D01*
X167609195Y-29479254D01*
X167599883Y-29479824D01*
X167358781Y-29512636D01*
X167349663Y-29514574D01*
X167340355Y-29517287D01*
X167328475Y-29524889D01*
X165613739Y-29524889D01*
X165606679Y-29522629D01*
X165602072Y-29521879D01*
X165602069Y-29521878D01*
X165361827Y-29482752D01*
X165361828Y-29482752D01*
X165357216Y-29482001D01*
X165234618Y-29480396D01*
X165109165Y-29478754D01*
X165109162Y-29478754D01*
X165104488Y-29478693D01*
X164854047Y-29512776D01*
X164849557Y-29514085D01*
X164849551Y-29514086D01*
X164746443Y-29544140D01*
X164611395Y-29583503D01*
X164607148Y-29585461D01*
X164607145Y-29585462D01*
X164571818Y-29601748D01*
X164381862Y-29689319D01*
X164377953Y-29691882D01*
X164174404Y-29825334D01*
X164174399Y-29825338D01*
X164170491Y-29827900D01*
X164130590Y-29863513D01*
X164003816Y-29976663D01*
X163981925Y-29996201D01*
X163820307Y-30190526D01*
X163689187Y-30406605D01*
X163687378Y-30410919D01*
X163687377Y-30410921D01*
X163669004Y-30454737D01*
X163591446Y-30639691D01*
X163529231Y-30884663D01*
X163503908Y-31136141D01*
X161452527Y-31136141D01*
X161452527Y-25530194D01*
X163532500Y-25530194D01*
X163544627Y-25782653D01*
X163545540Y-25787242D01*
X163592218Y-26021907D01*
X163593936Y-26030546D01*
X163595515Y-26034944D01*
X163595517Y-26034951D01*
X163677761Y-26264019D01*
X163679344Y-26268428D01*
X163798976Y-26491073D01*
X163801771Y-26494817D01*
X163801773Y-26494819D01*
X163947410Y-26689851D01*
X163947415Y-26689857D01*
X163950202Y-26693589D01*
X163953511Y-26696869D01*
X163953516Y-26696875D01*
X164118512Y-26860437D01*
X164129701Y-26871529D01*
X164133463Y-26874287D01*
X164133466Y-26874290D01*
X164272515Y-26976244D01*
X164333530Y-27020982D01*
X164337665Y-27023158D01*
X164337669Y-27023160D01*
X164455136Y-27084962D01*
X164557210Y-27138666D01*
X164795828Y-27221995D01*
X164800421Y-27222867D01*
X165039553Y-27268268D01*
X165039556Y-27268268D01*
X165044142Y-27269139D01*
X165164265Y-27273859D01*
X165292029Y-27278879D01*
X165292034Y-27278879D01*
X165296697Y-27279062D01*
X165374841Y-27270504D01*
X165543291Y-27252056D01*
X165543296Y-27252055D01*
X165547944Y-27251546D01*
X165611019Y-27234940D01*
X165624226Y-27231463D01*
X167358802Y-27231463D01*
X167366691Y-27234940D01*
X167539613Y-27267771D01*
X167548865Y-27268825D01*
X167792012Y-27278379D01*
X167801326Y-27278053D01*
X168043200Y-27251564D01*
X168052377Y-27249863D01*
X168103761Y-27236335D01*
X168115835Y-27229047D01*
X168115663Y-27227552D01*
X168112674Y-27223115D01*
X167749996Y-26860437D01*
X167736052Y-26852823D01*
X167734219Y-26852954D01*
X167727604Y-26857205D01*
X167365365Y-27219444D01*
X167358802Y-27231463D01*
X165624226Y-27231463D01*
X165787842Y-27188387D01*
X165787845Y-27188386D01*
X165792365Y-27187196D01*
X166024589Y-27087424D01*
X166131958Y-27020982D01*
X166235542Y-26956883D01*
X166235546Y-26956880D01*
X166239515Y-26954424D01*
X166334173Y-26874290D01*
X166428856Y-26794135D01*
X166428857Y-26794134D01*
X166432422Y-26791116D01*
X166515070Y-26696875D01*
X166595990Y-26604604D01*
X166595994Y-26604599D01*
X166599072Y-26601089D01*
X166671330Y-26488752D01*
X166733278Y-26392443D01*
X166733280Y-26392440D01*
X166735803Y-26388517D01*
X166839612Y-26158069D01*
X166908218Y-25914809D01*
X166924930Y-25783440D01*
X166939717Y-25667211D01*
X166939717Y-25667205D01*
X166940115Y-25664080D01*
X166942452Y-25574833D01*
X166923721Y-25322778D01*
X166867940Y-25076261D01*
X166779494Y-24848820D01*
X168796684Y-24848820D01*
X168796685Y-25577993D01*
X168796685Y-26302669D01*
X168796958Y-26307422D01*
X168837357Y-26482410D01*
X168915520Y-26644099D01*
X169027564Y-26784453D01*
X169167918Y-26896497D01*
X169329607Y-26974660D01*
X169336468Y-26976244D01*
X169499396Y-27013859D01*
X169499399Y-27013859D01*
X169504595Y-27015059D01*
X169509347Y-27015333D01*
X169511171Y-27015333D01*
X170243422Y-27015332D01*
X170965020Y-27015332D01*
X170969773Y-27015059D01*
X171144761Y-26974660D01*
X171306450Y-26896497D01*
X171446804Y-26784453D01*
X171558848Y-26644099D01*
X171637011Y-26482410D01*
X171638595Y-26475549D01*
X171676210Y-26312621D01*
X171676210Y-26312618D01*
X171677410Y-26307422D01*
X171677684Y-26302670D01*
X171677684Y-25574833D01*
X171677683Y-24848790D01*
X171677683Y-24846997D01*
X171677410Y-24842244D01*
X171637011Y-24667256D01*
X171558848Y-24505567D01*
X171446804Y-24365213D01*
X171306450Y-24253169D01*
X171293530Y-24246923D01*
X171151103Y-24178072D01*
X171151104Y-24178072D01*
X171144761Y-24175006D01*
X171065027Y-24156598D01*
X170974972Y-24135807D01*
X170974969Y-24135807D01*
X170969773Y-24134607D01*
X170965021Y-24134333D01*
X170963197Y-24134333D01*
X170230946Y-24134334D01*
X169509348Y-24134334D01*
X169504595Y-24134607D01*
X169329607Y-24175006D01*
X169323264Y-24178072D01*
X169323265Y-24178072D01*
X169180839Y-24246923D01*
X169167918Y-24253169D01*
X169027564Y-24365213D01*
X168915520Y-24505567D01*
X168837357Y-24667256D01*
X168835773Y-24674117D01*
X168807483Y-24796657D01*
X168796958Y-24842244D01*
X168796684Y-24846996D01*
X168796684Y-24848820D01*
X166779494Y-24848820D01*
X166779482Y-24848790D01*
X166778027Y-24845049D01*
X166778026Y-24845047D01*
X166776334Y-24840696D01*
X166650915Y-24621259D01*
X166494439Y-24422771D01*
X166310344Y-24249591D01*
X166102673Y-24105524D01*
X166068525Y-24088684D01*
X165880177Y-23995801D01*
X165880174Y-23995800D01*
X165875989Y-23993736D01*
X165831563Y-23979515D01*
X165779587Y-23962878D01*
X165642331Y-23918942D01*
X167357067Y-23918942D01*
X167357401Y-23921296D01*
X167359571Y-23924428D01*
X167724372Y-24289229D01*
X167738316Y-24296843D01*
X167740149Y-24296712D01*
X167746764Y-24292461D01*
X168111078Y-23928147D01*
X168117423Y-23916528D01*
X168108858Y-23912887D01*
X167890379Y-23877305D01*
X167881091Y-23876492D01*
X167637787Y-23873307D01*
X167628475Y-23873877D01*
X167387373Y-23906689D01*
X167378255Y-23908627D01*
X167368947Y-23911340D01*
X167357067Y-23918942D01*
X165642331Y-23918942D01*
X165635271Y-23916682D01*
X165630664Y-23915932D01*
X165630661Y-23915931D01*
X165390419Y-23876805D01*
X165390420Y-23876805D01*
X165385808Y-23876054D01*
X165263210Y-23874449D01*
X165137757Y-23872807D01*
X165137754Y-23872807D01*
X165133080Y-23872746D01*
X164882639Y-23906829D01*
X164878149Y-23908138D01*
X164878143Y-23908139D01*
X164775035Y-23938193D01*
X164639987Y-23977556D01*
X164635740Y-23979514D01*
X164635737Y-23979515D01*
X164549717Y-24019171D01*
X164410454Y-24083372D01*
X164406545Y-24085935D01*
X164202996Y-24219387D01*
X164202991Y-24219391D01*
X164199083Y-24221953D01*
X164123706Y-24289229D01*
X164032408Y-24370716D01*
X164010517Y-24390254D01*
X163848899Y-24584579D01*
X163717779Y-24800658D01*
X163715970Y-24804972D01*
X163715969Y-24804974D01*
X163645471Y-24973094D01*
X163620038Y-25033744D01*
X163557823Y-25278716D01*
X163532500Y-25530194D01*
X161452527Y-25530194D01*
X161452527Y-19925000D01*
X174817199Y-19925000D01*
X174885320Y-19945002D01*
G37*
%TD.AperFunction*%
%TD*%
M02*
