%TF.GenerationSoftware,KiCad,Pcbnew,6.0.2+dfsg-1*%
%TF.CreationDate,2023-08-31T23:14:49-03:00*%
%TF.ProjectId,placa_alimentacao,706c6163-615f-4616-9c69-6d656e746163,rev?*%
%TF.SameCoordinates,Original*%
%TF.FileFunction,Legend,Top*%
%TF.FilePolarity,Positive*%
%FSLAX46Y46*%
G04 Gerber Fmt 4.6, Leading zero omitted, Abs format (unit mm)*
G04 Created by KiCad (PCBNEW 6.0.2+dfsg-1) date 2023-08-31 23:14:49*
%MOMM*%
%LPD*%
G01*
G04 APERTURE LIST*
%ADD10C,0.150000*%
%ADD11C,0.120000*%
%ADD12C,0.127000*%
%ADD13C,0.200000*%
G04 APERTURE END LIST*
D10*
X157790476Y-69497380D02*
X157790476Y-68497380D01*
X158028571Y-68497380D01*
X158171428Y-68545000D01*
X158266666Y-68640238D01*
X158314285Y-68735476D01*
X158361904Y-68925952D01*
X158361904Y-69068809D01*
X158314285Y-69259285D01*
X158266666Y-69354523D01*
X158171428Y-69449761D01*
X158028571Y-69497380D01*
X157790476Y-69497380D01*
X159219047Y-69497380D02*
X159219047Y-68973571D01*
X159171428Y-68878333D01*
X159076190Y-68830714D01*
X158885714Y-68830714D01*
X158790476Y-68878333D01*
X159219047Y-69449761D02*
X159123809Y-69497380D01*
X158885714Y-69497380D01*
X158790476Y-69449761D01*
X158742857Y-69354523D01*
X158742857Y-69259285D01*
X158790476Y-69164047D01*
X158885714Y-69116428D01*
X159123809Y-69116428D01*
X159219047Y-69068809D01*
X159695238Y-68830714D02*
X159695238Y-69497380D01*
X159695238Y-68925952D02*
X159742857Y-68878333D01*
X159838095Y-68830714D01*
X159980952Y-68830714D01*
X160076190Y-68878333D01*
X160123809Y-68973571D01*
X160123809Y-69497380D01*
X160600000Y-69497380D02*
X160600000Y-68830714D01*
X160600000Y-68497380D02*
X160552380Y-68545000D01*
X160600000Y-68592619D01*
X160647619Y-68545000D01*
X160600000Y-68497380D01*
X160600000Y-68592619D01*
X161457142Y-69449761D02*
X161361904Y-69497380D01*
X161171428Y-69497380D01*
X161076190Y-69449761D01*
X161028571Y-69354523D01*
X161028571Y-68973571D01*
X161076190Y-68878333D01*
X161171428Y-68830714D01*
X161361904Y-68830714D01*
X161457142Y-68878333D01*
X161504761Y-68973571D01*
X161504761Y-69068809D01*
X161028571Y-69164047D01*
X162076190Y-69497380D02*
X161980952Y-69449761D01*
X161933333Y-69354523D01*
X161933333Y-68497380D01*
X163790476Y-69402142D02*
X163742857Y-69449761D01*
X163600000Y-69497380D01*
X163504761Y-69497380D01*
X163361904Y-69449761D01*
X163266666Y-69354523D01*
X163219047Y-69259285D01*
X163171428Y-69068809D01*
X163171428Y-68925952D01*
X163219047Y-68735476D01*
X163266666Y-68640238D01*
X163361904Y-68545000D01*
X163504761Y-68497380D01*
X163600000Y-68497380D01*
X163742857Y-68545000D01*
X163790476Y-68592619D01*
X164600000Y-69449761D02*
X164504761Y-69497380D01*
X164314285Y-69497380D01*
X164219047Y-69449761D01*
X164171428Y-69354523D01*
X164171428Y-68973571D01*
X164219047Y-68878333D01*
X164314285Y-68830714D01*
X164504761Y-68830714D01*
X164600000Y-68878333D01*
X164647619Y-68973571D01*
X164647619Y-69068809D01*
X164171428Y-69164047D01*
X165076190Y-69497380D02*
X165076190Y-68830714D01*
X165076190Y-69021190D02*
X165123809Y-68925952D01*
X165171428Y-68878333D01*
X165266666Y-68830714D01*
X165361904Y-68830714D01*
X165552380Y-68830714D02*
X165933333Y-68830714D01*
X165695238Y-68497380D02*
X165695238Y-69354523D01*
X165742857Y-69449761D01*
X165838095Y-69497380D01*
X165933333Y-69497380D01*
X166647619Y-69449761D02*
X166552380Y-69497380D01*
X166361904Y-69497380D01*
X166266666Y-69449761D01*
X166219047Y-69354523D01*
X166219047Y-68973571D01*
X166266666Y-68878333D01*
X166361904Y-68830714D01*
X166552380Y-68830714D01*
X166647619Y-68878333D01*
X166695238Y-68973571D01*
X166695238Y-69068809D01*
X166219047Y-69164047D01*
X167028571Y-68830714D02*
X167552380Y-68830714D01*
X167028571Y-69497380D01*
X167552380Y-69497380D01*
X168361904Y-69497380D02*
X168361904Y-68973571D01*
X168314285Y-68878333D01*
X168219047Y-68830714D01*
X168028571Y-68830714D01*
X167933333Y-68878333D01*
X168361904Y-69449761D02*
X168266666Y-69497380D01*
X168028571Y-69497380D01*
X167933333Y-69449761D01*
X167885714Y-69354523D01*
X167885714Y-69259285D01*
X167933333Y-69164047D01*
X168028571Y-69116428D01*
X168266666Y-69116428D01*
X168361904Y-69068809D01*
X168790476Y-69449761D02*
X168885714Y-69497380D01*
X169076190Y-69497380D01*
X169171428Y-69449761D01*
X169219047Y-69354523D01*
X169219047Y-69306904D01*
X169171428Y-69211666D01*
X169076190Y-69164047D01*
X168933333Y-69164047D01*
X168838095Y-69116428D01*
X168790476Y-69021190D01*
X168790476Y-68973571D01*
X168838095Y-68878333D01*
X168933333Y-68830714D01*
X169076190Y-68830714D01*
X169171428Y-68878333D01*
X170409523Y-69497380D02*
X170409523Y-68497380D01*
X171314285Y-68830714D02*
X171314285Y-69497380D01*
X170885714Y-68830714D02*
X170885714Y-69354523D01*
X170933333Y-69449761D01*
X171028571Y-69497380D01*
X171171428Y-69497380D01*
X171266666Y-69449761D01*
X171314285Y-69402142D01*
X171790476Y-69497380D02*
X171790476Y-68830714D01*
X171790476Y-69021190D02*
X171838095Y-68925952D01*
X171885714Y-68878333D01*
X171980952Y-68830714D01*
X172076190Y-68830714D01*
X172409523Y-69497380D02*
X172409523Y-68830714D01*
X172409523Y-68497380D02*
X172361904Y-68545000D01*
X172409523Y-68592619D01*
X172457142Y-68545000D01*
X172409523Y-68497380D01*
X172409523Y-68592619D01*
X157147619Y-70583571D02*
X157480952Y-70583571D01*
X157623809Y-71107380D02*
X157147619Y-71107380D01*
X157147619Y-70107380D01*
X157623809Y-70107380D01*
X158052380Y-70440714D02*
X158052380Y-71107380D01*
X158052380Y-70535952D02*
X158100000Y-70488333D01*
X158195238Y-70440714D01*
X158338095Y-70440714D01*
X158433333Y-70488333D01*
X158480952Y-70583571D01*
X158480952Y-71107380D01*
X159385714Y-70440714D02*
X159385714Y-71250238D01*
X159338095Y-71345476D01*
X159290476Y-71393095D01*
X159195238Y-71440714D01*
X159052380Y-71440714D01*
X158957142Y-71393095D01*
X159385714Y-71059761D02*
X159290476Y-71107380D01*
X159100000Y-71107380D01*
X159004761Y-71059761D01*
X158957142Y-71012142D01*
X158909523Y-70916904D01*
X158909523Y-70631190D01*
X158957142Y-70535952D01*
X159004761Y-70488333D01*
X159100000Y-70440714D01*
X159290476Y-70440714D01*
X159385714Y-70488333D01*
X160004761Y-71107380D02*
X159909523Y-71059761D01*
X159861904Y-71012142D01*
X159814285Y-70916904D01*
X159814285Y-70631190D01*
X159861904Y-70535952D01*
X159909523Y-70488333D01*
X160004761Y-70440714D01*
X160147619Y-70440714D01*
X160242857Y-70488333D01*
X160290476Y-70535952D01*
X160338095Y-70631190D01*
X160338095Y-70916904D01*
X160290476Y-71012142D01*
X160242857Y-71059761D01*
X160147619Y-71107380D01*
X160004761Y-71107380D01*
X160671428Y-70440714D02*
X160909523Y-71107380D01*
X161147619Y-70440714D01*
X162766666Y-71107380D02*
X162290476Y-71107380D01*
X162290476Y-70107380D01*
X163480952Y-71059761D02*
X163385714Y-71107380D01*
X163195238Y-71107380D01*
X163100000Y-71059761D01*
X163052380Y-70964523D01*
X163052380Y-70583571D01*
X163100000Y-70488333D01*
X163195238Y-70440714D01*
X163385714Y-70440714D01*
X163480952Y-70488333D01*
X163528571Y-70583571D01*
X163528571Y-70678809D01*
X163052380Y-70774047D01*
X164100000Y-71107380D02*
X164004761Y-71059761D01*
X163957142Y-71012142D01*
X163909523Y-70916904D01*
X163909523Y-70631190D01*
X163957142Y-70535952D01*
X164004761Y-70488333D01*
X164100000Y-70440714D01*
X164242857Y-70440714D01*
X164338095Y-70488333D01*
X164385714Y-70535952D01*
X164433333Y-70631190D01*
X164433333Y-70916904D01*
X164385714Y-71012142D01*
X164338095Y-71059761D01*
X164242857Y-71107380D01*
X164100000Y-71107380D01*
X165623809Y-71107380D02*
X165623809Y-70107380D01*
X166528571Y-70440714D02*
X166528571Y-71250238D01*
X166480952Y-71345476D01*
X166433333Y-71393095D01*
X166338095Y-71440714D01*
X166195238Y-71440714D01*
X166100000Y-71393095D01*
X166528571Y-71059761D02*
X166433333Y-71107380D01*
X166242857Y-71107380D01*
X166147619Y-71059761D01*
X166100000Y-71012142D01*
X166052380Y-70916904D01*
X166052380Y-70631190D01*
X166100000Y-70535952D01*
X166147619Y-70488333D01*
X166242857Y-70440714D01*
X166433333Y-70440714D01*
X166528571Y-70488333D01*
X167147619Y-71107380D02*
X167052380Y-71059761D01*
X167004761Y-71012142D01*
X166957142Y-70916904D01*
X166957142Y-70631190D01*
X167004761Y-70535952D01*
X167052380Y-70488333D01*
X167147619Y-70440714D01*
X167290476Y-70440714D01*
X167385714Y-70488333D01*
X167433333Y-70535952D01*
X167480952Y-70631190D01*
X167480952Y-70916904D01*
X167433333Y-71012142D01*
X167385714Y-71059761D01*
X167290476Y-71107380D01*
X167147619Y-71107380D01*
X167909523Y-71107380D02*
X167909523Y-70440714D01*
X167909523Y-70631190D02*
X167957142Y-70535952D01*
X168004761Y-70488333D01*
X168100000Y-70440714D01*
X168195238Y-70440714D01*
X169290476Y-71107380D02*
X169290476Y-70107380D01*
X169671428Y-70107380D01*
X169766666Y-70155000D01*
X169814285Y-70202619D01*
X169861904Y-70297857D01*
X169861904Y-70440714D01*
X169814285Y-70535952D01*
X169766666Y-70583571D01*
X169671428Y-70631190D01*
X169290476Y-70631190D01*
X170719047Y-71107380D02*
X170719047Y-70583571D01*
X170671428Y-70488333D01*
X170576190Y-70440714D01*
X170385714Y-70440714D01*
X170290476Y-70488333D01*
X170719047Y-71059761D02*
X170623809Y-71107380D01*
X170385714Y-71107380D01*
X170290476Y-71059761D01*
X170242857Y-70964523D01*
X170242857Y-70869285D01*
X170290476Y-70774047D01*
X170385714Y-70726428D01*
X170623809Y-70726428D01*
X170719047Y-70678809D01*
X171623809Y-70440714D02*
X171623809Y-71107380D01*
X171195238Y-70440714D02*
X171195238Y-70964523D01*
X171242857Y-71059761D01*
X171338095Y-71107380D01*
X171480952Y-71107380D01*
X171576190Y-71059761D01*
X171623809Y-71012142D01*
X172242857Y-71107380D02*
X172147619Y-71059761D01*
X172100000Y-70964523D01*
X172100000Y-70107380D01*
X172766666Y-71107380D02*
X172671428Y-71059761D01*
X172623809Y-71012142D01*
X172576190Y-70916904D01*
X172576190Y-70631190D01*
X172623809Y-70535952D01*
X172671428Y-70488333D01*
X172766666Y-70440714D01*
X172909523Y-70440714D01*
X173004761Y-70488333D01*
X173052380Y-70535952D01*
X173100000Y-70631190D01*
X173100000Y-70916904D01*
X173052380Y-71012142D01*
X173004761Y-71059761D01*
X172909523Y-71107380D01*
X172766666Y-71107380D01*
X129166953Y-70729006D02*
X129643143Y-70729006D01*
X129071715Y-71014720D02*
X129405048Y-70014720D01*
X129738382Y-71014720D01*
X130214572Y-71014720D02*
X130119334Y-70967101D01*
X130071715Y-70871863D01*
X130071715Y-70014720D01*
X130595524Y-71014720D02*
X130595524Y-70348054D01*
X130595524Y-70014720D02*
X130547905Y-70062340D01*
X130595524Y-70109959D01*
X130643143Y-70062340D01*
X130595524Y-70014720D01*
X130595524Y-70109959D01*
X131071715Y-71014720D02*
X131071715Y-70348054D01*
X131071715Y-70443292D02*
X131119334Y-70395673D01*
X131214572Y-70348054D01*
X131357429Y-70348054D01*
X131452667Y-70395673D01*
X131500286Y-70490911D01*
X131500286Y-71014720D01*
X131500286Y-70490911D02*
X131547905Y-70395673D01*
X131643143Y-70348054D01*
X131786001Y-70348054D01*
X131881239Y-70395673D01*
X131928858Y-70490911D01*
X131928858Y-71014720D01*
X132786001Y-70967101D02*
X132690763Y-71014720D01*
X132500286Y-71014720D01*
X132405048Y-70967101D01*
X132357429Y-70871863D01*
X132357429Y-70490911D01*
X132405048Y-70395673D01*
X132500286Y-70348054D01*
X132690763Y-70348054D01*
X132786001Y-70395673D01*
X132833620Y-70490911D01*
X132833620Y-70586149D01*
X132357429Y-70681387D01*
X133262191Y-70348054D02*
X133262191Y-71014720D01*
X133262191Y-70443292D02*
X133309810Y-70395673D01*
X133405048Y-70348054D01*
X133547905Y-70348054D01*
X133643143Y-70395673D01*
X133690763Y-70490911D01*
X133690763Y-71014720D01*
X134024096Y-70348054D02*
X134405048Y-70348054D01*
X134166953Y-70014720D02*
X134166953Y-70871863D01*
X134214572Y-70967101D01*
X134309810Y-71014720D01*
X134405048Y-71014720D01*
X135166953Y-71014720D02*
X135166953Y-70490911D01*
X135119334Y-70395673D01*
X135024096Y-70348054D01*
X134833620Y-70348054D01*
X134738382Y-70395673D01*
X135166953Y-70967101D02*
X135071715Y-71014720D01*
X134833620Y-71014720D01*
X134738382Y-70967101D01*
X134690763Y-70871863D01*
X134690763Y-70776625D01*
X134738382Y-70681387D01*
X134833620Y-70633768D01*
X135071715Y-70633768D01*
X135166953Y-70586149D01*
X136071715Y-70967101D02*
X135976477Y-71014720D01*
X135786001Y-71014720D01*
X135690763Y-70967101D01*
X135643143Y-70919482D01*
X135595524Y-70824244D01*
X135595524Y-70538530D01*
X135643143Y-70443292D01*
X135690763Y-70395673D01*
X135786001Y-70348054D01*
X135976477Y-70348054D01*
X136071715Y-70395673D01*
X135881239Y-71062340D02*
X135976477Y-71109959D01*
X136024096Y-71205197D01*
X135976477Y-71300435D01*
X135881239Y-71348054D01*
X135738382Y-71348054D01*
X136928858Y-71014720D02*
X136928858Y-70490911D01*
X136881239Y-70395673D01*
X136786001Y-70348054D01*
X136595524Y-70348054D01*
X136500286Y-70395673D01*
X136928858Y-70967101D02*
X136833620Y-71014720D01*
X136595524Y-71014720D01*
X136500286Y-70967101D01*
X136452667Y-70871863D01*
X136452667Y-70776625D01*
X136500286Y-70681387D01*
X136595524Y-70633768D01*
X136833620Y-70633768D01*
X136928858Y-70586149D01*
X136452667Y-70109959D02*
X136500286Y-70062340D01*
X136595524Y-70014720D01*
X136786001Y-70109959D01*
X136881239Y-70062340D01*
X136928858Y-70014720D01*
X137547905Y-71014720D02*
X137452667Y-70967101D01*
X137405048Y-70919482D01*
X137357429Y-70824244D01*
X137357429Y-70538530D01*
X137405048Y-70443292D01*
X137452667Y-70395673D01*
X137547905Y-70348054D01*
X137690763Y-70348054D01*
X137786001Y-70395673D01*
X137833620Y-70443292D01*
X137881239Y-70538530D01*
X137881239Y-70824244D01*
X137833620Y-70919482D01*
X137786001Y-70967101D01*
X137690763Y-71014720D01*
X137547905Y-71014720D01*
X138976477Y-70348054D02*
X139214572Y-71014720D01*
X139452667Y-70348054D01*
X140357429Y-71014720D02*
X139786001Y-71014720D01*
X140071715Y-71014720D02*
X140071715Y-70014720D01*
X139976477Y-70157578D01*
X139881239Y-70252816D01*
X139786001Y-70300435D01*
X140786001Y-70919482D02*
X140833620Y-70967101D01*
X140786001Y-71014720D01*
X140738382Y-70967101D01*
X140786001Y-70919482D01*
X140786001Y-71014720D01*
X141786001Y-71014720D02*
X141214572Y-71014720D01*
X141500286Y-71014720D02*
X141500286Y-70014720D01*
X141405048Y-70157578D01*
X141309810Y-70252816D01*
X141214572Y-70300435D01*
X142214572Y-70919482D02*
X142262191Y-70967101D01*
X142214572Y-71014720D01*
X142166953Y-70967101D01*
X142214572Y-70919482D01*
X142214572Y-71014720D01*
X142881239Y-70014720D02*
X142976477Y-70014720D01*
X143071715Y-70062340D01*
X143119334Y-70109959D01*
X143166953Y-70205197D01*
X143214572Y-70395673D01*
X143214572Y-70633768D01*
X143166953Y-70824244D01*
X143119334Y-70919482D01*
X143071715Y-70967101D01*
X142976477Y-71014720D01*
X142881239Y-71014720D01*
X142786001Y-70967101D01*
X142738382Y-70919482D01*
X142690763Y-70824244D01*
X142643143Y-70633768D01*
X142643143Y-70395673D01*
X142690763Y-70205197D01*
X142738382Y-70109959D01*
X142786001Y-70062340D01*
X142881239Y-70014720D01*
X144405048Y-70633768D02*
X145166953Y-70633768D01*
X146405048Y-70490911D02*
X146738382Y-70490911D01*
X146881239Y-71014720D02*
X146405048Y-71014720D01*
X146405048Y-70014720D01*
X146881239Y-70014720D01*
X147738382Y-71014720D02*
X147738382Y-70014720D01*
X147738382Y-70967101D02*
X147643143Y-71014720D01*
X147452667Y-71014720D01*
X147357429Y-70967101D01*
X147309810Y-70919482D01*
X147262191Y-70824244D01*
X147262191Y-70538530D01*
X147309810Y-70443292D01*
X147357429Y-70395673D01*
X147452667Y-70348054D01*
X147643143Y-70348054D01*
X147738382Y-70395673D01*
X148214572Y-71014720D02*
X148214572Y-70348054D01*
X148214572Y-70538530D02*
X148262191Y-70443292D01*
X148309810Y-70395673D01*
X148405048Y-70348054D01*
X148500286Y-70348054D01*
X148976477Y-71014720D02*
X148881239Y-70967101D01*
X148833620Y-70919482D01*
X148786001Y-70824244D01*
X148786001Y-70538530D01*
X148833620Y-70443292D01*
X148881239Y-70395673D01*
X148976477Y-70348054D01*
X149119334Y-70348054D01*
X149214572Y-70395673D01*
X149262191Y-70443292D01*
X149309810Y-70538530D01*
X149309810Y-70824244D01*
X149262191Y-70919482D01*
X149214572Y-70967101D01*
X149119334Y-71014720D01*
X148976477Y-71014720D01*
X149738382Y-71014720D02*
X149738382Y-70348054D01*
X149738382Y-70443292D02*
X149786001Y-70395673D01*
X149881239Y-70348054D01*
X150024096Y-70348054D01*
X150119334Y-70395673D01*
X150166953Y-70490911D01*
X150166953Y-71014720D01*
X150166953Y-70490911D02*
X150214572Y-70395673D01*
X150309810Y-70348054D01*
X150452667Y-70348054D01*
X150547905Y-70395673D01*
X150595524Y-70490911D01*
X150595524Y-71014720D01*
X151786001Y-70109959D02*
X151833620Y-70062340D01*
X151928858Y-70014720D01*
X152166953Y-70014720D01*
X152262191Y-70062340D01*
X152309810Y-70109959D01*
X152357429Y-70205197D01*
X152357429Y-70300435D01*
X152309810Y-70443292D01*
X151738382Y-71014720D01*
X152357429Y-71014720D01*
X152976477Y-70014720D02*
X153071715Y-70014720D01*
X153166953Y-70062340D01*
X153214572Y-70109959D01*
X153262191Y-70205197D01*
X153309810Y-70395673D01*
X153309810Y-70633768D01*
X153262191Y-70824244D01*
X153214572Y-70919482D01*
X153166953Y-70967101D01*
X153071715Y-71014720D01*
X152976477Y-71014720D01*
X152881239Y-70967101D01*
X152833620Y-70919482D01*
X152786001Y-70824244D01*
X152738382Y-70633768D01*
X152738382Y-70395673D01*
X152786001Y-70205197D01*
X152833620Y-70109959D01*
X152881239Y-70062340D01*
X152976477Y-70014720D01*
X153690763Y-70109959D02*
X153738382Y-70062340D01*
X153833620Y-70014720D01*
X154071715Y-70014720D01*
X154166953Y-70062340D01*
X154214572Y-70109959D01*
X154262191Y-70205197D01*
X154262191Y-70300435D01*
X154214572Y-70443292D01*
X153643143Y-71014720D01*
X154262191Y-71014720D01*
X154595524Y-70014720D02*
X155214572Y-70014720D01*
X154881239Y-70395673D01*
X155024096Y-70395673D01*
X155119334Y-70443292D01*
X155166953Y-70490911D01*
X155214572Y-70586149D01*
X155214572Y-70824244D01*
X155166953Y-70919482D01*
X155119334Y-70967101D01*
X155024096Y-71014720D01*
X154738382Y-71014720D01*
X154643143Y-70967101D01*
X154595524Y-70919482D01*
X163161229Y-22608040D02*
X163161229Y-21608040D01*
X163399324Y-21608040D01*
X163542182Y-21655660D01*
X163637420Y-21750898D01*
X163685039Y-21846136D01*
X163732658Y-22036612D01*
X163732658Y-22179469D01*
X163685039Y-22369945D01*
X163637420Y-22465183D01*
X163542182Y-22560421D01*
X163399324Y-22608040D01*
X163161229Y-22608040D01*
X164589801Y-22608040D02*
X164589801Y-22084231D01*
X164542182Y-21988993D01*
X164446944Y-21941374D01*
X164256467Y-21941374D01*
X164161229Y-21988993D01*
X164589801Y-22560421D02*
X164494563Y-22608040D01*
X164256467Y-22608040D01*
X164161229Y-22560421D01*
X164113610Y-22465183D01*
X164113610Y-22369945D01*
X164161229Y-22274707D01*
X164256467Y-22227088D01*
X164494563Y-22227088D01*
X164589801Y-22179469D01*
X164923134Y-21941374D02*
X165304086Y-21941374D01*
X165065991Y-21608040D02*
X165065991Y-22465183D01*
X165113610Y-22560421D01*
X165208848Y-22608040D01*
X165304086Y-22608040D01*
X166065991Y-22608040D02*
X166065991Y-22084231D01*
X166018372Y-21988993D01*
X165923134Y-21941374D01*
X165732658Y-21941374D01*
X165637420Y-21988993D01*
X166065991Y-22560421D02*
X165970753Y-22608040D01*
X165732658Y-22608040D01*
X165637420Y-22560421D01*
X165589801Y-22465183D01*
X165589801Y-22369945D01*
X165637420Y-22274707D01*
X165732658Y-22227088D01*
X165970753Y-22227088D01*
X166065991Y-22179469D01*
X167161229Y-21608040D02*
X167494563Y-22608040D01*
X167827896Y-21608040D01*
X168161229Y-22227088D02*
X168923134Y-22227088D01*
X168542182Y-22608040D02*
X168542182Y-21846136D01*
X170685039Y-21655660D02*
X170589801Y-21608040D01*
X170446944Y-21608040D01*
X170304086Y-21655660D01*
X170208848Y-21750898D01*
X170161229Y-21846136D01*
X170113610Y-22036612D01*
X170113610Y-22179469D01*
X170161229Y-22369945D01*
X170208848Y-22465183D01*
X170304086Y-22560421D01*
X170446944Y-22608040D01*
X170542182Y-22608040D01*
X170685039Y-22560421D01*
X170732658Y-22512802D01*
X170732658Y-22179469D01*
X170542182Y-22179469D01*
X171161229Y-22608040D02*
X171161229Y-21608040D01*
X171732658Y-22608040D01*
X171732658Y-21608040D01*
X172208848Y-22608040D02*
X172208848Y-21608040D01*
X172446944Y-21608040D01*
X172589801Y-21655660D01*
X172685039Y-21750898D01*
X172732658Y-21846136D01*
X172780277Y-22036612D01*
X172780277Y-22179469D01*
X172732658Y-22369945D01*
X172685039Y-22465183D01*
X172589801Y-22560421D01*
X172446944Y-22608040D01*
X172208848Y-22608040D01*
%TO.C,F1*%
X103148571Y-46233333D02*
X103148571Y-46566666D01*
X103672380Y-46566666D02*
X102672380Y-46566666D01*
X102672380Y-46090476D01*
X103672380Y-45185714D02*
X103672380Y-45757142D01*
X103672380Y-45471428D02*
X102672380Y-45471428D01*
X102815238Y-45566666D01*
X102910476Y-45661904D01*
X102958095Y-45757142D01*
%TO.C,C3*%
X139503012Y-62424217D02*
X139455393Y-62471836D01*
X139312536Y-62519455D01*
X139217298Y-62519455D01*
X139074440Y-62471836D01*
X138979202Y-62376598D01*
X138931583Y-62281360D01*
X138883964Y-62090884D01*
X138883964Y-61948027D01*
X138931583Y-61757551D01*
X138979202Y-61662313D01*
X139074440Y-61567075D01*
X139217298Y-61519455D01*
X139312536Y-61519455D01*
X139455393Y-61567075D01*
X139503012Y-61614694D01*
X139836345Y-61519455D02*
X140455393Y-61519455D01*
X140122059Y-61900408D01*
X140264917Y-61900408D01*
X140360155Y-61948027D01*
X140407774Y-61995646D01*
X140455393Y-62090884D01*
X140455393Y-62328979D01*
X140407774Y-62424217D01*
X140360155Y-62471836D01*
X140264917Y-62519455D01*
X139979202Y-62519455D01*
X139883964Y-62471836D01*
X139836345Y-62424217D01*
%TO.C,R3*%
X161572380Y-47156666D02*
X161096190Y-47490000D01*
X161572380Y-47728095D02*
X160572380Y-47728095D01*
X160572380Y-47347142D01*
X160620000Y-47251904D01*
X160667619Y-47204285D01*
X160762857Y-47156666D01*
X160905714Y-47156666D01*
X161000952Y-47204285D01*
X161048571Y-47251904D01*
X161096190Y-47347142D01*
X161096190Y-47728095D01*
X160572380Y-46823333D02*
X160572380Y-46204285D01*
X160953333Y-46537619D01*
X160953333Y-46394761D01*
X161000952Y-46299523D01*
X161048571Y-46251904D01*
X161143809Y-46204285D01*
X161381904Y-46204285D01*
X161477142Y-46251904D01*
X161524761Y-46299523D01*
X161572380Y-46394761D01*
X161572380Y-46680476D01*
X161524761Y-46775714D01*
X161477142Y-46823333D01*
%TO.C,D5*%
X156805826Y-63694576D02*
X156805826Y-62694576D01*
X157043922Y-62694576D01*
X157186779Y-62742196D01*
X157282017Y-62837434D01*
X157329636Y-62932672D01*
X157377255Y-63123148D01*
X157377255Y-63266005D01*
X157329636Y-63456481D01*
X157282017Y-63551719D01*
X157186779Y-63646957D01*
X157043922Y-63694576D01*
X156805826Y-63694576D01*
X158282017Y-62694576D02*
X157805826Y-62694576D01*
X157758207Y-63170767D01*
X157805826Y-63123148D01*
X157901064Y-63075529D01*
X158139160Y-63075529D01*
X158234398Y-63123148D01*
X158282017Y-63170767D01*
X158329636Y-63266005D01*
X158329636Y-63504100D01*
X158282017Y-63599338D01*
X158234398Y-63646957D01*
X158139160Y-63694576D01*
X157901064Y-63694576D01*
X157805826Y-63646957D01*
X157758207Y-63599338D01*
%TO.C,C1*%
X129217142Y-47136666D02*
X129264761Y-47184285D01*
X129312380Y-47327142D01*
X129312380Y-47422380D01*
X129264761Y-47565238D01*
X129169523Y-47660476D01*
X129074285Y-47708095D01*
X128883809Y-47755714D01*
X128740952Y-47755714D01*
X128550476Y-47708095D01*
X128455238Y-47660476D01*
X128360000Y-47565238D01*
X128312380Y-47422380D01*
X128312380Y-47327142D01*
X128360000Y-47184285D01*
X128407619Y-47136666D01*
X129312380Y-46184285D02*
X129312380Y-46755714D01*
X129312380Y-46470000D02*
X128312380Y-46470000D01*
X128455238Y-46565238D01*
X128550476Y-46660476D01*
X128598095Y-46755714D01*
%TO.C,J3*%
X161388781Y-39047020D02*
X162104017Y-39047020D01*
X162247064Y-39094702D01*
X162342429Y-39190067D01*
X162390112Y-39333114D01*
X162390112Y-39428479D01*
X161388781Y-38665560D02*
X161388781Y-38045689D01*
X161770240Y-38379466D01*
X161770240Y-38236418D01*
X161817922Y-38141053D01*
X161865605Y-38093371D01*
X161960970Y-38045689D01*
X162199382Y-38045689D01*
X162294747Y-38093371D01*
X162342429Y-38141053D01*
X162390112Y-38236418D01*
X162390112Y-38522513D01*
X162342429Y-38617878D01*
X162294747Y-38665560D01*
%TO.C,Q1*%
X134536158Y-23407471D02*
X134440920Y-23359852D01*
X134345682Y-23264613D01*
X134202825Y-23121756D01*
X134107587Y-23074137D01*
X134012349Y-23074137D01*
X134059968Y-23312232D02*
X133964730Y-23264613D01*
X133869492Y-23169375D01*
X133821873Y-22978899D01*
X133821873Y-22645566D01*
X133869492Y-22455090D01*
X133964730Y-22359852D01*
X134059968Y-22312232D01*
X134250444Y-22312232D01*
X134345682Y-22359852D01*
X134440920Y-22455090D01*
X134488539Y-22645566D01*
X134488539Y-22978899D01*
X134440920Y-23169375D01*
X134345682Y-23264613D01*
X134250444Y-23312232D01*
X134059968Y-23312232D01*
X135440920Y-23312232D02*
X134869492Y-23312232D01*
X135155206Y-23312232D02*
X135155206Y-22312232D01*
X135059968Y-22455090D01*
X134964730Y-22550328D01*
X134869492Y-22597947D01*
%TO.C,D2*%
X155322380Y-55348095D02*
X154322380Y-55348095D01*
X154322380Y-55110000D01*
X154370000Y-54967142D01*
X154465238Y-54871904D01*
X154560476Y-54824285D01*
X154750952Y-54776666D01*
X154893809Y-54776666D01*
X155084285Y-54824285D01*
X155179523Y-54871904D01*
X155274761Y-54967142D01*
X155322380Y-55110000D01*
X155322380Y-55348095D01*
X154417619Y-54395714D02*
X154370000Y-54348095D01*
X154322380Y-54252857D01*
X154322380Y-54014761D01*
X154370000Y-53919523D01*
X154417619Y-53871904D01*
X154512857Y-53824285D01*
X154608095Y-53824285D01*
X154750952Y-53871904D01*
X155322380Y-54443333D01*
X155322380Y-53824285D01*
X154752380Y-52331904D02*
X153752380Y-52331904D01*
X154752380Y-51760476D02*
X154180952Y-52189047D01*
X153752380Y-51760476D02*
X154323809Y-52331904D01*
%TO.C,J6*%
X161138235Y-58499864D02*
X161853471Y-58499864D01*
X161996518Y-58547546D01*
X162091883Y-58642911D01*
X162139566Y-58785958D01*
X162139566Y-58881323D01*
X161138235Y-57593897D02*
X161138235Y-57784627D01*
X161185917Y-57879992D01*
X161233599Y-57927674D01*
X161376647Y-58023039D01*
X161567376Y-58070722D01*
X161948836Y-58070722D01*
X162044201Y-58023039D01*
X162091883Y-57975357D01*
X162139566Y-57879992D01*
X162139566Y-57689262D01*
X162091883Y-57593897D01*
X162044201Y-57546215D01*
X161948836Y-57498533D01*
X161710424Y-57498533D01*
X161615059Y-57546215D01*
X161567376Y-57593897D01*
X161519694Y-57689262D01*
X161519694Y-57879992D01*
X161567376Y-57975357D01*
X161615059Y-58023039D01*
X161710424Y-58070722D01*
%TO.C,J8*%
X161445965Y-27003777D02*
X162161201Y-27003777D01*
X162304248Y-27051459D01*
X162399613Y-27146824D01*
X162447296Y-27289871D01*
X162447296Y-27385236D01*
X161875106Y-26383905D02*
X161827424Y-26479270D01*
X161779742Y-26526952D01*
X161684377Y-26574635D01*
X161636694Y-26574635D01*
X161541329Y-26526952D01*
X161493647Y-26479270D01*
X161445965Y-26383905D01*
X161445965Y-26193175D01*
X161493647Y-26097810D01*
X161541329Y-26050128D01*
X161636694Y-26002446D01*
X161684377Y-26002446D01*
X161779742Y-26050128D01*
X161827424Y-26097810D01*
X161875106Y-26193175D01*
X161875106Y-26383905D01*
X161922789Y-26479270D01*
X161970471Y-26526952D01*
X162065836Y-26574635D01*
X162256566Y-26574635D01*
X162351931Y-26526952D01*
X162399613Y-26479270D01*
X162447296Y-26383905D01*
X162447296Y-26193175D01*
X162399613Y-26097810D01*
X162351931Y-26050128D01*
X162256566Y-26002446D01*
X162065836Y-26002446D01*
X161970471Y-26050128D01*
X161922789Y-26097810D01*
X161875106Y-26193175D01*
%TO.C,C2*%
X156624108Y-45640425D02*
X156671727Y-45688044D01*
X156719346Y-45830901D01*
X156719346Y-45926139D01*
X156671727Y-46068997D01*
X156576489Y-46164235D01*
X156481251Y-46211854D01*
X156290775Y-46259473D01*
X156147918Y-46259473D01*
X155957442Y-46211854D01*
X155862204Y-46164235D01*
X155766966Y-46068997D01*
X155719346Y-45926139D01*
X155719346Y-45830901D01*
X155766966Y-45688044D01*
X155814585Y-45640425D01*
X155814585Y-45259473D02*
X155766966Y-45211854D01*
X155719346Y-45116616D01*
X155719346Y-44878520D01*
X155766966Y-44783282D01*
X155814585Y-44735663D01*
X155909823Y-44688044D01*
X156005061Y-44688044D01*
X156147918Y-44735663D01*
X156719346Y-45307092D01*
X156719346Y-44688044D01*
%TO.C,VR1*%
X127560615Y-57902292D02*
X128564898Y-57567531D01*
X127560615Y-57232770D01*
X128564898Y-56324133D02*
X128086668Y-56658894D01*
X128564898Y-56898009D02*
X127560615Y-56898009D01*
X127560615Y-56515425D01*
X127608438Y-56419779D01*
X127656261Y-56371956D01*
X127751907Y-56324133D01*
X127895376Y-56324133D01*
X127991022Y-56371956D01*
X128038845Y-56419779D01*
X128086668Y-56515425D01*
X128086668Y-56898009D01*
X128564898Y-55367673D02*
X128564898Y-55941549D01*
X128564898Y-55654611D02*
X127560615Y-55654611D01*
X127704084Y-55750257D01*
X127799730Y-55845903D01*
X127847553Y-55941549D01*
%TO.C,R1*%
X145402380Y-57316666D02*
X144926190Y-57650000D01*
X145402380Y-57888095D02*
X144402380Y-57888095D01*
X144402380Y-57507142D01*
X144450000Y-57411904D01*
X144497619Y-57364285D01*
X144592857Y-57316666D01*
X144735714Y-57316666D01*
X144830952Y-57364285D01*
X144878571Y-57411904D01*
X144926190Y-57507142D01*
X144926190Y-57888095D01*
X145402380Y-56364285D02*
X145402380Y-56935714D01*
X145402380Y-56650000D02*
X144402380Y-56650000D01*
X144545238Y-56745238D01*
X144640476Y-56840476D01*
X144688095Y-56935714D01*
%TO.C,J10*%
X160894262Y-65813129D02*
X161609498Y-65813129D01*
X161752545Y-65860811D01*
X161847910Y-65956176D01*
X161895593Y-66099223D01*
X161895593Y-66194588D01*
X161895593Y-64811798D02*
X161895593Y-65383987D01*
X161895593Y-65097892D02*
X160894262Y-65097892D01*
X161037309Y-65193257D01*
X161132674Y-65288622D01*
X161180356Y-65383987D01*
X160894262Y-64191926D02*
X160894262Y-64096561D01*
X160941944Y-64001197D01*
X160989626Y-63953514D01*
X161084991Y-63905832D01*
X161275721Y-63858149D01*
X161514133Y-63858149D01*
X161704863Y-63905832D01*
X161800228Y-63953514D01*
X161847910Y-64001197D01*
X161895593Y-64096561D01*
X161895593Y-64191926D01*
X161847910Y-64287291D01*
X161800228Y-64334974D01*
X161704863Y-64382656D01*
X161514133Y-64430338D01*
X161275721Y-64430338D01*
X161084991Y-64382656D01*
X160989626Y-64334974D01*
X160941944Y-64287291D01*
X160894262Y-64191926D01*
%TO.C,Q2*%
X116713805Y-23142252D02*
X116618567Y-23094633D01*
X116523329Y-22999394D01*
X116380472Y-22856537D01*
X116285234Y-22808918D01*
X116189996Y-22808918D01*
X116237615Y-23047013D02*
X116142377Y-22999394D01*
X116047139Y-22904156D01*
X115999520Y-22713680D01*
X115999520Y-22380347D01*
X116047139Y-22189871D01*
X116142377Y-22094633D01*
X116237615Y-22047013D01*
X116428091Y-22047013D01*
X116523329Y-22094633D01*
X116618567Y-22189871D01*
X116666186Y-22380347D01*
X116666186Y-22713680D01*
X116618567Y-22904156D01*
X116523329Y-22999394D01*
X116428091Y-23047013D01*
X116237615Y-23047013D01*
X117047139Y-22142252D02*
X117094758Y-22094633D01*
X117189996Y-22047013D01*
X117428091Y-22047013D01*
X117523329Y-22094633D01*
X117570948Y-22142252D01*
X117618567Y-22237490D01*
X117618567Y-22332728D01*
X117570948Y-22475585D01*
X116999520Y-23047013D01*
X117618567Y-23047013D01*
%TO.C,J1*%
X116251666Y-70157380D02*
X116251666Y-70871666D01*
X116204047Y-71014523D01*
X116108809Y-71109761D01*
X115965952Y-71157380D01*
X115870714Y-71157380D01*
X117251666Y-71157380D02*
X116680238Y-71157380D01*
X116965952Y-71157380D02*
X116965952Y-70157380D01*
X116870714Y-70300238D01*
X116775476Y-70395476D01*
X116680238Y-70443095D01*
%TO.C,J7*%
X161359521Y-50178113D02*
X162074757Y-50178113D01*
X162217804Y-50225795D01*
X162313169Y-50321160D01*
X162360852Y-50464207D01*
X162360852Y-50559572D01*
X161359521Y-49796653D02*
X161359521Y-49129099D01*
X162360852Y-49558241D01*
%TO.C,D1*%
X140222380Y-54078095D02*
X139222380Y-54078095D01*
X139222380Y-53840000D01*
X139270000Y-53697142D01*
X139365238Y-53601904D01*
X139460476Y-53554285D01*
X139650952Y-53506666D01*
X139793809Y-53506666D01*
X139984285Y-53554285D01*
X140079523Y-53601904D01*
X140174761Y-53697142D01*
X140222380Y-53840000D01*
X140222380Y-54078095D01*
X140222380Y-52554285D02*
X140222380Y-53125714D01*
X140222380Y-52840000D02*
X139222380Y-52840000D01*
X139365238Y-52935238D01*
X139460476Y-53030476D01*
X139508095Y-53125714D01*
X140792380Y-59951904D02*
X139792380Y-59951904D01*
X140792380Y-59380476D02*
X140220952Y-59809047D01*
X139792380Y-59380476D02*
X140363809Y-59951904D01*
%TO.C,U1*%
X129802380Y-49021904D02*
X130611904Y-49021904D01*
X130707142Y-48974285D01*
X130754761Y-48926666D01*
X130802380Y-48831428D01*
X130802380Y-48640952D01*
X130754761Y-48545714D01*
X130707142Y-48498095D01*
X130611904Y-48450476D01*
X129802380Y-48450476D01*
X130802380Y-47450476D02*
X130802380Y-48021904D01*
X130802380Y-47736190D02*
X129802380Y-47736190D01*
X129945238Y-47831428D01*
X130040476Y-47926666D01*
X130088095Y-48021904D01*
%TO.C,D3*%
X128801904Y-68962380D02*
X128801904Y-67962380D01*
X129040000Y-67962380D01*
X129182857Y-68010000D01*
X129278095Y-68105238D01*
X129325714Y-68200476D01*
X129373333Y-68390952D01*
X129373333Y-68533809D01*
X129325714Y-68724285D01*
X129278095Y-68819523D01*
X129182857Y-68914761D01*
X129040000Y-68962380D01*
X128801904Y-68962380D01*
X129706666Y-67962380D02*
X130325714Y-67962380D01*
X129992380Y-68343333D01*
X130135238Y-68343333D01*
X130230476Y-68390952D01*
X130278095Y-68438571D01*
X130325714Y-68533809D01*
X130325714Y-68771904D01*
X130278095Y-68867142D01*
X130230476Y-68914761D01*
X130135238Y-68962380D01*
X129849523Y-68962380D01*
X129754285Y-68914761D01*
X129706666Y-68867142D01*
X135628095Y-68392380D02*
X135628095Y-67392380D01*
X136199523Y-68392380D02*
X135770952Y-67820952D01*
X136199523Y-67392380D02*
X135628095Y-67963809D01*
%TO.C,J5*%
X161417373Y-33397800D02*
X162132609Y-33397800D01*
X162275656Y-33445482D01*
X162371021Y-33540847D01*
X162418704Y-33683894D01*
X162418704Y-33779259D01*
X161417373Y-32444151D02*
X161417373Y-32920975D01*
X161894197Y-32968658D01*
X161846514Y-32920975D01*
X161798832Y-32825610D01*
X161798832Y-32587198D01*
X161846514Y-32491833D01*
X161894197Y-32444151D01*
X161989562Y-32396469D01*
X162227974Y-32396469D01*
X162323339Y-32444151D01*
X162371021Y-32491833D01*
X162418704Y-32587198D01*
X162418704Y-32825610D01*
X162371021Y-32920975D01*
X162323339Y-32968658D01*
%TO.C,J4*%
X161466426Y-54369129D02*
X162181662Y-54369129D01*
X162324709Y-54416811D01*
X162420074Y-54512176D01*
X162467757Y-54655223D01*
X162467757Y-54750588D01*
X161800203Y-53463162D02*
X162467757Y-53463162D01*
X161418743Y-53701575D02*
X162133980Y-53939987D01*
X162133980Y-53320115D01*
%TO.C,R2*%
X128103333Y-37452380D02*
X127770000Y-36976190D01*
X127531904Y-37452380D02*
X127531904Y-36452380D01*
X127912857Y-36452380D01*
X128008095Y-36500000D01*
X128055714Y-36547619D01*
X128103333Y-36642857D01*
X128103333Y-36785714D01*
X128055714Y-36880952D01*
X128008095Y-36928571D01*
X127912857Y-36976190D01*
X127531904Y-36976190D01*
X128484285Y-36547619D02*
X128531904Y-36500000D01*
X128627142Y-36452380D01*
X128865238Y-36452380D01*
X128960476Y-36500000D01*
X129008095Y-36547619D01*
X129055714Y-36642857D01*
X129055714Y-36738095D01*
X129008095Y-36880952D01*
X128436666Y-37452380D01*
X129055714Y-37452380D01*
%TO.C,D4*%
X148992011Y-34611653D02*
X147992011Y-34611653D01*
X147992011Y-34373558D01*
X148039631Y-34230700D01*
X148134869Y-34135462D01*
X148230107Y-34087843D01*
X148420583Y-34040224D01*
X148563440Y-34040224D01*
X148753916Y-34087843D01*
X148849154Y-34135462D01*
X148944392Y-34230700D01*
X148992011Y-34373558D01*
X148992011Y-34611653D01*
X148325345Y-33183081D02*
X148992011Y-33183081D01*
X147944392Y-33421177D02*
X148658678Y-33659272D01*
X148658678Y-33040224D01*
X148422011Y-27785462D02*
X147422011Y-27785462D01*
X148422011Y-27214034D02*
X147850583Y-27642605D01*
X147422011Y-27214034D02*
X147993440Y-27785462D01*
%TO.C,J2*%
X149312380Y-39703333D02*
X150026666Y-39703333D01*
X150169523Y-39750952D01*
X150264761Y-39846190D01*
X150312380Y-39989047D01*
X150312380Y-40084285D01*
X149407619Y-39274761D02*
X149360000Y-39227142D01*
X149312380Y-39131904D01*
X149312380Y-38893809D01*
X149360000Y-38798571D01*
X149407619Y-38750952D01*
X149502857Y-38703333D01*
X149598095Y-38703333D01*
X149740952Y-38750952D01*
X150312380Y-39322380D01*
X150312380Y-38703333D01*
%TO.C,J9*%
X161124402Y-43857440D02*
X161839638Y-43857440D01*
X161982685Y-43905122D01*
X162078050Y-44000487D01*
X162125733Y-44143534D01*
X162125733Y-44238899D01*
X162125733Y-43332933D02*
X162125733Y-43142203D01*
X162078050Y-43046838D01*
X162030368Y-42999156D01*
X161887320Y-42903791D01*
X161696591Y-42856109D01*
X161315131Y-42856109D01*
X161219766Y-42903791D01*
X161172084Y-42951473D01*
X161124402Y-43046838D01*
X161124402Y-43237568D01*
X161172084Y-43332933D01*
X161219766Y-43380615D01*
X161315131Y-43428298D01*
X161553543Y-43428298D01*
X161648908Y-43380615D01*
X161696591Y-43332933D01*
X161744273Y-43237568D01*
X161744273Y-43046838D01*
X161696591Y-42951473D01*
X161648908Y-42903791D01*
X161553543Y-42856109D01*
D11*
%TO.C,F1*%
X107470000Y-57260000D02*
X104310000Y-57260000D01*
X114130000Y-34540000D02*
X110970000Y-34540000D01*
X107470000Y-34540000D02*
X104310000Y-34540000D01*
X114130000Y-57260000D02*
X110970000Y-57260000D01*
X114130000Y-57260000D02*
X114130000Y-34540000D01*
X104310000Y-57260000D02*
X104310000Y-34540000D01*
%TO.C,C3*%
X133646361Y-62646027D02*
X133646361Y-60576027D01*
X131366361Y-60338027D02*
X131366361Y-58734027D01*
X134367361Y-62763027D02*
X134367361Y-56309027D01*
X131966361Y-61531027D02*
X131966361Y-57541027D01*
X132806361Y-62278027D02*
X132806361Y-60576027D01*
X133806361Y-58496027D02*
X133806361Y-56386027D01*
X132686361Y-58496027D02*
X132686361Y-56872027D01*
X133726361Y-62667027D02*
X133726361Y-60576027D01*
X132086361Y-61673027D02*
X132086361Y-57399027D01*
X134167361Y-62747027D02*
X134167361Y-60576027D01*
X133326361Y-58496027D02*
X133326361Y-56534027D01*
X132406361Y-58496027D02*
X132406361Y-57086027D01*
X133446361Y-62583027D02*
X133446361Y-60576027D01*
X133406361Y-58496027D02*
X133406361Y-56503027D01*
X134007361Y-62725027D02*
X134007361Y-60576027D01*
X134207361Y-58496027D02*
X134207361Y-56321027D01*
X133086361Y-62432027D02*
X133086361Y-60576027D01*
X133766361Y-58496027D02*
X133766361Y-56395027D01*
X134167361Y-58496027D02*
X134167361Y-56325027D01*
X134247361Y-58496027D02*
X134247361Y-56318027D01*
X134127361Y-62742027D02*
X134127361Y-60576027D01*
X132446361Y-62020027D02*
X132446361Y-60576027D01*
X134047361Y-58496027D02*
X134047361Y-56341027D01*
X133686361Y-58496027D02*
X133686361Y-56415027D01*
X131286361Y-59938027D02*
X131286361Y-59134027D01*
X133806361Y-62686027D02*
X133806361Y-60576027D01*
X132326361Y-58496027D02*
X132326361Y-57156027D01*
X133526361Y-58496027D02*
X133526361Y-56462027D01*
X134087361Y-62737027D02*
X134087361Y-60576027D01*
X137712602Y-61690027D02*
X137712602Y-61060027D01*
X132326361Y-61916027D02*
X132326361Y-60576027D01*
X131646361Y-61045027D02*
X131646361Y-58027027D01*
X134087361Y-58496027D02*
X134087361Y-56335027D01*
X132486361Y-62052027D02*
X132486361Y-60576027D01*
X133246361Y-58496027D02*
X133246361Y-56566027D01*
X133686361Y-62657027D02*
X133686361Y-60576027D01*
X132606361Y-58496027D02*
X132606361Y-56929027D01*
X131726361Y-61186027D02*
X131726361Y-57886027D01*
X131686361Y-61117027D02*
X131686361Y-57955027D01*
X133526361Y-62610027D02*
X133526361Y-60576027D01*
X133606361Y-62634027D02*
X133606361Y-60576027D01*
X132966361Y-58496027D02*
X132966361Y-56702027D01*
X132166361Y-61760027D02*
X132166361Y-57312027D01*
X133887361Y-58496027D02*
X133887361Y-56369027D01*
X133566361Y-62622027D02*
X133566361Y-60576027D01*
X133006361Y-58496027D02*
X133006361Y-56680027D01*
X134527361Y-62766027D02*
X134527361Y-56306027D01*
X132726361Y-62226027D02*
X132726361Y-60576027D01*
X133486361Y-58496027D02*
X133486361Y-56475027D01*
X133766361Y-62677027D02*
X133766361Y-60576027D01*
X133286361Y-62522027D02*
X133286361Y-60576027D01*
X133646361Y-58496027D02*
X133646361Y-56426027D01*
X132606361Y-62143027D02*
X132606361Y-60576027D01*
X132526361Y-58496027D02*
X132526361Y-56988027D01*
X133206361Y-58496027D02*
X133206361Y-56584027D01*
X133006361Y-62392027D02*
X133006361Y-60576027D01*
X134487361Y-62766027D02*
X134487361Y-56306027D01*
X132206361Y-61801027D02*
X132206361Y-57271027D01*
X133166361Y-58496027D02*
X133166361Y-56602027D01*
X134287361Y-62758027D02*
X134287361Y-60576027D01*
X133126361Y-62452027D02*
X133126361Y-60576027D01*
X131406361Y-60476027D02*
X131406361Y-58596027D01*
X131566361Y-60886027D02*
X131566361Y-58186027D01*
X133046361Y-58496027D02*
X133046361Y-56660027D01*
X131766361Y-61250027D02*
X131766361Y-57822027D01*
X132726361Y-58496027D02*
X132726361Y-56846027D01*
X132646361Y-62172027D02*
X132646361Y-60576027D01*
X132926361Y-62348027D02*
X132926361Y-60576027D01*
X133927361Y-62711027D02*
X133927361Y-60576027D01*
X138027602Y-61375027D02*
X137397602Y-61375027D01*
X133366361Y-62554027D02*
X133366361Y-60576027D01*
X132526361Y-62084027D02*
X132526361Y-60576027D01*
X132566361Y-58496027D02*
X132566361Y-56958027D01*
X133606361Y-58496027D02*
X133606361Y-56438027D01*
X132926361Y-58496027D02*
X132926361Y-56724027D01*
X134287361Y-58496027D02*
X134287361Y-56314027D01*
X134047361Y-62731027D02*
X134047361Y-60576027D01*
X132846361Y-58496027D02*
X132846361Y-56770027D01*
X133166361Y-62470027D02*
X133166361Y-60576027D01*
X132126361Y-61718027D02*
X132126361Y-57354027D01*
X134247361Y-62754027D02*
X134247361Y-60576027D01*
X133967361Y-62718027D02*
X133967361Y-60576027D01*
X133726361Y-58496027D02*
X133726361Y-56405027D01*
X132686361Y-62200027D02*
X132686361Y-60576027D01*
X132366361Y-61952027D02*
X132366361Y-60576027D01*
X133126361Y-58496027D02*
X133126361Y-56620027D01*
X133286361Y-58496027D02*
X133286361Y-56550027D01*
X132246361Y-61841027D02*
X132246361Y-60576027D01*
X132886361Y-58496027D02*
X132886361Y-56746027D01*
X133927361Y-58496027D02*
X133927361Y-56361027D01*
X133847361Y-58496027D02*
X133847361Y-56377027D01*
X132966361Y-62370027D02*
X132966361Y-60576027D01*
X132886361Y-62326027D02*
X132886361Y-60576027D01*
X133246361Y-62506027D02*
X133246361Y-60576027D01*
X132446361Y-58496027D02*
X132446361Y-57052027D01*
X132366361Y-58496027D02*
X132366361Y-57120027D01*
X134207361Y-62751027D02*
X134207361Y-60576027D01*
X132286361Y-61879027D02*
X132286361Y-60576027D01*
X133887361Y-62703027D02*
X133887361Y-60576027D01*
X133366361Y-58496027D02*
X133366361Y-56518027D01*
X132566361Y-62114027D02*
X132566361Y-60576027D01*
X132286361Y-58496027D02*
X132286361Y-57193027D01*
X132486361Y-58496027D02*
X132486361Y-57020027D01*
X133046361Y-62412027D02*
X133046361Y-60576027D01*
X133967361Y-58496027D02*
X133967361Y-56354027D01*
X131446361Y-60595027D02*
X131446361Y-58477027D01*
X132046361Y-61628027D02*
X132046361Y-57444027D01*
X131806361Y-61312027D02*
X131806361Y-57760027D01*
X131606361Y-60968027D02*
X131606361Y-58104027D01*
X132806361Y-58496027D02*
X132806361Y-56794027D01*
X134407361Y-62764027D02*
X134407361Y-56308027D01*
X132766361Y-58496027D02*
X132766361Y-56820027D01*
X134327361Y-62760027D02*
X134327361Y-56312027D01*
X133406361Y-62569027D02*
X133406361Y-60576027D01*
X133446361Y-58496027D02*
X133446361Y-56489027D01*
X131326361Y-60169027D02*
X131326361Y-58903027D01*
X131926361Y-61480027D02*
X131926361Y-57592027D01*
X131486361Y-60701027D02*
X131486361Y-58371027D01*
X132646361Y-58496027D02*
X132646361Y-56900027D01*
X133326361Y-62538027D02*
X133326361Y-60576027D01*
X133206361Y-62488027D02*
X133206361Y-60576027D01*
X132846361Y-62302027D02*
X132846361Y-60576027D01*
X134447361Y-62766027D02*
X134447361Y-56306027D01*
X133566361Y-58496027D02*
X133566361Y-56450027D01*
X132406361Y-61986027D02*
X132406361Y-60576027D01*
X133486361Y-62597027D02*
X133486361Y-60576027D01*
X131526361Y-60798027D02*
X131526361Y-58274027D01*
X134007361Y-58496027D02*
X134007361Y-56347027D01*
X132246361Y-58496027D02*
X132246361Y-57231027D01*
X133847361Y-62695027D02*
X133847361Y-60576027D01*
X134127361Y-58496027D02*
X134127361Y-56330027D01*
X132006361Y-61580027D02*
X132006361Y-57492027D01*
X132766361Y-62252027D02*
X132766361Y-60576027D01*
X133086361Y-58496027D02*
X133086361Y-56640027D01*
X131886361Y-61426027D02*
X131886361Y-57646027D01*
X131846361Y-61370027D02*
X131846361Y-57702027D01*
X137797361Y-59536027D02*
G75*
G03*
X137797361Y-59536027I-3270000J0D01*
G01*
%TO.C,R3*%
X157710000Y-46260000D02*
X157380000Y-46260000D01*
X157380000Y-46260000D02*
X157380000Y-52800000D01*
X160120000Y-52800000D02*
X159790000Y-52800000D01*
X157380000Y-52800000D02*
X157710000Y-52800000D01*
X160120000Y-46260000D02*
X160120000Y-52800000D01*
X159790000Y-46260000D02*
X160120000Y-46260000D01*
%TO.C,D5*%
X158560000Y-61250000D02*
X158716000Y-61250000D01*
X156244000Y-61250000D02*
X156400000Y-61250000D01*
X156400163Y-58648870D02*
G75*
G03*
X156400000Y-60730961I1079837J-1041130D01*
G01*
X158560000Y-60730961D02*
G75*
G03*
X158559837Y-58648870I-1080000J1040961D01*
G01*
X156401392Y-58017665D02*
G75*
G03*
X156244484Y-61250000I1078609J-1672335D01*
G01*
X158715516Y-61250000D02*
G75*
G03*
X158558608Y-58017665I-1235517J1560000D01*
G01*
%TO.C,C1*%
X123420000Y-47570000D02*
X121285000Y-47570000D01*
X127627000Y-47610000D02*
X125500000Y-47610000D01*
X123420000Y-47210000D02*
X121238000Y-47210000D01*
X127558000Y-47891000D02*
X125500000Y-47891000D01*
X126504000Y-49491000D02*
X122416000Y-49491000D01*
X126455000Y-49531000D02*
X122465000Y-49531000D01*
X126840000Y-49171000D02*
X125500000Y-49171000D01*
X123420000Y-47610000D02*
X121293000Y-47610000D01*
X123420000Y-49251000D02*
X122155000Y-49251000D01*
X127150000Y-48771000D02*
X125500000Y-48771000D01*
X127690000Y-47050000D02*
X121230000Y-47050000D01*
X126910000Y-49091000D02*
X125500000Y-49091000D01*
X127675000Y-47290000D02*
X125500000Y-47290000D01*
X127661000Y-47410000D02*
X125500000Y-47410000D01*
X125625000Y-50011000D02*
X123295000Y-50011000D01*
X127666000Y-47370000D02*
X125500000Y-47370000D01*
X127534000Y-47971000D02*
X125500000Y-47971000D01*
X126684000Y-49331000D02*
X122236000Y-49331000D01*
X123420000Y-47490000D02*
X121271000Y-47490000D01*
X127521000Y-48011000D02*
X125500000Y-48011000D01*
X126876000Y-49131000D02*
X125500000Y-49131000D01*
X126294000Y-49651000D02*
X122626000Y-49651000D01*
X127176000Y-48731000D02*
X125500000Y-48731000D01*
X123420000Y-48611000D02*
X121670000Y-48611000D01*
X127250000Y-48611000D02*
X125500000Y-48611000D01*
X125093000Y-50171000D02*
X123827000Y-50171000D01*
X123420000Y-48091000D02*
X121427000Y-48091000D01*
X123420000Y-48811000D02*
X121796000Y-48811000D01*
X127649000Y-47490000D02*
X125500000Y-47490000D01*
X123420000Y-48211000D02*
X121474000Y-48211000D01*
X123420000Y-47851000D02*
X121350000Y-47851000D01*
X127202000Y-48691000D02*
X125500000Y-48691000D01*
X123420000Y-49011000D02*
X121944000Y-49011000D01*
X127376000Y-48371000D02*
X125500000Y-48371000D01*
X123420000Y-48131000D02*
X121442000Y-48131000D01*
X127570000Y-47851000D02*
X125500000Y-47851000D01*
X127096000Y-48851000D02*
X125500000Y-48851000D01*
X126174000Y-49731000D02*
X122746000Y-49731000D01*
X127581000Y-47811000D02*
X125500000Y-47811000D01*
X123420000Y-48371000D02*
X121544000Y-48371000D01*
X126944000Y-49051000D02*
X125500000Y-49051000D01*
X127678000Y-47250000D02*
X125500000Y-47250000D01*
X123420000Y-47891000D02*
X121362000Y-47891000D01*
X127008000Y-48971000D02*
X125500000Y-48971000D01*
X127546000Y-47931000D02*
X125500000Y-47931000D01*
X127446000Y-48211000D02*
X125500000Y-48211000D01*
X123420000Y-48571000D02*
X121648000Y-48571000D01*
X123420000Y-49171000D02*
X122080000Y-49171000D01*
X127655000Y-47450000D02*
X125500000Y-47450000D01*
X123420000Y-47410000D02*
X121259000Y-47410000D01*
X127038000Y-48931000D02*
X125500000Y-48931000D01*
X126299000Y-43469759D02*
X126299000Y-44099759D01*
X123420000Y-48891000D02*
X121853000Y-48891000D01*
X123420000Y-47931000D02*
X121374000Y-47931000D01*
X123420000Y-47971000D02*
X121386000Y-47971000D01*
X123420000Y-49051000D02*
X121976000Y-49051000D01*
X127067000Y-48891000D02*
X125500000Y-48891000D01*
X125892000Y-49891000D02*
X123028000Y-49891000D01*
X126350000Y-49611000D02*
X122570000Y-49611000D01*
X126765000Y-49251000D02*
X125500000Y-49251000D01*
X127336000Y-48451000D02*
X125500000Y-48451000D01*
X123420000Y-48731000D02*
X121744000Y-48731000D01*
X123420000Y-47811000D02*
X121339000Y-47811000D01*
X123420000Y-48971000D02*
X121912000Y-48971000D01*
X123420000Y-48411000D02*
X121564000Y-48411000D01*
X127619000Y-47650000D02*
X125500000Y-47650000D01*
X127226000Y-48651000D02*
X125500000Y-48651000D01*
X127294000Y-48531000D02*
X125500000Y-48531000D01*
X127684000Y-47170000D02*
X121236000Y-47170000D01*
X127610000Y-47691000D02*
X125500000Y-47691000D01*
X123420000Y-48451000D02*
X121584000Y-48451000D01*
X126041000Y-49811000D02*
X122879000Y-49811000D01*
X127478000Y-48131000D02*
X125500000Y-48131000D01*
X126552000Y-49451000D02*
X122368000Y-49451000D01*
X127591000Y-47771000D02*
X125500000Y-47771000D01*
X123420000Y-49131000D02*
X122044000Y-49131000D01*
X127493000Y-48091000D02*
X125500000Y-48091000D01*
X127124000Y-48811000D02*
X125500000Y-48811000D01*
X126110000Y-49771000D02*
X122810000Y-49771000D01*
X124862000Y-50211000D02*
X124058000Y-50211000D01*
X123420000Y-49211000D02*
X122117000Y-49211000D01*
X123420000Y-47330000D02*
X121249000Y-47330000D01*
X127601000Y-47731000D02*
X125500000Y-47731000D01*
X127316000Y-48491000D02*
X125500000Y-48491000D01*
X123420000Y-47250000D02*
X121242000Y-47250000D01*
X125969000Y-49851000D02*
X122951000Y-49851000D01*
X126236000Y-49691000D02*
X122684000Y-49691000D01*
X127687000Y-47130000D02*
X121233000Y-47130000D01*
X123420000Y-48491000D02*
X121604000Y-48491000D01*
X123420000Y-48771000D02*
X121770000Y-48771000D01*
X123420000Y-47771000D02*
X121329000Y-47771000D01*
X123420000Y-47370000D02*
X121254000Y-47370000D01*
X127430000Y-48251000D02*
X125500000Y-48251000D01*
X126976000Y-49011000D02*
X125500000Y-49011000D01*
X125400000Y-50091000D02*
X123520000Y-50091000D01*
X125262000Y-50131000D02*
X123658000Y-50131000D01*
X123420000Y-48251000D02*
X121490000Y-48251000D01*
X123420000Y-48011000D02*
X121399000Y-48011000D01*
X123420000Y-48851000D02*
X121824000Y-48851000D01*
X125810000Y-49931000D02*
X123110000Y-49931000D01*
X123420000Y-49091000D02*
X122010000Y-49091000D01*
X123420000Y-48691000D02*
X121718000Y-48691000D01*
X127462000Y-48171000D02*
X125500000Y-48171000D01*
X126803000Y-49211000D02*
X125500000Y-49211000D01*
X123420000Y-47530000D02*
X121278000Y-47530000D01*
X125519000Y-50051000D02*
X123401000Y-50051000D01*
X126642000Y-49371000D02*
X122278000Y-49371000D01*
X126725000Y-49291000D02*
X122195000Y-49291000D01*
X127412000Y-48291000D02*
X125500000Y-48291000D01*
X123420000Y-48651000D02*
X121694000Y-48651000D01*
X125722000Y-49971000D02*
X123198000Y-49971000D01*
X127394000Y-48331000D02*
X125500000Y-48331000D01*
X123420000Y-47290000D02*
X121245000Y-47290000D01*
X123420000Y-48291000D02*
X121508000Y-48291000D01*
X127690000Y-46970000D02*
X121230000Y-46970000D01*
X123420000Y-48171000D02*
X121458000Y-48171000D01*
X127682000Y-47210000D02*
X125500000Y-47210000D01*
X126614000Y-43784759D02*
X125984000Y-43784759D01*
X127690000Y-47010000D02*
X121230000Y-47010000D01*
X123420000Y-48931000D02*
X121882000Y-48931000D01*
X123420000Y-48331000D02*
X121526000Y-48331000D01*
X127688000Y-47090000D02*
X121232000Y-47090000D01*
X123420000Y-48051000D02*
X121413000Y-48051000D01*
X127507000Y-48051000D02*
X125500000Y-48051000D01*
X127642000Y-47530000D02*
X125500000Y-47530000D01*
X126597000Y-49411000D02*
X122323000Y-49411000D01*
X127671000Y-47330000D02*
X125500000Y-47330000D01*
X123420000Y-48531000D02*
X121626000Y-48531000D01*
X127272000Y-48571000D02*
X125500000Y-48571000D01*
X123420000Y-47650000D02*
X121301000Y-47650000D01*
X123420000Y-47691000D02*
X121310000Y-47691000D01*
X123420000Y-47731000D02*
X121319000Y-47731000D01*
X126404000Y-49571000D02*
X122516000Y-49571000D01*
X127635000Y-47570000D02*
X125500000Y-47570000D01*
X123420000Y-47450000D02*
X121265000Y-47450000D01*
X127356000Y-48411000D02*
X125500000Y-48411000D01*
X127730000Y-46970000D02*
G75*
G03*
X127730000Y-46970000I-3270000J0D01*
G01*
D12*
%TO.C,J3*%
X162730000Y-35030000D02*
X172630000Y-35030000D01*
X162730000Y-39930000D02*
X162730000Y-35030000D01*
X172630000Y-35030000D02*
X172630000Y-39930000D01*
X172630000Y-39930000D02*
X162730000Y-39930000D01*
D13*
X173180000Y-36830000D02*
G75*
G03*
X173180000Y-36830000I-100000J0D01*
G01*
D11*
%TO.C,Q1*%
X130565000Y-24425000D02*
X133216000Y-24425000D01*
X136015000Y-26666000D02*
X138665000Y-26666000D01*
X142535000Y-24425000D02*
X142535000Y-29465000D01*
X126695000Y-26666000D02*
X127765000Y-26666000D01*
X126695000Y-24425000D02*
X126695000Y-29465000D01*
X133015000Y-24425000D02*
X133015000Y-26666000D01*
X136015000Y-24425000D02*
X138665000Y-24425000D01*
X126695000Y-29465000D02*
X142535000Y-29465000D01*
X130565000Y-26666000D02*
X133216000Y-26666000D01*
X141465000Y-26666000D02*
X142535000Y-26666000D01*
X126695000Y-24425000D02*
X127765000Y-24425000D01*
X136216000Y-24425000D02*
X136216000Y-26666000D01*
X141465000Y-24425000D02*
X142535000Y-24425000D01*
%TO.C,D2*%
X153870000Y-56720000D02*
X150930000Y-56720000D01*
X153870000Y-55700000D02*
X150930000Y-55700000D01*
X153870000Y-61140000D02*
X153870000Y-55700000D01*
X152400000Y-63630000D02*
X152400000Y-61140000D01*
X153870000Y-56480000D02*
X150930000Y-56480000D01*
X152400000Y-53210000D02*
X152400000Y-55700000D01*
X150930000Y-55700000D02*
X150930000Y-61140000D01*
X153870000Y-56600000D02*
X150930000Y-56600000D01*
X150930000Y-61140000D02*
X153870000Y-61140000D01*
D12*
%TO.C,J6*%
X172605962Y-57251842D02*
X172605962Y-62151842D01*
X162705962Y-57251842D02*
X172605962Y-57251842D01*
X162705962Y-62151842D02*
X162705962Y-57251842D01*
X172605962Y-62151842D02*
X162705962Y-62151842D01*
D13*
X173155962Y-59051842D02*
G75*
G03*
X173155962Y-59051842I-100000J0D01*
G01*
D12*
%TO.C,J8*%
X162787184Y-23774833D02*
X172687184Y-23774833D01*
X172687184Y-28674833D02*
X162787184Y-28674833D01*
X172687184Y-23774833D02*
X172687184Y-28674833D01*
X162787184Y-28674833D02*
X162787184Y-23774833D01*
D13*
X173237184Y-25574833D02*
G75*
G03*
X173237184Y-25574833I-100000J0D01*
G01*
D11*
%TO.C,C2*%
X154916000Y-49051000D02*
X153440000Y-49051000D01*
X155595000Y-47490000D02*
X153440000Y-47490000D01*
X154444000Y-49531000D02*
X150356000Y-49531000D01*
X155589000Y-47530000D02*
X153440000Y-47530000D01*
X151360000Y-47570000D02*
X149218000Y-47570000D01*
X151360000Y-47650000D02*
X149233000Y-47650000D01*
X155296000Y-48451000D02*
X153440000Y-48451000D01*
X151360000Y-49131000D02*
X149950000Y-49131000D01*
X151360000Y-47811000D02*
X149269000Y-47811000D01*
X155352000Y-48331000D02*
X153440000Y-48331000D01*
X154816000Y-49171000D02*
X153440000Y-49171000D01*
X155212000Y-48611000D02*
X153440000Y-48611000D01*
X155627000Y-47170000D02*
X149173000Y-47170000D01*
X153981000Y-49851000D02*
X150819000Y-49851000D01*
X153340000Y-50131000D02*
X151460000Y-50131000D01*
X151360000Y-47731000D02*
X149250000Y-47731000D01*
X151360000Y-48891000D02*
X149764000Y-48891000D01*
X155064000Y-48851000D02*
X153440000Y-48851000D01*
X155386000Y-48251000D02*
X153440000Y-48251000D01*
X151360000Y-49091000D02*
X149916000Y-49091000D01*
X151360000Y-49291000D02*
X150095000Y-49291000D01*
X155498000Y-47931000D02*
X153440000Y-47931000D01*
X155190000Y-48651000D02*
X153440000Y-48651000D01*
X151360000Y-47370000D02*
X149189000Y-47370000D01*
X151360000Y-48051000D02*
X149339000Y-48051000D01*
X151360000Y-47690000D02*
X149241000Y-47690000D01*
X155486000Y-47971000D02*
X153440000Y-47971000D01*
X155447000Y-48091000D02*
X153440000Y-48091000D01*
X155630000Y-47090000D02*
X149170000Y-47090000D01*
X154344000Y-49611000D02*
X150456000Y-49611000D01*
X151360000Y-48251000D02*
X149414000Y-48251000D01*
X155521000Y-47851000D02*
X153440000Y-47851000D01*
X151360000Y-49211000D02*
X150020000Y-49211000D01*
X155007000Y-48931000D02*
X153440000Y-48931000D01*
X155474000Y-48011000D02*
X153440000Y-48011000D01*
X151360000Y-48371000D02*
X149466000Y-48371000D01*
X154234000Y-49691000D02*
X150566000Y-49691000D01*
X153832000Y-49931000D02*
X150968000Y-49931000D01*
X155090000Y-48811000D02*
X153440000Y-48811000D01*
X155575000Y-47610000D02*
X153440000Y-47610000D01*
X155256000Y-48531000D02*
X153440000Y-48531000D01*
X151360000Y-48491000D02*
X149524000Y-48491000D01*
X155541000Y-47771000D02*
X153440000Y-47771000D01*
X154948000Y-49011000D02*
X153440000Y-49011000D01*
X151360000Y-48131000D02*
X149367000Y-48131000D01*
X151360000Y-49051000D02*
X149884000Y-49051000D01*
X151360000Y-48731000D02*
X149658000Y-48731000D01*
X154624000Y-49371000D02*
X150176000Y-49371000D01*
X153459000Y-50091000D02*
X151341000Y-50091000D01*
X154884000Y-49091000D02*
X153440000Y-49091000D01*
X155531000Y-47811000D02*
X153440000Y-47811000D01*
X155550000Y-47731000D02*
X153440000Y-47731000D01*
X155611000Y-47370000D02*
X153440000Y-47370000D01*
X155166000Y-48691000D02*
X153440000Y-48691000D01*
X155234000Y-48571000D02*
X153440000Y-48571000D01*
X154850000Y-49131000D02*
X153440000Y-49131000D01*
X154537000Y-49451000D02*
X150263000Y-49451000D01*
X155582000Y-47570000D02*
X153440000Y-47570000D01*
X151360000Y-47931000D02*
X149302000Y-47931000D01*
X153565000Y-50051000D02*
X151235000Y-50051000D01*
X155510000Y-47891000D02*
X153440000Y-47891000D01*
X154780000Y-49211000D02*
X153440000Y-49211000D01*
X155630000Y-47050000D02*
X149170000Y-47050000D01*
X151360000Y-47250000D02*
X149178000Y-47250000D01*
X151360000Y-47851000D02*
X149279000Y-47851000D01*
X151360000Y-47410000D02*
X149194000Y-47410000D01*
X155334000Y-48371000D02*
X153440000Y-48371000D01*
X154176000Y-49731000D02*
X150624000Y-49731000D01*
X151360000Y-47891000D02*
X149290000Y-47891000D01*
X151360000Y-48771000D02*
X149684000Y-48771000D01*
X151360000Y-47971000D02*
X149314000Y-47971000D01*
X151360000Y-48211000D02*
X149398000Y-48211000D01*
X155615000Y-47330000D02*
X153440000Y-47330000D01*
X155116000Y-48771000D02*
X153440000Y-48771000D01*
X155461000Y-48051000D02*
X153440000Y-48051000D01*
X151360000Y-47330000D02*
X149185000Y-47330000D01*
X154492000Y-49491000D02*
X150308000Y-49491000D01*
X151360000Y-48091000D02*
X149353000Y-48091000D01*
X155567000Y-47650000D02*
X153440000Y-47650000D01*
X151360000Y-47530000D02*
X149211000Y-47530000D01*
X153202000Y-50171000D02*
X151598000Y-50171000D01*
X151360000Y-47610000D02*
X149225000Y-47610000D01*
X151360000Y-47771000D02*
X149259000Y-47771000D01*
X155628000Y-47130000D02*
X149172000Y-47130000D01*
X155624000Y-47210000D02*
X149176000Y-47210000D01*
X153909000Y-49891000D02*
X150891000Y-49891000D01*
X155276000Y-48491000D02*
X153440000Y-48491000D01*
X155559000Y-47690000D02*
X153440000Y-47690000D01*
X151360000Y-48811000D02*
X149710000Y-48811000D01*
X151360000Y-48411000D02*
X149484000Y-48411000D01*
X151360000Y-48611000D02*
X149588000Y-48611000D01*
X154554000Y-43824759D02*
X153924000Y-43824759D01*
X154290000Y-49651000D02*
X150510000Y-49651000D01*
X151360000Y-48331000D02*
X149448000Y-48331000D01*
X155433000Y-48131000D02*
X153440000Y-48131000D01*
X153750000Y-49971000D02*
X151050000Y-49971000D01*
X151360000Y-48971000D02*
X149822000Y-48971000D01*
X155606000Y-47410000D02*
X153440000Y-47410000D01*
X151360000Y-48651000D02*
X149610000Y-48651000D01*
X155630000Y-47010000D02*
X149170000Y-47010000D01*
X151360000Y-47290000D02*
X149182000Y-47290000D01*
X151360000Y-48451000D02*
X149504000Y-48451000D01*
X151360000Y-48531000D02*
X149544000Y-48531000D01*
X151360000Y-49251000D02*
X150057000Y-49251000D01*
X155618000Y-47290000D02*
X153440000Y-47290000D01*
X154582000Y-49411000D02*
X150218000Y-49411000D01*
X154239000Y-43509759D02*
X154239000Y-44139759D01*
X151360000Y-48011000D02*
X149326000Y-48011000D01*
X154050000Y-49811000D02*
X150750000Y-49811000D01*
X151360000Y-48291000D02*
X149430000Y-48291000D01*
X151360000Y-48571000D02*
X149566000Y-48571000D01*
X154114000Y-49771000D02*
X150686000Y-49771000D01*
X155316000Y-48411000D02*
X153440000Y-48411000D01*
X153662000Y-50011000D02*
X151138000Y-50011000D01*
X154705000Y-49291000D02*
X153440000Y-49291000D01*
X155402000Y-48211000D02*
X153440000Y-48211000D01*
X153033000Y-50211000D02*
X151767000Y-50211000D01*
X151360000Y-49171000D02*
X149984000Y-49171000D01*
X154395000Y-49571000D02*
X150405000Y-49571000D01*
X151360000Y-47490000D02*
X149205000Y-47490000D01*
X155418000Y-48171000D02*
X153440000Y-48171000D01*
X155622000Y-47250000D02*
X153440000Y-47250000D01*
X151360000Y-48931000D02*
X149793000Y-48931000D01*
X155601000Y-47450000D02*
X153440000Y-47450000D01*
X151360000Y-47450000D02*
X149199000Y-47450000D01*
X151360000Y-49011000D02*
X149852000Y-49011000D01*
X154743000Y-49251000D02*
X153440000Y-49251000D01*
X154978000Y-48971000D02*
X153440000Y-48971000D01*
X155036000Y-48891000D02*
X153440000Y-48891000D01*
X152802000Y-50251000D02*
X151998000Y-50251000D01*
X151360000Y-48851000D02*
X149736000Y-48851000D01*
X155142000Y-48731000D02*
X153440000Y-48731000D01*
X155370000Y-48291000D02*
X153440000Y-48291000D01*
X154665000Y-49331000D02*
X150135000Y-49331000D01*
X151360000Y-48691000D02*
X149634000Y-48691000D01*
X151360000Y-48171000D02*
X149382000Y-48171000D01*
X155670000Y-47010000D02*
G75*
G03*
X155670000Y-47010000I-3270000J0D01*
G01*
%TO.C,G\u002A\u002A\u002A*%
G36*
X141821563Y-65600940D02*
G01*
X141823736Y-65612487D01*
X141826628Y-65629553D01*
X141829994Y-65650712D01*
X141832539Y-65667452D01*
X141860181Y-65825287D01*
X141895531Y-65979827D01*
X141938711Y-66131532D01*
X141989844Y-66280861D01*
X142009622Y-66332597D01*
X142070279Y-66475874D01*
X142138408Y-66616031D01*
X142213662Y-66752527D01*
X142295693Y-66884820D01*
X142384153Y-67012367D01*
X142478696Y-67134628D01*
X142578974Y-67251062D01*
X142641646Y-67317793D01*
X142657709Y-67334504D01*
X142671462Y-67349117D01*
X142681917Y-67360556D01*
X142688082Y-67367744D01*
X142689319Y-67369634D01*
X142685236Y-67370223D01*
X142673579Y-67370769D01*
X142655240Y-67371256D01*
X142631108Y-67371671D01*
X142602075Y-67372000D01*
X142569031Y-67372228D01*
X142532866Y-67372341D01*
X142518029Y-67372351D01*
X142346739Y-67372351D01*
X142334254Y-67358598D01*
X142309273Y-67329993D01*
X142280789Y-67295502D01*
X142249785Y-67256419D01*
X142217243Y-67214035D01*
X142184143Y-67169645D01*
X142151467Y-67124540D01*
X142120198Y-67080013D01*
X142098261Y-67047778D01*
X142021832Y-66928649D01*
X141952103Y-66809079D01*
X141888042Y-66687118D01*
X141828617Y-66560814D01*
X141779002Y-66443686D01*
X141766369Y-66413275D01*
X141755579Y-66389836D01*
X141745834Y-66372301D01*
X141736337Y-66359600D01*
X141726290Y-66350664D01*
X141714894Y-66344425D01*
X141701492Y-66339854D01*
X141677132Y-66337098D01*
X141653674Y-66341773D01*
X141632588Y-66352864D01*
X141615342Y-66369357D01*
X141603408Y-66390239D01*
X141598518Y-66410888D01*
X141598240Y-66422100D01*
X141599930Y-66434210D01*
X141604071Y-66449314D01*
X141611144Y-66469512D01*
X141613320Y-66475321D01*
X141632823Y-66524602D01*
X141656039Y-66579329D01*
X141682153Y-66637797D01*
X141710350Y-66698299D01*
X141739817Y-66759131D01*
X141769739Y-66818586D01*
X141799301Y-66874959D01*
X141827690Y-66926545D01*
X141834442Y-66938379D01*
X141890980Y-67032928D01*
X141951777Y-67127670D01*
X142014981Y-67219823D01*
X142078744Y-67306607D01*
X142083121Y-67312330D01*
X142096710Y-67330297D01*
X142108092Y-67345811D01*
X142116429Y-67357692D01*
X142120882Y-67364758D01*
X142121357Y-67366183D01*
X142116256Y-67366585D01*
X142104534Y-67365500D01*
X142087848Y-67363206D01*
X142067855Y-67359982D01*
X142046212Y-67356106D01*
X142024575Y-67351856D01*
X142004602Y-67347512D01*
X141992145Y-67344472D01*
X141938577Y-67328213D01*
X141884197Y-67307358D01*
X141830863Y-67282834D01*
X141780433Y-67255567D01*
X141734764Y-67226483D01*
X141695930Y-67196697D01*
X141685110Y-67185112D01*
X141671238Y-67166529D01*
X141654710Y-67141682D01*
X141635923Y-67111302D01*
X141615272Y-67076123D01*
X141593153Y-67036877D01*
X141569963Y-66994296D01*
X141546098Y-66949113D01*
X141521953Y-66902060D01*
X141497926Y-66853871D01*
X141474411Y-66805277D01*
X141451805Y-66757011D01*
X141430505Y-66709805D01*
X141421361Y-66688896D01*
X141410000Y-66662501D01*
X141401572Y-66642290D01*
X141395607Y-66626698D01*
X141391636Y-66614158D01*
X141389189Y-66603106D01*
X141387797Y-66591975D01*
X141386991Y-66579200D01*
X141386730Y-66573347D01*
X141387351Y-66515034D01*
X141393670Y-66452923D01*
X141405254Y-66389054D01*
X141421671Y-66325466D01*
X141442489Y-66264196D01*
X141462022Y-66218218D01*
X141470157Y-66201334D01*
X141475994Y-66190904D01*
X141480574Y-66185607D01*
X141484940Y-66184121D01*
X141488472Y-66184651D01*
X141514850Y-66191189D01*
X141535115Y-66195402D01*
X141551217Y-66197529D01*
X141565109Y-66197807D01*
X141578743Y-66196474D01*
X141581771Y-66196009D01*
X141618239Y-66186004D01*
X141651022Y-66168639D01*
X141679330Y-66144507D01*
X141702371Y-66114203D01*
X141710496Y-66099356D01*
X141715942Y-66087441D01*
X141719413Y-66076811D01*
X141721343Y-66064945D01*
X141722168Y-66049323D01*
X141722325Y-66030832D01*
X141722140Y-66010238D01*
X141721251Y-65995479D01*
X141719161Y-65983928D01*
X141715371Y-65972959D01*
X141709382Y-65959944D01*
X141708547Y-65958234D01*
X141688808Y-65927218D01*
X141671807Y-65909084D01*
X141648844Y-65888097D01*
X141733674Y-65741296D01*
X141752197Y-65709361D01*
X141769416Y-65679911D01*
X141784872Y-65653708D01*
X141798110Y-65631517D01*
X141808671Y-65614102D01*
X141816100Y-65602227D01*
X141819938Y-65596658D01*
X141820352Y-65596342D01*
X141821563Y-65600940D01*
G37*
G36*
X142248085Y-64860520D02*
G01*
X142247155Y-64871229D01*
X142245353Y-64884501D01*
X142240420Y-64918258D01*
X142236350Y-64950816D01*
X142233071Y-64983445D01*
X142230512Y-65017417D01*
X142228599Y-65054004D01*
X142227262Y-65094476D01*
X142226427Y-65140106D01*
X142226023Y-65192165D01*
X142225957Y-65226767D01*
X142226039Y-65278123D01*
X142226359Y-65322426D01*
X142227002Y-65361083D01*
X142228051Y-65395503D01*
X142229589Y-65427093D01*
X142231699Y-65457263D01*
X142234465Y-65487421D01*
X142237970Y-65518975D01*
X142242297Y-65553333D01*
X142247530Y-65591904D01*
X142247572Y-65592205D01*
X142270859Y-65730306D01*
X142302234Y-65868443D01*
X142341379Y-66005685D01*
X142387975Y-66141103D01*
X142441700Y-66273769D01*
X142502236Y-66402751D01*
X142568599Y-66525967D01*
X142642466Y-66646031D01*
X142723799Y-66762742D01*
X142812060Y-66875499D01*
X142906712Y-66983703D01*
X143007217Y-67086754D01*
X143113038Y-67184050D01*
X143223636Y-67274993D01*
X143273325Y-67312583D01*
X143292738Y-67326943D01*
X143310718Y-67340337D01*
X143325702Y-67351594D01*
X143336127Y-67359544D01*
X143338920Y-67361735D01*
X143351615Y-67371898D01*
X143145336Y-67372125D01*
X142939057Y-67372351D01*
X142904116Y-67341767D01*
X142883635Y-67323209D01*
X142858792Y-67299689D01*
X142830898Y-67272530D01*
X142801262Y-67243054D01*
X142771195Y-67212584D01*
X142742006Y-67182442D01*
X142715004Y-67153950D01*
X142691499Y-67128430D01*
X142679805Y-67115306D01*
X142579712Y-66994787D01*
X142486583Y-66869637D01*
X142400574Y-66740118D01*
X142321841Y-66606493D01*
X142250540Y-66469024D01*
X142186826Y-66327975D01*
X142136906Y-66200406D01*
X142095272Y-66076285D01*
X142058947Y-65947917D01*
X142028273Y-65816980D01*
X142003593Y-65685149D01*
X141985248Y-65554101D01*
X141973582Y-65425513D01*
X141971627Y-65391544D01*
X141968744Y-65334146D01*
X142107389Y-65094080D01*
X142131207Y-65052911D01*
X142153784Y-65014024D01*
X142174765Y-64978021D01*
X142193797Y-64945504D01*
X142210525Y-64917072D01*
X142224595Y-64893329D01*
X142235653Y-64874875D01*
X142243345Y-64862311D01*
X142247315Y-64856239D01*
X142247785Y-64855764D01*
X142248085Y-64860520D01*
G37*
G36*
X145494496Y-61526531D02*
G01*
X145500886Y-61534834D01*
X145510370Y-61549060D01*
X145523149Y-61569526D01*
X145539422Y-61596550D01*
X145559387Y-61630450D01*
X145577212Y-61661109D01*
X145630424Y-61753027D01*
X145585316Y-61806650D01*
X145569663Y-61825213D01*
X145555459Y-61841974D01*
X145543797Y-61855650D01*
X145535771Y-61864957D01*
X145533027Y-61868049D01*
X145529750Y-61871140D01*
X145525795Y-61872915D01*
X145519661Y-61873299D01*
X145509847Y-61872218D01*
X145494850Y-61869597D01*
X145473170Y-61865362D01*
X145471320Y-61864995D01*
X145310544Y-61837273D01*
X145147354Y-61817402D01*
X144982484Y-61805375D01*
X144816672Y-61801188D01*
X144650653Y-61804836D01*
X144485166Y-61816315D01*
X144320945Y-61835618D01*
X144158727Y-61862741D01*
X144101171Y-61874374D01*
X144043415Y-61886591D01*
X144018502Y-61857213D01*
X143993588Y-61827834D01*
X144046540Y-61736139D01*
X144062106Y-61709181D01*
X144077174Y-61683079D01*
X144090935Y-61659233D01*
X144102581Y-61639045D01*
X144111304Y-61623915D01*
X144114891Y-61617686D01*
X144123033Y-61603943D01*
X144128744Y-61596225D01*
X144133678Y-61593146D01*
X144139489Y-61593317D01*
X144142985Y-61594124D01*
X144152321Y-61595997D01*
X144162833Y-61596962D01*
X144175679Y-61596935D01*
X144192020Y-61595833D01*
X144213016Y-61593572D01*
X144239827Y-61590070D01*
X144273612Y-61585242D01*
X144280522Y-61584226D01*
X144348838Y-61574630D01*
X144412891Y-61566720D01*
X144474493Y-61560370D01*
X144535455Y-61555455D01*
X144597588Y-61551849D01*
X144662703Y-61549428D01*
X144732613Y-61548065D01*
X144809128Y-61547636D01*
X144809513Y-61547636D01*
X144885974Y-61548066D01*
X144955906Y-61549438D01*
X145021203Y-61551877D01*
X145083760Y-61555508D01*
X145145470Y-61560455D01*
X145208230Y-61566843D01*
X145273932Y-61574795D01*
X145322691Y-61581360D01*
X145356072Y-61585703D01*
X145382514Y-61588108D01*
X145403385Y-61588248D01*
X145420058Y-61585794D01*
X145433900Y-61580416D01*
X145446283Y-61571786D01*
X145458576Y-61559574D01*
X145470106Y-61545976D01*
X145479585Y-61534810D01*
X145487095Y-61526854D01*
X145491001Y-61523834D01*
X145494496Y-61526531D01*
G37*
G36*
X145264319Y-64213186D02*
G01*
X145274350Y-64217637D01*
X145288991Y-64224577D01*
X145306779Y-64233329D01*
X145308974Y-64234428D01*
X145392348Y-64280889D01*
X145471047Y-64334109D01*
X145544705Y-64393621D01*
X145612958Y-64458956D01*
X145675438Y-64529643D01*
X145731779Y-64605216D01*
X145781616Y-64685205D01*
X145824581Y-64769140D01*
X145860310Y-64856554D01*
X145888436Y-64946977D01*
X145898792Y-64989779D01*
X145909332Y-65042890D01*
X145916770Y-65093544D01*
X145921428Y-65144803D01*
X145923627Y-65199730D01*
X145923905Y-65228883D01*
X145920926Y-65319174D01*
X145911598Y-65405087D01*
X145895650Y-65488135D01*
X145872808Y-65569831D01*
X145852002Y-65628505D01*
X145816117Y-65712238D01*
X145774879Y-65790480D01*
X145727559Y-65864343D01*
X145673431Y-65934940D01*
X145611765Y-66003383D01*
X145596946Y-66018432D01*
X145524890Y-66085085D01*
X145449742Y-66143922D01*
X145371161Y-66195131D01*
X145288802Y-66238903D01*
X145202326Y-66275425D01*
X145111388Y-66304885D01*
X145049529Y-66320382D01*
X144987380Y-66331975D01*
X144920653Y-66340317D01*
X144852429Y-66345179D01*
X144785787Y-66346332D01*
X144730677Y-66344081D01*
X144642273Y-66333968D01*
X144554017Y-66316767D01*
X144543632Y-66314260D01*
X144518850Y-66307749D01*
X144492434Y-66300120D01*
X144465576Y-66291793D01*
X144439471Y-66283189D01*
X144415311Y-66274727D01*
X144394288Y-66266830D01*
X144377597Y-66259915D01*
X144366430Y-66254405D01*
X144361980Y-66250720D01*
X144361993Y-66250258D01*
X144363561Y-66248460D01*
X144368128Y-66243562D01*
X144375825Y-66235429D01*
X144386781Y-66223924D01*
X144401126Y-66208913D01*
X144418992Y-66190261D01*
X144440508Y-66167832D01*
X144465805Y-66141490D01*
X144495013Y-66111101D01*
X144528263Y-66076529D01*
X144565684Y-66037638D01*
X144607407Y-65994294D01*
X144653562Y-65946360D01*
X144704280Y-65893702D01*
X144759691Y-65836184D01*
X144819925Y-65773671D01*
X144885112Y-65706027D01*
X144955383Y-65633117D01*
X145030869Y-65554806D01*
X145111698Y-65470959D01*
X145198003Y-65381439D01*
X145289912Y-65286112D01*
X145387556Y-65184842D01*
X145396692Y-65175367D01*
X145413483Y-65157711D01*
X145428006Y-65141978D01*
X145439312Y-65129234D01*
X145446451Y-65120546D01*
X145448533Y-65117135D01*
X145444949Y-65112890D01*
X145439011Y-65110651D01*
X145433230Y-65110007D01*
X145419740Y-65108822D01*
X145399272Y-65107152D01*
X145372559Y-65105053D01*
X145340335Y-65102583D01*
X145303332Y-65099795D01*
X145262284Y-65096747D01*
X145217922Y-65093495D01*
X145170979Y-65090094D01*
X145154414Y-65088903D01*
X145107029Y-65085486D01*
X145062181Y-65082217D01*
X145020578Y-65079150D01*
X144982923Y-65076338D01*
X144949921Y-65073835D01*
X144922279Y-65071696D01*
X144900701Y-65069972D01*
X144885892Y-65068719D01*
X144878557Y-65067990D01*
X144877877Y-65067863D01*
X144879427Y-65063978D01*
X144884175Y-65052972D01*
X144891851Y-65035444D01*
X144902190Y-65011994D01*
X144914921Y-64983221D01*
X144929777Y-64949727D01*
X144946491Y-64912111D01*
X144964793Y-64870972D01*
X144984417Y-64826911D01*
X145005093Y-64780528D01*
X145026554Y-64732422D01*
X145048531Y-64683194D01*
X145070757Y-64633443D01*
X145092963Y-64583770D01*
X145114882Y-64534774D01*
X145136245Y-64487056D01*
X145156784Y-64441215D01*
X145176231Y-64397851D01*
X145194319Y-64357564D01*
X145210778Y-64320955D01*
X145225341Y-64288622D01*
X145237740Y-64261167D01*
X145247706Y-64239189D01*
X145254972Y-64223287D01*
X145259269Y-64214062D01*
X145260364Y-64211904D01*
X145264319Y-64213186D01*
G37*
G36*
X146171541Y-62691324D02*
G01*
X146178314Y-62702424D01*
X146187877Y-62718559D01*
X146199602Y-62738629D01*
X146212864Y-62761539D01*
X146227034Y-62786189D01*
X146241487Y-62811482D01*
X146255595Y-62836319D01*
X146268731Y-62859604D01*
X146280268Y-62880238D01*
X146289581Y-62897124D01*
X146296041Y-62909163D01*
X146299021Y-62915257D01*
X146299150Y-62915720D01*
X146296367Y-62921147D01*
X146288687Y-62931511D01*
X146277110Y-62945680D01*
X146262638Y-62962520D01*
X146246272Y-62980900D01*
X146229013Y-62999687D01*
X146211862Y-63017748D01*
X146195821Y-63033951D01*
X146187731Y-63041757D01*
X146136297Y-63084905D01*
X146078685Y-63123395D01*
X146016177Y-63156571D01*
X145950056Y-63183776D01*
X145881603Y-63204351D01*
X145861771Y-63208925D01*
X145844134Y-63212395D01*
X145827077Y-63214919D01*
X145808690Y-63216642D01*
X145787063Y-63217707D01*
X145760286Y-63218261D01*
X145736304Y-63218425D01*
X145703960Y-63218306D01*
X145676266Y-63217526D01*
X145651544Y-63215791D01*
X145628117Y-63212808D01*
X145604306Y-63208282D01*
X145578434Y-63201920D01*
X145548824Y-63193428D01*
X145513797Y-63182512D01*
X145492984Y-63175813D01*
X145360682Y-63137021D01*
X145228944Y-63106614D01*
X145097463Y-63084556D01*
X144965936Y-63070813D01*
X144834055Y-63065351D01*
X144701516Y-63068134D01*
X144606544Y-63075125D01*
X144496978Y-63088164D01*
X144390543Y-63106295D01*
X144285019Y-63129995D01*
X144178181Y-63159743D01*
X144106689Y-63182647D01*
X144077835Y-63192084D01*
X144048668Y-63201172D01*
X144021197Y-63209316D01*
X143997434Y-63215921D01*
X143979392Y-63220394D01*
X143977615Y-63220779D01*
X143946778Y-63225818D01*
X143910292Y-63229415D01*
X143870864Y-63231486D01*
X143831199Y-63231948D01*
X143794002Y-63230718D01*
X143761980Y-63227715D01*
X143759996Y-63227435D01*
X143687799Y-63213245D01*
X143617728Y-63192086D01*
X143551244Y-63164481D01*
X143489805Y-63130952D01*
X143489213Y-63130584D01*
X143462621Y-63113038D01*
X143435018Y-63093111D01*
X143407810Y-63071967D01*
X143382402Y-63050772D01*
X143360198Y-63030692D01*
X143342603Y-63012891D01*
X143332320Y-63000421D01*
X143323569Y-62988132D01*
X143390491Y-62871669D01*
X143457413Y-62755207D01*
X143478504Y-62779599D01*
X143502438Y-62806468D01*
X143526825Y-62832384D01*
X143550227Y-62855899D01*
X143571209Y-62875569D01*
X143587574Y-62889363D01*
X143624245Y-62914042D01*
X143666362Y-62936186D01*
X143711216Y-62954653D01*
X143756095Y-62968300D01*
X143790984Y-62975090D01*
X143818982Y-62978268D01*
X143844940Y-62979595D01*
X143870279Y-62978852D01*
X143896419Y-62975821D01*
X143924782Y-62970284D01*
X143956787Y-62962023D01*
X143993855Y-62950820D01*
X144032955Y-62937962D01*
X144140174Y-62904442D01*
X144247866Y-62876212D01*
X144357741Y-62852918D01*
X144471508Y-62834202D01*
X144590877Y-62819708D01*
X144608496Y-62817960D01*
X144635247Y-62815992D01*
X144668929Y-62814482D01*
X144708023Y-62813421D01*
X144751011Y-62812802D01*
X144796372Y-62812615D01*
X144842587Y-62812855D01*
X144888138Y-62813511D01*
X144931504Y-62814577D01*
X144971167Y-62816045D01*
X145005606Y-62817905D01*
X145033303Y-62820151D01*
X145033805Y-62820203D01*
X145141044Y-62833090D01*
X145242559Y-62849152D01*
X145340646Y-62868867D01*
X145437604Y-62892713D01*
X145535731Y-62921168D01*
X145567823Y-62931347D01*
X145605786Y-62943314D01*
X145637381Y-62952456D01*
X145664113Y-62959049D01*
X145687490Y-62963371D01*
X145709018Y-62965697D01*
X145730202Y-62966306D01*
X145752551Y-62965474D01*
X145753232Y-62965431D01*
X145797506Y-62960575D01*
X145838606Y-62951417D01*
X145879495Y-62937138D01*
X145916161Y-62920431D01*
X145940529Y-62907683D01*
X145962422Y-62894610D01*
X145982935Y-62880257D01*
X146003162Y-62863672D01*
X146024196Y-62843903D01*
X146047133Y-62819996D01*
X146073065Y-62790999D01*
X146097588Y-62762455D01*
X146116265Y-62740719D01*
X146133211Y-62721521D01*
X146147654Y-62705694D01*
X146158823Y-62694068D01*
X146165944Y-62687477D01*
X146168184Y-62686356D01*
X146171541Y-62691324D01*
G37*
G36*
X145137487Y-67746877D02*
G01*
X145162878Y-67759325D01*
X145191960Y-67777811D01*
X145218145Y-67802590D01*
X145239352Y-67831532D01*
X145246634Y-67845168D01*
X145260213Y-67873834D01*
X145260213Y-68305490D01*
X145248642Y-68330187D01*
X145240077Y-68346579D01*
X145230289Y-68362601D01*
X145224143Y-68371210D01*
X145208236Y-68387355D01*
X145187372Y-68403144D01*
X145164672Y-68416535D01*
X145143255Y-68425483D01*
X145139763Y-68426468D01*
X145118428Y-68431936D01*
X145141039Y-68438932D01*
X145170999Y-68452198D01*
X145199422Y-68472256D01*
X145224442Y-68497437D01*
X145244194Y-68526075D01*
X145248954Y-68535389D01*
X145260213Y-68559406D01*
X145262553Y-69293644D01*
X145089046Y-69293644D01*
X145086704Y-68563638D01*
X145073632Y-68536055D01*
X145054121Y-68504191D01*
X145028428Y-68476734D01*
X144998139Y-68455277D01*
X144988418Y-68450261D01*
X144959746Y-68436680D01*
X144594743Y-68435553D01*
X144229739Y-68434426D01*
X144229739Y-69293644D01*
X144056231Y-69293644D01*
X144056231Y-68083076D01*
X144229861Y-68083076D01*
X144229955Y-68111222D01*
X144230373Y-68138138D01*
X144231116Y-68162207D01*
X144232182Y-68181815D01*
X144233571Y-68195348D01*
X144234342Y-68199170D01*
X144243914Y-68219356D01*
X144259631Y-68237149D01*
X144279176Y-68250282D01*
X144291269Y-68254850D01*
X144299157Y-68255829D01*
X144314720Y-68256733D01*
X144337166Y-68257559D01*
X144365707Y-68258306D01*
X144399553Y-68258971D01*
X144437914Y-68259553D01*
X144480000Y-68260049D01*
X144525022Y-68260458D01*
X144572191Y-68260778D01*
X144620715Y-68261006D01*
X144669807Y-68261142D01*
X144718675Y-68261182D01*
X144766531Y-68261126D01*
X144812584Y-68260971D01*
X144856046Y-68260715D01*
X144896126Y-68260356D01*
X144932034Y-68259893D01*
X144962981Y-68259323D01*
X144988178Y-68258645D01*
X145006835Y-68257856D01*
X145018161Y-68256955D01*
X145020172Y-68256629D01*
X145043271Y-68247763D01*
X145063510Y-68232621D01*
X145078473Y-68213122D01*
X145080809Y-68208456D01*
X145083315Y-68202115D01*
X145085228Y-68194758D01*
X145086627Y-68185210D01*
X145087589Y-68172296D01*
X145088192Y-68154842D01*
X145088512Y-68131671D01*
X145088627Y-68101610D01*
X145088634Y-68089662D01*
X145088568Y-68056945D01*
X145088320Y-68031521D01*
X145087814Y-68012220D01*
X145086974Y-67997874D01*
X145085723Y-67987312D01*
X145083986Y-67979365D01*
X145081686Y-67972862D01*
X145080927Y-67971132D01*
X145071146Y-67955597D01*
X145057045Y-67940218D01*
X145041472Y-67927784D01*
X145030943Y-67922218D01*
X145024985Y-67921553D01*
X145011046Y-67920934D01*
X144989611Y-67920366D01*
X144961162Y-67919856D01*
X144926182Y-67919407D01*
X144885156Y-67919025D01*
X144838566Y-67918716D01*
X144786896Y-67918483D01*
X144730629Y-67918333D01*
X144670249Y-67918271D01*
X144658868Y-67918270D01*
X144592964Y-67918291D01*
X144535030Y-67918361D01*
X144484572Y-67918486D01*
X144441098Y-67918675D01*
X144404114Y-67918934D01*
X144373125Y-67919271D01*
X144347639Y-67919694D01*
X144327163Y-67920210D01*
X144311201Y-67920827D01*
X144299262Y-67921551D01*
X144290851Y-67922392D01*
X144285476Y-67923355D01*
X144283560Y-67923970D01*
X144268725Y-67933363D01*
X144253853Y-67947901D01*
X144241487Y-67964674D01*
X144234276Y-67980391D01*
X144232740Y-67990472D01*
X144231531Y-68007396D01*
X144230648Y-68029548D01*
X144230092Y-68055313D01*
X144229861Y-68083076D01*
X144056231Y-68083076D01*
X144056231Y-67744635D01*
X145137487Y-67746877D01*
G37*
G36*
X142511579Y-67918270D02*
G01*
X141544262Y-67918270D01*
X141525436Y-67927791D01*
X141509304Y-67938930D01*
X141495228Y-67953766D01*
X141493858Y-67955663D01*
X141481106Y-67974014D01*
X141481106Y-68204542D01*
X141492748Y-68222135D01*
X141503912Y-68235171D01*
X141517810Y-68246576D01*
X141522372Y-68249334D01*
X141540352Y-68258939D01*
X141852457Y-68260152D01*
X142164561Y-68261365D01*
X142164561Y-68434564D01*
X141853346Y-68434564D01*
X141794478Y-68434572D01*
X141743475Y-68434605D01*
X141699738Y-68434678D01*
X141662669Y-68434806D01*
X141631669Y-68435003D01*
X141606139Y-68435285D01*
X141585481Y-68435665D01*
X141569094Y-68436160D01*
X141556382Y-68436783D01*
X141546745Y-68437549D01*
X141539584Y-68438473D01*
X141534301Y-68439570D01*
X141530297Y-68440854D01*
X141526973Y-68442341D01*
X141526430Y-68442616D01*
X141504902Y-68457550D01*
X141489762Y-68477459D01*
X141485539Y-68486327D01*
X141484211Y-68490368D01*
X141483072Y-68496071D01*
X141482109Y-68504057D01*
X141481308Y-68514948D01*
X141480655Y-68529363D01*
X141480137Y-68547925D01*
X141479739Y-68571253D01*
X141479449Y-68599970D01*
X141479252Y-68634696D01*
X141479134Y-68676053D01*
X141479083Y-68724660D01*
X141479083Y-68778272D01*
X141479112Y-68833619D01*
X141479173Y-68881145D01*
X141479282Y-68921489D01*
X141479457Y-68955295D01*
X141479714Y-68983202D01*
X141480072Y-69005854D01*
X141480547Y-69023891D01*
X141481157Y-69037954D01*
X141481919Y-69048687D01*
X141482850Y-69056729D01*
X141483968Y-69062723D01*
X141485290Y-69067310D01*
X141486834Y-69071131D01*
X141486988Y-69071468D01*
X141499921Y-69092043D01*
X141517558Y-69106423D01*
X141533599Y-69113645D01*
X141537247Y-69114658D01*
X141542434Y-69115562D01*
X141549623Y-69116363D01*
X141559279Y-69117067D01*
X141571863Y-69117680D01*
X141587840Y-69118208D01*
X141607673Y-69118656D01*
X141631825Y-69119032D01*
X141660759Y-69119341D01*
X141694940Y-69119589D01*
X141734829Y-69119782D01*
X141780891Y-69119926D01*
X141833589Y-69120028D01*
X141893386Y-69120092D01*
X141960746Y-69120126D01*
X142031788Y-69120136D01*
X142511579Y-69120136D01*
X142511579Y-69293644D01*
X141370753Y-69293644D01*
X141352116Y-69284123D01*
X141337521Y-69274511D01*
X141323831Y-69262138D01*
X141320538Y-69258339D01*
X141307597Y-69242076D01*
X141305579Y-67806124D01*
X141315052Y-67789598D01*
X141324572Y-67776367D01*
X141336861Y-67763368D01*
X141340786Y-67759975D01*
X141357048Y-67746877D01*
X141934314Y-67745774D01*
X142511579Y-67744671D01*
X142511579Y-67918270D01*
G37*
G36*
X148136111Y-66093738D02*
G01*
X148141820Y-66102710D01*
X148149960Y-66116531D01*
X148159797Y-66133870D01*
X148170601Y-66153394D01*
X148181638Y-66173770D01*
X148192177Y-66193666D01*
X148201484Y-66211750D01*
X148208830Y-66226689D01*
X148212153Y-66233964D01*
X148230458Y-66280100D01*
X148246462Y-66328292D01*
X148259521Y-66376206D01*
X148268988Y-66421508D01*
X148273794Y-66456905D01*
X148274677Y-66468137D01*
X148274711Y-66477685D01*
X148273502Y-66487240D01*
X148270653Y-66498494D01*
X148265768Y-66513139D01*
X148258452Y-66532868D01*
X148252167Y-66549317D01*
X148188633Y-66703976D01*
X148117227Y-66857473D01*
X148038542Y-67008619D01*
X147953170Y-67156226D01*
X147936439Y-67183456D01*
X147892468Y-67254342D01*
X147828990Y-67285634D01*
X147803963Y-67297532D01*
X147777850Y-67309198D01*
X147753157Y-67319560D01*
X147732391Y-67327546D01*
X147725307Y-67329977D01*
X147688000Y-67340794D01*
X147646839Y-67350534D01*
X147604892Y-67358593D01*
X147565230Y-67364367D01*
X147537625Y-67366910D01*
X147518354Y-67368029D01*
X147506226Y-67368407D01*
X147499934Y-67367829D01*
X147498173Y-67366080D01*
X147499637Y-67362946D01*
X147501093Y-67360899D01*
X147505514Y-67354949D01*
X147514149Y-67343437D01*
X147526102Y-67327550D01*
X147540482Y-67308476D01*
X147556394Y-67287400D01*
X147558521Y-67284585D01*
X147653087Y-67152556D01*
X147741539Y-67014949D01*
X147823609Y-66872310D01*
X147899028Y-66725185D01*
X147967527Y-66574119D01*
X148028835Y-66419659D01*
X148082684Y-66262348D01*
X148112659Y-66162022D01*
X148119179Y-66139078D01*
X148124930Y-66119157D01*
X148129516Y-66103608D01*
X148132538Y-66093782D01*
X148133564Y-66090948D01*
X148136111Y-66093738D01*
G37*
G36*
X144879471Y-61186013D02*
G01*
X144959612Y-61194214D01*
X145038848Y-61210336D01*
X145039951Y-61210620D01*
X145117664Y-61234859D01*
X145191879Y-61266657D01*
X145262936Y-61306185D01*
X145331175Y-61353615D01*
X145348053Y-61366904D01*
X145380878Y-61393376D01*
X145371782Y-61406150D01*
X145364757Y-61414468D01*
X145357520Y-61417296D01*
X145346523Y-61416340D01*
X145291921Y-61408615D01*
X145230331Y-61401675D01*
X145163198Y-61395584D01*
X145091965Y-61390409D01*
X145018078Y-61386213D01*
X144942981Y-61383064D01*
X144868120Y-61381025D01*
X144794938Y-61380163D01*
X144724881Y-61380541D01*
X144659393Y-61382227D01*
X144625424Y-61383757D01*
X144585477Y-61386085D01*
X144543538Y-61388908D01*
X144500777Y-61392118D01*
X144458361Y-61395607D01*
X144417459Y-61399264D01*
X144379240Y-61402983D01*
X144344873Y-61406653D01*
X144315526Y-61410167D01*
X144292368Y-61413416D01*
X144277348Y-61416118D01*
X144270022Y-61416340D01*
X144267827Y-61414402D01*
X144271020Y-61409568D01*
X144279830Y-61400655D01*
X144293100Y-61388663D01*
X144309674Y-61374590D01*
X144328396Y-61359435D01*
X144348111Y-61344195D01*
X144355365Y-61338780D01*
X144421098Y-61295409D01*
X144491112Y-61258989D01*
X144564667Y-61229659D01*
X144641022Y-61207558D01*
X144719435Y-61192824D01*
X144799165Y-61185596D01*
X144879471Y-61186013D01*
G37*
G36*
X147532687Y-65047566D02*
G01*
X147654490Y-65258446D01*
X147651618Y-65328303D01*
X147641010Y-65486756D01*
X147622329Y-65642702D01*
X147595598Y-65796070D01*
X147560842Y-65946791D01*
X147518083Y-66094795D01*
X147467347Y-66240013D01*
X147408656Y-66382376D01*
X147342035Y-66521813D01*
X147267506Y-66658256D01*
X147185095Y-66791636D01*
X147116408Y-66892028D01*
X147062880Y-66963945D01*
X147004110Y-67037368D01*
X146941633Y-67110578D01*
X146876983Y-67181855D01*
X146811695Y-67249476D01*
X146747305Y-67311722D01*
X146719123Y-67337438D01*
X146680095Y-67372351D01*
X146474810Y-67372351D01*
X146434038Y-67372288D01*
X146395967Y-67372107D01*
X146361409Y-67371819D01*
X146331177Y-67371439D01*
X146306083Y-67370978D01*
X146286940Y-67370449D01*
X146274560Y-67369865D01*
X146269756Y-67369238D01*
X146269723Y-67369178D01*
X146273081Y-67365665D01*
X146282069Y-67358469D01*
X146295307Y-67348645D01*
X146310985Y-67337552D01*
X146369337Y-67295618D01*
X146426270Y-67251518D01*
X146483061Y-67204167D01*
X146540989Y-67152474D01*
X146601329Y-67095352D01*
X146640054Y-67057191D01*
X146710558Y-66984598D01*
X146774818Y-66913677D01*
X146834308Y-66842629D01*
X146890503Y-66769653D01*
X146944877Y-66692951D01*
X146973045Y-66650809D01*
X147051124Y-66524131D01*
X147121517Y-66393966D01*
X147184150Y-66260506D01*
X147238952Y-66123944D01*
X147285850Y-65984475D01*
X147324770Y-65842290D01*
X147355641Y-65697584D01*
X147373612Y-65586480D01*
X147386538Y-65473287D01*
X147394446Y-65355825D01*
X147397313Y-65236450D01*
X147395115Y-65117520D01*
X147387829Y-65001392D01*
X147380111Y-64926506D01*
X147373757Y-64873813D01*
X147392321Y-64855249D01*
X147410885Y-64836686D01*
X147532687Y-65047566D01*
G37*
G36*
X147569239Y-67758559D02*
G01*
X147600918Y-67778281D01*
X147628110Y-67803583D01*
X147649471Y-67832985D01*
X147662400Y-67861139D01*
X147668171Y-67878066D01*
X147670290Y-67837532D01*
X147671568Y-67817850D01*
X147673322Y-67804336D01*
X147676115Y-67794694D01*
X147680515Y-67786629D01*
X147684037Y-67781754D01*
X147694861Y-67769534D01*
X147706949Y-67758561D01*
X147709428Y-67756694D01*
X147723192Y-67746877D01*
X148235254Y-67746877D01*
X148262432Y-67761608D01*
X148295148Y-67783635D01*
X148321760Y-67810611D01*
X148341631Y-67841703D01*
X148354122Y-67876075D01*
X148355805Y-67883934D01*
X148356429Y-67891589D01*
X148357006Y-67907609D01*
X148357536Y-67931896D01*
X148358018Y-67964352D01*
X148358451Y-68004878D01*
X148358835Y-68053376D01*
X148359170Y-68109747D01*
X148359453Y-68173893D01*
X148359686Y-68245716D01*
X148359867Y-68325117D01*
X148359996Y-68411998D01*
X148360073Y-68506261D01*
X148360096Y-68600187D01*
X148360096Y-69293644D01*
X148186587Y-69293644D01*
X148186587Y-67918270D01*
X147670292Y-67918270D01*
X147670292Y-69293644D01*
X147496784Y-69293644D01*
X147496784Y-67918270D01*
X146984721Y-67918270D01*
X146984721Y-69293644D01*
X146806980Y-69293644D01*
X146807065Y-68604899D01*
X146807099Y-68523004D01*
X146807179Y-68444256D01*
X146807303Y-68369056D01*
X146807468Y-68297804D01*
X146807673Y-68230901D01*
X146807914Y-68168746D01*
X146808191Y-68111739D01*
X146808500Y-68060282D01*
X146808839Y-68014773D01*
X146809207Y-67975613D01*
X146809600Y-67943203D01*
X146810017Y-67917942D01*
X146810456Y-67900231D01*
X146810914Y-67890469D01*
X146811047Y-67889200D01*
X146820253Y-67854173D01*
X146836838Y-67821686D01*
X146859802Y-67793103D01*
X146888143Y-67769789D01*
X146906430Y-67759325D01*
X146931822Y-67746877D01*
X147545451Y-67746877D01*
X147569239Y-67758559D01*
G37*
G36*
X145431481Y-68673197D02*
G01*
X145431393Y-68609780D01*
X145431353Y-68545529D01*
X145431360Y-68481028D01*
X145431414Y-68416862D01*
X145431514Y-68353615D01*
X145431662Y-68291871D01*
X145431856Y-68232216D01*
X145432096Y-68175232D01*
X145432384Y-68121506D01*
X145432718Y-68071621D01*
X145433099Y-68026161D01*
X145433526Y-67985712D01*
X145434000Y-67950857D01*
X145434520Y-67922181D01*
X145435087Y-67900269D01*
X145435700Y-67885705D01*
X145436297Y-67879333D01*
X145447553Y-67845431D01*
X145466015Y-67814074D01*
X145490491Y-67786756D01*
X145519790Y-67764972D01*
X145533172Y-67757868D01*
X145556447Y-67746877D01*
X146512862Y-67746877D01*
X146538253Y-67759301D01*
X146563837Y-67775349D01*
X146588495Y-67797125D01*
X146609653Y-67822056D01*
X146623163Y-67844211D01*
X146635587Y-67869602D01*
X146635587Y-69168803D01*
X146623758Y-69192892D01*
X146603180Y-69225980D01*
X146576847Y-69252908D01*
X146544399Y-69274037D01*
X146541317Y-69275591D01*
X146509074Y-69291528D01*
X146043340Y-69292207D01*
X145978658Y-69292267D01*
X145916686Y-69292257D01*
X145857949Y-69292181D01*
X145802972Y-69292042D01*
X145752283Y-69291843D01*
X145706404Y-69291588D01*
X145665864Y-69291280D01*
X145631186Y-69290923D01*
X145602897Y-69290520D01*
X145581522Y-69290074D01*
X145567586Y-69289589D01*
X145561720Y-69289096D01*
X145528242Y-69276912D01*
X145498166Y-69257744D01*
X145472589Y-69232752D01*
X145452609Y-69203095D01*
X145439321Y-69169932D01*
X145436205Y-69156388D01*
X145435551Y-69148569D01*
X145434945Y-69132902D01*
X145434385Y-69109972D01*
X145433874Y-69080364D01*
X145433409Y-69044661D01*
X145432992Y-69003449D01*
X145432622Y-68957311D01*
X145432300Y-68906832D01*
X145432024Y-68852597D01*
X145431796Y-68795190D01*
X145431623Y-68737741D01*
X145607193Y-68737741D01*
X145607220Y-68794321D01*
X145607300Y-68844212D01*
X145607455Y-68887859D01*
X145607704Y-68925705D01*
X145608070Y-68958195D01*
X145608572Y-68985772D01*
X145609231Y-69008881D01*
X145610067Y-69027964D01*
X145611102Y-69043467D01*
X145612357Y-69055832D01*
X145613850Y-69065504D01*
X145615605Y-69072927D01*
X145617640Y-69078544D01*
X145619977Y-69082800D01*
X145622636Y-69086138D01*
X145625638Y-69089003D01*
X145629004Y-69091837D01*
X145632754Y-69095086D01*
X145633883Y-69096137D01*
X145638163Y-69100226D01*
X145642217Y-69103814D01*
X145646599Y-69106933D01*
X145651860Y-69109618D01*
X145658553Y-69111901D01*
X145667230Y-69113815D01*
X145678444Y-69115392D01*
X145692748Y-69116667D01*
X145710694Y-69117671D01*
X145732835Y-69118438D01*
X145759723Y-69119001D01*
X145791911Y-69119393D01*
X145829951Y-69119646D01*
X145874395Y-69119794D01*
X145925797Y-69119870D01*
X145984709Y-69119906D01*
X146032538Y-69119926D01*
X146107087Y-69119905D01*
X146173199Y-69119771D01*
X146230902Y-69119522D01*
X146280223Y-69119158D01*
X146321188Y-69118680D01*
X146353825Y-69118086D01*
X146378159Y-69117376D01*
X146394220Y-69116551D01*
X146402032Y-69115610D01*
X146402073Y-69115598D01*
X146418218Y-69108127D01*
X146434970Y-69095667D01*
X146449414Y-69080764D01*
X146458494Y-69066314D01*
X146459354Y-69063001D01*
X146460127Y-69057112D01*
X146460817Y-69048243D01*
X146461429Y-69035987D01*
X146461966Y-69019938D01*
X146462434Y-68999691D01*
X146462836Y-68974840D01*
X146463176Y-68944978D01*
X146463459Y-68909700D01*
X146463689Y-68868600D01*
X146463870Y-68821273D01*
X146464007Y-68767311D01*
X146464103Y-68706310D01*
X146464163Y-68637863D01*
X146464191Y-68561565D01*
X146464195Y-68519614D01*
X146464162Y-68439820D01*
X146464067Y-68365338D01*
X146463912Y-68296454D01*
X146463697Y-68233455D01*
X146463427Y-68176630D01*
X146463102Y-68126265D01*
X146462725Y-68082649D01*
X146462298Y-68046068D01*
X146461823Y-68016810D01*
X146461302Y-67995163D01*
X146460738Y-67981414D01*
X146460151Y-67975897D01*
X146452810Y-67963099D01*
X146440944Y-67948674D01*
X146427156Y-67935335D01*
X146414045Y-67925796D01*
X146410373Y-67923970D01*
X146403544Y-67922881D01*
X146389015Y-67921894D01*
X146367553Y-67921011D01*
X146339922Y-67920231D01*
X146306886Y-67919554D01*
X146269210Y-67918980D01*
X146227659Y-67918509D01*
X146182998Y-67918141D01*
X146135992Y-67917876D01*
X146087404Y-67917715D01*
X146038000Y-67917656D01*
X145988544Y-67917701D01*
X145939801Y-67917848D01*
X145892537Y-67918099D01*
X145847514Y-67918453D01*
X145805499Y-67918910D01*
X145767256Y-67919470D01*
X145733549Y-67920133D01*
X145705143Y-67920900D01*
X145682803Y-67921769D01*
X145667294Y-67922742D01*
X145659380Y-67923817D01*
X145658935Y-67923970D01*
X145646100Y-67931953D01*
X145632359Y-67944451D01*
X145620160Y-67958816D01*
X145611953Y-67972397D01*
X145610512Y-67976352D01*
X145610103Y-67981984D01*
X145609708Y-67995561D01*
X145609332Y-68016565D01*
X145608976Y-68044477D01*
X145608645Y-68078778D01*
X145608340Y-68118951D01*
X145608066Y-68164476D01*
X145607825Y-68214834D01*
X145607621Y-68269508D01*
X145607456Y-68327978D01*
X145607334Y-68389726D01*
X145607258Y-68454234D01*
X145607230Y-68520983D01*
X145607230Y-68523434D01*
X145607219Y-68602742D01*
X145607200Y-68674030D01*
X145607193Y-68737741D01*
X145431623Y-68737741D01*
X145431615Y-68735195D01*
X145431481Y-68673197D01*
G37*
G36*
X143271489Y-65189046D02*
G01*
X143272335Y-65148523D01*
X143273647Y-65110743D01*
X143275413Y-65077305D01*
X143277625Y-65049807D01*
X143278940Y-65038446D01*
X143290390Y-64964070D01*
X143304674Y-64892573D01*
X143322361Y-64821740D01*
X143344020Y-64749358D01*
X143370219Y-64673214D01*
X143378757Y-64650088D01*
X143409270Y-64561933D01*
X143433162Y-64477824D01*
X143450601Y-64396754D01*
X143461754Y-64317714D01*
X143466790Y-64239698D01*
X143465878Y-64161699D01*
X143464412Y-64137340D01*
X143455608Y-64050956D01*
X143442604Y-63975269D01*
X143688053Y-63975269D01*
X143691948Y-63999976D01*
X143702864Y-64021363D01*
X143719653Y-64038316D01*
X143741164Y-64049718D01*
X143766248Y-64054453D01*
X143769728Y-64054521D01*
X143785190Y-64053032D01*
X143799543Y-64049297D01*
X143803373Y-64047629D01*
X143812073Y-64042197D01*
X143825363Y-64032797D01*
X143841301Y-64020841D01*
X143855004Y-64010103D01*
X143944102Y-63944039D01*
X144037893Y-63884448D01*
X144135667Y-63831636D01*
X144236713Y-63785910D01*
X144340321Y-63747577D01*
X144445781Y-63716942D01*
X144552384Y-63694313D01*
X144605214Y-63686187D01*
X144644252Y-63680942D01*
X144671584Y-63706510D01*
X144695793Y-63726596D01*
X144719422Y-63740108D01*
X144744990Y-63748036D01*
X144775017Y-63751373D01*
X144786237Y-63751635D01*
X144805768Y-63751452D01*
X144820055Y-63750160D01*
X144832306Y-63747125D01*
X144845729Y-63741712D01*
X144852592Y-63738529D01*
X144885699Y-63718580D01*
X144912551Y-63693497D01*
X144932778Y-63664185D01*
X144946011Y-63631545D01*
X144947011Y-63625572D01*
X145041338Y-63625572D01*
X145048887Y-63649044D01*
X145064212Y-63670707D01*
X145064907Y-63671435D01*
X145074858Y-63680979D01*
X145084200Y-63687328D01*
X145095745Y-63691870D01*
X145112306Y-63695998D01*
X145116327Y-63696867D01*
X145222001Y-63722214D01*
X145321333Y-63751988D01*
X145415453Y-63786637D01*
X145505491Y-63826614D01*
X145592579Y-63872367D01*
X145662798Y-63914650D01*
X145718365Y-63950048D01*
X145720230Y-63982268D01*
X145726401Y-64019571D01*
X145740027Y-64053468D01*
X145760512Y-64083155D01*
X145787258Y-64107824D01*
X145819666Y-64126671D01*
X145830798Y-64131217D01*
X145844493Y-64135403D01*
X145859102Y-64137652D01*
X145877436Y-64138265D01*
X145892885Y-64137925D01*
X145913203Y-64136888D01*
X145928067Y-64135010D01*
X145940485Y-64131609D01*
X145953466Y-64126005D01*
X145959964Y-64122752D01*
X145991782Y-64101809D01*
X146018198Y-64074678D01*
X146038234Y-64042365D01*
X146038489Y-64041828D01*
X146044779Y-64027669D01*
X146048657Y-64015664D01*
X146050695Y-64002841D01*
X146051462Y-63986230D01*
X146051551Y-63973913D01*
X146051346Y-63954368D01*
X146050255Y-63940246D01*
X146047615Y-63928506D01*
X146042764Y-63916110D01*
X146035777Y-63901511D01*
X146015643Y-63869487D01*
X145990336Y-63843448D01*
X145960835Y-63823862D01*
X145928120Y-63811197D01*
X145893170Y-63805919D01*
X145856964Y-63808496D01*
X145845913Y-63810893D01*
X145817985Y-63817923D01*
X145773971Y-63788751D01*
X145676152Y-63728832D01*
X145573166Y-63675156D01*
X145465958Y-63628115D01*
X145355477Y-63588098D01*
X145242669Y-63555497D01*
X145167110Y-63538173D01*
X145138725Y-63533387D01*
X145116308Y-63532383D01*
X145098098Y-63535492D01*
X145082334Y-63543044D01*
X145067256Y-63555370D01*
X145065308Y-63557286D01*
X145049554Y-63578396D01*
X145041562Y-63601591D01*
X145041338Y-63625572D01*
X144947011Y-63625572D01*
X144951883Y-63596480D01*
X144950023Y-63559893D01*
X144940405Y-63523595D01*
X144927818Y-63499402D01*
X144909141Y-63475510D01*
X144886522Y-63454171D01*
X144862107Y-63437637D01*
X144855101Y-63434110D01*
X144842015Y-63428450D01*
X144830629Y-63424850D01*
X144818304Y-63422855D01*
X144802402Y-63422008D01*
X144784121Y-63421852D01*
X144763151Y-63422078D01*
X144748138Y-63423038D01*
X144736579Y-63425159D01*
X144725973Y-63428863D01*
X144716253Y-63433371D01*
X144683241Y-63453810D01*
X144656515Y-63479416D01*
X144644906Y-63495227D01*
X144637528Y-63506249D01*
X144631322Y-63512665D01*
X144623521Y-63516048D01*
X144611360Y-63517968D01*
X144603393Y-63518809D01*
X144588246Y-63520708D01*
X144567444Y-63523788D01*
X144543646Y-63527634D01*
X144519509Y-63531832D01*
X144517768Y-63532148D01*
X144400399Y-63557752D01*
X144285427Y-63591318D01*
X144173309Y-63632643D01*
X144064499Y-63681525D01*
X143959454Y-63737761D01*
X143858630Y-63801148D01*
X143772696Y-63863505D01*
X143746061Y-63884503D01*
X143725596Y-63901724D01*
X143710511Y-63916210D01*
X143700017Y-63929003D01*
X143693326Y-63941144D01*
X143689647Y-63953676D01*
X143688193Y-63967640D01*
X143688053Y-63975269D01*
X143442604Y-63975269D01*
X143441673Y-63969851D01*
X143422138Y-63892238D01*
X143396529Y-63816329D01*
X143364375Y-63740336D01*
X143353788Y-63718086D01*
X143335876Y-63682412D01*
X143318282Y-63649930D01*
X143300107Y-63619330D01*
X143280453Y-63589304D01*
X143258422Y-63558542D01*
X143233115Y-63525736D01*
X143203636Y-63489577D01*
X143169084Y-63448755D01*
X143168595Y-63448185D01*
X143150362Y-63426841D01*
X143134124Y-63407656D01*
X143120650Y-63391551D01*
X143110705Y-63379446D01*
X143105056Y-63372263D01*
X143104048Y-63370689D01*
X143106059Y-63366708D01*
X143111672Y-63356500D01*
X143120259Y-63341167D01*
X143131189Y-63321811D01*
X143143833Y-63299534D01*
X143157563Y-63275440D01*
X143171748Y-63250630D01*
X143185760Y-63226207D01*
X143198969Y-63203273D01*
X143210746Y-63182931D01*
X143220462Y-63166284D01*
X143227486Y-63154432D01*
X143227681Y-63154110D01*
X143236018Y-63140283D01*
X143269247Y-63171543D01*
X143331340Y-63224225D01*
X143398862Y-63270810D01*
X143470994Y-63310905D01*
X143546916Y-63344120D01*
X143625807Y-63370065D01*
X143706847Y-63388348D01*
X143733034Y-63392508D01*
X143767798Y-63396190D01*
X143807848Y-63398339D01*
X143850388Y-63398956D01*
X143892620Y-63398046D01*
X143931749Y-63395611D01*
X143961012Y-63392265D01*
X143985671Y-63388349D01*
X144008665Y-63384036D01*
X144031540Y-63378917D01*
X144055841Y-63372586D01*
X144083113Y-63364632D01*
X144114900Y-63354649D01*
X144152747Y-63342228D01*
X144161871Y-63339184D01*
X144258084Y-63309065D01*
X144350760Y-63284445D01*
X144441674Y-63265054D01*
X144532601Y-63250624D01*
X144625315Y-63240884D01*
X144721592Y-63235566D01*
X144823205Y-63234398D01*
X144849655Y-63234724D01*
X144931379Y-63237211D01*
X145007716Y-63242039D01*
X145080459Y-63249513D01*
X145151403Y-63259938D01*
X145222341Y-63273619D01*
X145295068Y-63290861D01*
X145371377Y-63311970D01*
X145453064Y-63337249D01*
X145453598Y-63337422D01*
X145494588Y-63350436D01*
X145529437Y-63360790D01*
X145559935Y-63368777D01*
X145587872Y-63374693D01*
X145615037Y-63378832D01*
X145643221Y-63381488D01*
X145674214Y-63382956D01*
X145709805Y-63383529D01*
X145734188Y-63383567D01*
X145767101Y-63383440D01*
X145793183Y-63383121D01*
X145814068Y-63382487D01*
X145831388Y-63381413D01*
X145846776Y-63379777D01*
X145861866Y-63377455D01*
X145878290Y-63374324D01*
X145890769Y-63371730D01*
X145975602Y-63349669D01*
X146056230Y-63320267D01*
X146132683Y-63283512D01*
X146200050Y-63242729D01*
X146237189Y-63216177D01*
X146274341Y-63186583D01*
X146309474Y-63155712D01*
X146340555Y-63125329D01*
X146360512Y-63103304D01*
X146371973Y-63090316D01*
X146381647Y-63080389D01*
X146388129Y-63074915D01*
X146389781Y-63074292D01*
X146392712Y-63078045D01*
X146399210Y-63088128D01*
X146408680Y-63103520D01*
X146420528Y-63123197D01*
X146434161Y-63146139D01*
X146448985Y-63171322D01*
X146464405Y-63197726D01*
X146479828Y-63224328D01*
X146494659Y-63250107D01*
X146508305Y-63274040D01*
X146520172Y-63295105D01*
X146529665Y-63312281D01*
X146536192Y-63324545D01*
X146539156Y-63330876D01*
X146539261Y-63331470D01*
X146536413Y-63335164D01*
X146528649Y-63344678D01*
X146516510Y-63359363D01*
X146500539Y-63378569D01*
X146481275Y-63401647D01*
X146459261Y-63427947D01*
X146435036Y-63456820D01*
X146411295Y-63485059D01*
X146375749Y-63527437D01*
X146345215Y-63564191D01*
X146319141Y-63596073D01*
X146296972Y-63623834D01*
X146278153Y-63648224D01*
X146262130Y-63669995D01*
X146248348Y-63689897D01*
X146236253Y-63708682D01*
X146225290Y-63727099D01*
X146214905Y-63745902D01*
X146205792Y-63763386D01*
X146173145Y-63834154D01*
X146147897Y-63904478D01*
X146129375Y-63976465D01*
X146119055Y-64035929D01*
X146115159Y-64074935D01*
X146113385Y-64119055D01*
X146113653Y-64165714D01*
X146115882Y-64212333D01*
X146119993Y-64256334D01*
X146125907Y-64295142D01*
X146127306Y-64302092D01*
X146141365Y-64358809D01*
X146159245Y-64415216D01*
X146180041Y-64468789D01*
X146202845Y-64517009D01*
X146207896Y-64526383D01*
X146218882Y-64547542D01*
X146231911Y-64574660D01*
X146246113Y-64605753D01*
X146260615Y-64638835D01*
X146274544Y-64671921D01*
X146287028Y-64703026D01*
X146296206Y-64727400D01*
X146329145Y-64828915D01*
X146354200Y-64929371D01*
X146371461Y-65029662D01*
X146381015Y-65130680D01*
X146382953Y-65233318D01*
X146377363Y-65338469D01*
X146366543Y-65432015D01*
X146346639Y-65541918D01*
X146318609Y-65650966D01*
X146282790Y-65758353D01*
X146239520Y-65863270D01*
X146189135Y-65964910D01*
X146131973Y-66062467D01*
X146068372Y-66155133D01*
X146059290Y-66167252D01*
X145987894Y-66254896D01*
X145910876Y-66336905D01*
X145828707Y-66412957D01*
X145741858Y-66482731D01*
X145650801Y-66545905D01*
X145556008Y-66602160D01*
X145457950Y-66651174D01*
X145357099Y-66692626D01*
X145253927Y-66726194D01*
X145227712Y-66733347D01*
X145180505Y-66745732D01*
X145163736Y-66730582D01*
X145137264Y-66711703D01*
X145106438Y-66698004D01*
X145073623Y-66690177D01*
X145041183Y-66688916D01*
X145027505Y-66690645D01*
X144989980Y-66701399D01*
X144957672Y-66718813D01*
X144930611Y-66742866D01*
X144908823Y-66773538D01*
X144903768Y-66783113D01*
X144896247Y-66798876D01*
X144891552Y-66811137D01*
X144889022Y-66822921D01*
X144887993Y-66837256D01*
X144887803Y-66856057D01*
X144888018Y-66875637D01*
X144889103Y-66889784D01*
X144891720Y-66901522D01*
X144896533Y-66913880D01*
X144903768Y-66929001D01*
X144923206Y-66959847D01*
X144947326Y-66984599D01*
X144975078Y-67003234D01*
X145005412Y-67015730D01*
X145037278Y-67022068D01*
X145069627Y-67022224D01*
X145101408Y-67016179D01*
X145131572Y-67003910D01*
X145159069Y-66985396D01*
X145182849Y-66960615D01*
X145199144Y-66935019D01*
X145213148Y-66908010D01*
X145245144Y-66900566D01*
X145268266Y-66894573D01*
X145297288Y-66886107D01*
X145330243Y-66875818D01*
X145365164Y-66864357D01*
X145400084Y-66852374D01*
X145433037Y-66840520D01*
X145462056Y-66829443D01*
X145470211Y-66826161D01*
X145578065Y-66777523D01*
X145681925Y-66721576D01*
X145781488Y-66658629D01*
X145876447Y-66588993D01*
X145966499Y-66512975D01*
X146051336Y-66430885D01*
X146130655Y-66343034D01*
X146204150Y-66249729D01*
X146271516Y-66151280D01*
X146332448Y-66047998D01*
X146386641Y-65940190D01*
X146419804Y-65863671D01*
X146461826Y-65749605D01*
X146495457Y-65634864D01*
X146520764Y-65519083D01*
X146537813Y-65401899D01*
X146546672Y-65282947D01*
X146547562Y-65167982D01*
X146543373Y-65081652D01*
X146534795Y-64998034D01*
X146521531Y-64915995D01*
X146503288Y-64834403D01*
X146479769Y-64752123D01*
X146450682Y-64668024D01*
X146415730Y-64580973D01*
X146374619Y-64489837D01*
X146366818Y-64473484D01*
X146353382Y-64445099D01*
X146340558Y-64417203D01*
X146329030Y-64391342D01*
X146319479Y-64369065D01*
X146312588Y-64351919D01*
X146310053Y-64344851D01*
X146291953Y-64276595D01*
X146281524Y-64205894D01*
X146278803Y-64133951D01*
X146283824Y-64061973D01*
X146296623Y-63991164D01*
X146299281Y-63980465D01*
X146315899Y-63924767D01*
X146336338Y-63873111D01*
X146361795Y-63822851D01*
X146393469Y-63771338D01*
X146394789Y-63769354D01*
X146401599Y-63759917D01*
X146412602Y-63745607D01*
X146427120Y-63727241D01*
X146444475Y-63705636D01*
X146463989Y-63681606D01*
X146484986Y-63655967D01*
X146506788Y-63629536D01*
X146528717Y-63603128D01*
X146550095Y-63577559D01*
X146570245Y-63553645D01*
X146588490Y-63532202D01*
X146604152Y-63514045D01*
X146616553Y-63499991D01*
X146625017Y-63490854D01*
X146628864Y-63487452D01*
X146628913Y-63487446D01*
X146631552Y-63490952D01*
X146637778Y-63500777D01*
X146646989Y-63515889D01*
X146658581Y-63535253D01*
X146671955Y-63557834D01*
X146686507Y-63582598D01*
X146701635Y-63608510D01*
X146716738Y-63634537D01*
X146731214Y-63659644D01*
X146744460Y-63682796D01*
X146755875Y-63702959D01*
X146764858Y-63719099D01*
X146770805Y-63730181D01*
X146773115Y-63735172D01*
X146773125Y-63735264D01*
X146771030Y-63739923D01*
X146765451Y-63749868D01*
X146757442Y-63763243D01*
X146754322Y-63768294D01*
X146724586Y-63821356D01*
X146697439Y-63880247D01*
X146673848Y-63942488D01*
X146654778Y-64005602D01*
X146644371Y-64050292D01*
X146631596Y-64133886D01*
X146627107Y-64217032D01*
X146630930Y-64300061D01*
X146643089Y-64383303D01*
X146663607Y-64467089D01*
X146678521Y-64513688D01*
X146703891Y-64588945D01*
X146725682Y-64658250D01*
X146744247Y-64723143D01*
X146759941Y-64785168D01*
X146773115Y-64845867D01*
X146784124Y-64906782D01*
X146793319Y-64969455D01*
X146801054Y-65035429D01*
X146803484Y-65059606D01*
X146805649Y-65089072D01*
X146807217Y-65125194D01*
X146808199Y-65166182D01*
X146808604Y-65210251D01*
X146808445Y-65255612D01*
X146807732Y-65300479D01*
X146806475Y-65343064D01*
X146804686Y-65381579D01*
X146802375Y-65414238D01*
X146801263Y-65425667D01*
X146784693Y-65549300D01*
X146762035Y-65667862D01*
X146732970Y-65782474D01*
X146697182Y-65894256D01*
X146654355Y-66004328D01*
X146610002Y-66101884D01*
X146549020Y-66218122D01*
X146481456Y-66329038D01*
X146407333Y-66434609D01*
X146326671Y-66534810D01*
X146239491Y-66629615D01*
X146145815Y-66719000D01*
X146045664Y-66802940D01*
X145952982Y-66871731D01*
X145921670Y-66892904D01*
X145884231Y-66916900D01*
X145842139Y-66942820D01*
X145796866Y-66969763D01*
X145749888Y-66996828D01*
X145729061Y-67008541D01*
X145667268Y-67047116D01*
X145607318Y-67092482D01*
X145550471Y-67143388D01*
X145497990Y-67198587D01*
X145451135Y-67256830D01*
X145411168Y-67316867D01*
X145402498Y-67331836D01*
X145379739Y-67372351D01*
X144959085Y-67372351D01*
X144945092Y-67335322D01*
X144925690Y-67289105D01*
X144901295Y-67239191D01*
X144873107Y-67187653D01*
X144842324Y-67136564D01*
X144810147Y-67087997D01*
X144777775Y-67044024D01*
X144773038Y-67038030D01*
X144754810Y-67016467D01*
X144731791Y-66991174D01*
X144705681Y-66963856D01*
X144678175Y-66936220D01*
X144650971Y-66909972D01*
X144625767Y-66886818D01*
X144604709Y-66868826D01*
X144551799Y-66829206D01*
X144493378Y-66791052D01*
X144431887Y-66755759D01*
X144369770Y-66724718D01*
X144309469Y-66699323D01*
X144303867Y-66697234D01*
X144282930Y-66689878D01*
X144267585Y-66685517D01*
X144255694Y-66683697D01*
X144245121Y-66683961D01*
X144242872Y-66684238D01*
X144219210Y-66690671D01*
X144199236Y-66703570D01*
X144185943Y-66717619D01*
X144175204Y-66737133D01*
X144170634Y-66759776D01*
X144171993Y-66783302D01*
X144179042Y-66805462D01*
X144191540Y-66824012D01*
X144197911Y-66829839D01*
X144206392Y-66834927D01*
X144220556Y-66841806D01*
X144238119Y-66849409D01*
X144249870Y-66854081D01*
X144330203Y-66889352D01*
X144406458Y-66931886D01*
X144478251Y-66981331D01*
X144545197Y-67037336D01*
X144606913Y-67099548D01*
X144663013Y-67167615D01*
X144713113Y-67241186D01*
X144755520Y-67317283D01*
X144764685Y-67335804D01*
X144772276Y-67351598D01*
X144777572Y-67363131D01*
X144779852Y-67368870D01*
X144779889Y-67369124D01*
X144775800Y-67369798D01*
X144764103Y-67370424D01*
X144745654Y-67370987D01*
X144721309Y-67371473D01*
X144691923Y-67371866D01*
X144658354Y-67372153D01*
X144621456Y-67372317D01*
X144594453Y-67372351D01*
X144409016Y-67372351D01*
X144382450Y-67338624D01*
X144363181Y-67315876D01*
X144338950Y-67289891D01*
X144311520Y-67262348D01*
X144282654Y-67234930D01*
X144254112Y-67209318D01*
X144227658Y-67187192D01*
X144208370Y-67172553D01*
X144181090Y-67153914D01*
X144153258Y-67136524D01*
X144123349Y-67119552D01*
X144089841Y-67102168D01*
X144051208Y-67083543D01*
X144011840Y-67065501D01*
X143957128Y-67040284D01*
X143907913Y-67016235D01*
X143861608Y-66992008D01*
X143815627Y-66966257D01*
X143774808Y-66942130D01*
X143666089Y-66871640D01*
X143562688Y-66794671D01*
X143464843Y-66711508D01*
X143372787Y-66622439D01*
X143286757Y-66527751D01*
X143206988Y-66427732D01*
X143133717Y-66322667D01*
X143067177Y-66212846D01*
X143007606Y-66098554D01*
X142955239Y-65980078D01*
X142928875Y-65911260D01*
X142909315Y-65857282D01*
X142927437Y-65835034D01*
X142945626Y-65810024D01*
X142957483Y-65786363D01*
X142964025Y-65761202D01*
X142966270Y-65731689D01*
X142966297Y-65726134D01*
X142965686Y-65703359D01*
X142963699Y-65685937D01*
X142959872Y-65670804D01*
X142956524Y-65661611D01*
X142940514Y-65632296D01*
X142917426Y-65605989D01*
X142888458Y-65583922D01*
X142872180Y-65574881D01*
X142855891Y-65567148D01*
X142843236Y-65562430D01*
X142830946Y-65559993D01*
X142815749Y-65559097D01*
X142801685Y-65558994D01*
X142781958Y-65559337D01*
X142767462Y-65560773D01*
X142754979Y-65563950D01*
X142741288Y-65569516D01*
X142735111Y-65572386D01*
X142701379Y-65592523D01*
X142674133Y-65617665D01*
X142653743Y-65647203D01*
X142640581Y-65680524D01*
X142635018Y-65717020D01*
X142635237Y-65736849D01*
X142641374Y-65771070D01*
X142654667Y-65803538D01*
X142674099Y-65832692D01*
X142698651Y-65856970D01*
X142724243Y-65873341D01*
X142733849Y-65878486D01*
X142740421Y-65883792D01*
X142745400Y-65891327D01*
X142750226Y-65903162D01*
X142755160Y-65917776D01*
X142792487Y-66020781D01*
X142836930Y-66124917D01*
X142887611Y-66228537D01*
X142943649Y-66329997D01*
X143004166Y-66427650D01*
X143068283Y-66519849D01*
X143096972Y-66557706D01*
X143138809Y-66609218D01*
X143185880Y-66663291D01*
X143236400Y-66718056D01*
X143288583Y-66771644D01*
X143340642Y-66822186D01*
X143390793Y-66867814D01*
X143404983Y-66880080D01*
X143507041Y-66961703D01*
X143615106Y-67037671D01*
X143728565Y-67107602D01*
X143846805Y-67171114D01*
X143950432Y-67219691D01*
X143982579Y-67234018D01*
X144008835Y-67246341D01*
X144031201Y-67257716D01*
X144051675Y-67269199D01*
X144072258Y-67281848D01*
X144090086Y-67293475D01*
X144107740Y-67305656D01*
X144126105Y-67319100D01*
X144143882Y-67332759D01*
X144159772Y-67345589D01*
X144172476Y-67356544D01*
X144180696Y-67364581D01*
X144183188Y-67368391D01*
X144179030Y-67369219D01*
X144166851Y-67369964D01*
X144147093Y-67370619D01*
X144120198Y-67371178D01*
X144086608Y-67371635D01*
X144046767Y-67371981D01*
X144001116Y-67372210D01*
X143950097Y-67372316D01*
X143930331Y-67372322D01*
X143677473Y-67372293D01*
X143631081Y-67346506D01*
X143509263Y-67273988D01*
X143392283Y-67194648D01*
X143280402Y-67108786D01*
X143173882Y-67016700D01*
X143072983Y-66918689D01*
X142977967Y-66815052D01*
X142889095Y-66706086D01*
X142806629Y-66592091D01*
X142730829Y-66473365D01*
X142661957Y-66350208D01*
X142600275Y-66222916D01*
X142555997Y-66117586D01*
X142516048Y-66008607D01*
X142481876Y-65899518D01*
X142453112Y-65788778D01*
X142429384Y-65674845D01*
X142410324Y-65556178D01*
X142398708Y-65461638D01*
X142396149Y-65431624D01*
X142394099Y-65394716D01*
X142392556Y-65352432D01*
X142391520Y-65306294D01*
X142390992Y-65257822D01*
X142390971Y-65208536D01*
X142391458Y-65159957D01*
X142392452Y-65113604D01*
X142393953Y-65070998D01*
X142395961Y-65033658D01*
X142398476Y-65003106D01*
X142398735Y-65000667D01*
X142412103Y-64893976D01*
X142428526Y-64793006D01*
X142448501Y-64695408D01*
X142472526Y-64598837D01*
X142501095Y-64500944D01*
X142511182Y-64469253D01*
X142519797Y-64442178D01*
X142528066Y-64415265D01*
X142535387Y-64390542D01*
X142541158Y-64370036D01*
X142544473Y-64357107D01*
X142546700Y-64348471D01*
X142549561Y-64339549D01*
X142553446Y-64329594D01*
X142558745Y-64317858D01*
X142565847Y-64303592D01*
X142575143Y-64286048D01*
X142587022Y-64264480D01*
X142601874Y-64238138D01*
X142620089Y-64206275D01*
X142642056Y-64168144D01*
X142651332Y-64152091D01*
X142750291Y-63980932D01*
X142760224Y-64003597D01*
X142771835Y-64034175D01*
X142782892Y-64071141D01*
X142792831Y-64112419D01*
X142800045Y-64149742D01*
X142803221Y-64169572D01*
X142805431Y-64187415D01*
X142806776Y-64205323D01*
X142807355Y-64225345D01*
X142807268Y-64249533D01*
X142806615Y-64279937D01*
X142806531Y-64283048D01*
X142805422Y-64315200D01*
X142803769Y-64343248D01*
X142801266Y-64368772D01*
X142797609Y-64393350D01*
X142792491Y-64418563D01*
X142785607Y-64445988D01*
X142776652Y-64477206D01*
X142765320Y-64513795D01*
X142756691Y-64540721D01*
X142725112Y-64645160D01*
X142699247Y-64745888D01*
X142678692Y-64845041D01*
X142663040Y-64944753D01*
X142651884Y-65047159D01*
X142646684Y-65119020D01*
X142645252Y-65149808D01*
X142644349Y-65183336D01*
X142643951Y-65218255D01*
X142644033Y-65253218D01*
X142644572Y-65286876D01*
X142645541Y-65317880D01*
X142646918Y-65344881D01*
X142648676Y-65366530D01*
X142650793Y-65381480D01*
X142651502Y-65384486D01*
X142661470Y-65405727D01*
X142677504Y-65422909D01*
X142697850Y-65435205D01*
X142720750Y-65441788D01*
X142744449Y-65441831D01*
X142762456Y-65436751D01*
X142777097Y-65427660D01*
X142791659Y-65414150D01*
X142803180Y-65399238D01*
X142807364Y-65390978D01*
X142808602Y-65383369D01*
X142809649Y-65368124D01*
X142810482Y-65346070D01*
X142811075Y-65318034D01*
X142811403Y-65284842D01*
X142811457Y-65253440D01*
X142812667Y-65160659D01*
X142816813Y-65073898D01*
X142824190Y-64991297D01*
X142835090Y-64911000D01*
X142849807Y-64831148D01*
X142868636Y-64749884D01*
X142891870Y-64665350D01*
X142917596Y-64582458D01*
X142933563Y-64531616D01*
X142946313Y-64486682D01*
X142956157Y-64445870D01*
X142963407Y-64407393D01*
X142968375Y-64369468D01*
X142971373Y-64330307D01*
X142972713Y-64288126D01*
X142972858Y-64266120D01*
X142970164Y-64188875D01*
X142961797Y-64116439D01*
X142947329Y-64046978D01*
X142926333Y-63978659D01*
X142898381Y-63909647D01*
X142881320Y-63873616D01*
X142849376Y-63809085D01*
X142931219Y-63667337D01*
X142949432Y-63635932D01*
X142966371Y-63606995D01*
X142981565Y-63581308D01*
X142994543Y-63559656D01*
X143004834Y-63542823D01*
X143011968Y-63531593D01*
X143015474Y-63526749D01*
X143015714Y-63526619D01*
X143020761Y-63530839D01*
X143029990Y-63540686D01*
X143042485Y-63555028D01*
X143057332Y-63572733D01*
X143073614Y-63592673D01*
X143090418Y-63613714D01*
X143106827Y-63634727D01*
X143121926Y-63654580D01*
X143134801Y-63672143D01*
X143142854Y-63683738D01*
X143188492Y-63758970D01*
X143226098Y-63836320D01*
X143255773Y-63916129D01*
X143277618Y-63998738D01*
X143291736Y-64084488D01*
X143298227Y-64173719D01*
X143298716Y-64206873D01*
X143296940Y-64271930D01*
X143291373Y-64334083D01*
X143281653Y-64395177D01*
X143267421Y-64457052D01*
X143248317Y-64521552D01*
X143223980Y-64590518D01*
X143223429Y-64591978D01*
X143192651Y-64677790D01*
X143167081Y-64759077D01*
X143146328Y-64837662D01*
X143130001Y-64915368D01*
X143117708Y-64994018D01*
X143109060Y-65075433D01*
X143104328Y-65147255D01*
X143102547Y-65267607D01*
X143109121Y-65387251D01*
X143123965Y-65505791D01*
X143146996Y-65622833D01*
X143178131Y-65737979D01*
X143217288Y-65850834D01*
X143264382Y-65961002D01*
X143283320Y-66000041D01*
X143329540Y-66086741D01*
X143378770Y-66167811D01*
X143432148Y-66244826D01*
X143490812Y-66319360D01*
X143555899Y-66392988D01*
X143601756Y-66440670D01*
X143678687Y-66518302D01*
X143674394Y-66533772D01*
X143672536Y-66545954D01*
X143671838Y-66562819D01*
X143672418Y-66580109D01*
X143679218Y-66616464D01*
X143693541Y-66649692D01*
X143714729Y-66678842D01*
X143742125Y-66702962D01*
X143767509Y-66717734D01*
X143781158Y-66723891D01*
X143792500Y-66727823D01*
X143804198Y-66730023D01*
X143818912Y-66730981D01*
X143839304Y-66731189D01*
X143840402Y-66731188D01*
X143861303Y-66730957D01*
X143876277Y-66729999D01*
X143887859Y-66727873D01*
X143898580Y-66724139D01*
X143909236Y-66719212D01*
X143939477Y-66699935D01*
X143965738Y-66674304D01*
X143986234Y-66644138D01*
X143989750Y-66637162D01*
X143996274Y-66622599D01*
X144000287Y-66610578D01*
X144002375Y-66598094D01*
X144003122Y-66582139D01*
X144003166Y-66568286D01*
X144001228Y-66535680D01*
X143995138Y-66508560D01*
X143984039Y-66484615D01*
X143967071Y-66461532D01*
X143960983Y-66454726D01*
X143933195Y-66430434D01*
X143901584Y-66412830D01*
X143867514Y-66402450D01*
X143832351Y-66399830D01*
X143822960Y-66400511D01*
X143798634Y-66403054D01*
X143731398Y-66336495D01*
X143651578Y-66252014D01*
X143579415Y-66164127D01*
X143514830Y-66072670D01*
X143457745Y-65977483D01*
X143408080Y-65878403D01*
X143365758Y-65775270D01*
X143330700Y-65667920D01*
X143302827Y-65556194D01*
X143282061Y-65439928D01*
X143276722Y-65400276D01*
X143274573Y-65376863D01*
X143272948Y-65346602D01*
X143271837Y-65311091D01*
X143271230Y-65271929D01*
X143271160Y-65246509D01*
X143529022Y-65246509D01*
X143529945Y-65285328D01*
X143531119Y-65306859D01*
X143542388Y-65413082D01*
X143561571Y-65516395D01*
X143588630Y-65616693D01*
X143623526Y-65713871D01*
X143666222Y-65807822D01*
X143716681Y-65898441D01*
X143771664Y-65981196D01*
X143822246Y-66045979D01*
X143879751Y-66109891D01*
X143942653Y-66171515D01*
X144009429Y-66229434D01*
X144078553Y-66282231D01*
X144138753Y-66322481D01*
X144171139Y-66341510D01*
X144209137Y-66361935D01*
X144250295Y-66382569D01*
X144292163Y-66402228D01*
X144332292Y-66419727D01*
X144368231Y-66433879D01*
X144371485Y-66435060D01*
X144469423Y-66466068D01*
X144568816Y-66489336D01*
X144668879Y-66504755D01*
X144768822Y-66512216D01*
X144867859Y-66511612D01*
X144908591Y-66508961D01*
X144998859Y-66498638D01*
X145084857Y-66482783D01*
X145169122Y-66460895D01*
X145200653Y-66451074D01*
X145298707Y-66414860D01*
X145392395Y-66371570D01*
X145481445Y-66321530D01*
X145565589Y-66265070D01*
X145644557Y-66202518D01*
X145718079Y-66134203D01*
X145785885Y-66060453D01*
X145847706Y-65981597D01*
X145903272Y-65897963D01*
X145952313Y-65809880D01*
X145994560Y-65717676D01*
X146029743Y-65621680D01*
X146057592Y-65522220D01*
X146077837Y-65419626D01*
X146084107Y-65374884D01*
X146086200Y-65351871D01*
X146087772Y-65322278D01*
X146088824Y-65287976D01*
X146089355Y-65250832D01*
X146089366Y-65212715D01*
X146088856Y-65175495D01*
X146087825Y-65141040D01*
X146086274Y-65111218D01*
X146084202Y-65087900D01*
X146084107Y-65087113D01*
X146067120Y-64983023D01*
X146042252Y-64881658D01*
X146009714Y-64783373D01*
X145969716Y-64688523D01*
X145922467Y-64597464D01*
X145868179Y-64510551D01*
X145807060Y-64428140D01*
X145739321Y-64350584D01*
X145665173Y-64278241D01*
X145584825Y-64211465D01*
X145551914Y-64187051D01*
X145467632Y-64131684D01*
X145379108Y-64083394D01*
X145286954Y-64042324D01*
X145191785Y-64008620D01*
X145094212Y-63982425D01*
X144994851Y-63963883D01*
X144894315Y-63953140D01*
X144793217Y-63950340D01*
X144692170Y-63955627D01*
X144611761Y-63965779D01*
X144510211Y-63986266D01*
X144411091Y-64014719D01*
X144314855Y-64050875D01*
X144221958Y-64094469D01*
X144132853Y-64145238D01*
X144047995Y-64202919D01*
X143967837Y-64267248D01*
X143892834Y-64337961D01*
X143823439Y-64414795D01*
X143809730Y-64431548D01*
X143787123Y-64460536D01*
X143770101Y-64484504D01*
X143758167Y-64504320D01*
X143750822Y-64520847D01*
X143747568Y-64534952D01*
X143747300Y-64540024D01*
X143751001Y-64565841D01*
X143761278Y-64588041D01*
X143776890Y-64605800D01*
X143796598Y-64618294D01*
X143819161Y-64624699D01*
X143843340Y-64624190D01*
X143864198Y-64617724D01*
X143878038Y-64609242D01*
X143890367Y-64598201D01*
X143892536Y-64595600D01*
X143934734Y-64542001D01*
X143974394Y-64494844D01*
X144012705Y-64452972D01*
X144050857Y-64415229D01*
X144090041Y-64380457D01*
X144131445Y-64347499D01*
X144176260Y-64315200D01*
X144191929Y-64304536D01*
X144273145Y-64254775D01*
X144357464Y-64212627D01*
X144445337Y-64177914D01*
X144537213Y-64150459D01*
X144632064Y-64130336D01*
X144660699Y-64126403D01*
X144695726Y-64123177D01*
X144735098Y-64120717D01*
X144776770Y-64119081D01*
X144818693Y-64118329D01*
X144858821Y-64118520D01*
X144895108Y-64119712D01*
X144924912Y-64121903D01*
X144958842Y-64126236D01*
X144996172Y-64132443D01*
X145035387Y-64140152D01*
X145074970Y-64148989D01*
X145113408Y-64158579D01*
X145149183Y-64168549D01*
X145180780Y-64178525D01*
X145206683Y-64188134D01*
X145222059Y-64195184D01*
X145233607Y-64201235D01*
X144701385Y-64750601D01*
X144634566Y-64819588D01*
X144573418Y-64882756D01*
X144517707Y-64940351D01*
X144467200Y-64992618D01*
X144421665Y-65039804D01*
X144380867Y-65082154D01*
X144344575Y-65119914D01*
X144312554Y-65153331D01*
X144284572Y-65182649D01*
X144260396Y-65208115D01*
X144239792Y-65229974D01*
X144222528Y-65248473D01*
X144208370Y-65263857D01*
X144197084Y-65276372D01*
X144188439Y-65286265D01*
X144182201Y-65293779D01*
X144178136Y-65299163D01*
X144176012Y-65302660D01*
X144175595Y-65304518D01*
X144175816Y-65304832D01*
X144181317Y-65306131D01*
X144194759Y-65308004D01*
X144215643Y-65310402D01*
X144243470Y-65313276D01*
X144277741Y-65316578D01*
X144317955Y-65320260D01*
X144363614Y-65324273D01*
X144414218Y-65328568D01*
X144456846Y-65332087D01*
X144504271Y-65335974D01*
X144549249Y-65339691D01*
X144591064Y-65343177D01*
X144628999Y-65346372D01*
X144662335Y-65349214D01*
X144690356Y-65351641D01*
X144712345Y-65353593D01*
X144727584Y-65355008D01*
X144735357Y-65355824D01*
X144736182Y-65355958D01*
X144735251Y-65360002D01*
X144730956Y-65371472D01*
X144723420Y-65390079D01*
X144712767Y-65415538D01*
X144699122Y-65447562D01*
X144682607Y-65485864D01*
X144663347Y-65530158D01*
X144641466Y-65580156D01*
X144617088Y-65635573D01*
X144590336Y-65696121D01*
X144561335Y-65761514D01*
X144546606Y-65794643D01*
X144520997Y-65852246D01*
X144496362Y-65907760D01*
X144472918Y-65960686D01*
X144450885Y-66010526D01*
X144430480Y-66056785D01*
X144411921Y-66098963D01*
X144395428Y-66136563D01*
X144381219Y-66169089D01*
X144369513Y-66196042D01*
X144360527Y-66216925D01*
X144354480Y-66231241D01*
X144351591Y-66238492D01*
X144351367Y-66239254D01*
X144350157Y-66245547D01*
X144349372Y-66246660D01*
X144344100Y-66244713D01*
X144332961Y-66239405D01*
X144317459Y-66231537D01*
X144299097Y-66221909D01*
X144279378Y-66211322D01*
X144259806Y-66200577D01*
X144241884Y-66190474D01*
X144227115Y-66181813D01*
X144223879Y-66179836D01*
X144150761Y-66130033D01*
X144080330Y-66072997D01*
X144013668Y-66009803D01*
X143951855Y-65941527D01*
X143895971Y-65869245D01*
X143863800Y-65821352D01*
X143847587Y-65794043D01*
X143829710Y-65761072D01*
X143811304Y-65724764D01*
X143793501Y-65687447D01*
X143777434Y-65651446D01*
X143764235Y-65619087D01*
X143760756Y-65609756D01*
X143748091Y-65571591D01*
X143735540Y-65527984D01*
X143723868Y-65481934D01*
X143713834Y-65436439D01*
X143706447Y-65396044D01*
X143703480Y-65371698D01*
X143701174Y-65341000D01*
X143699528Y-65305618D01*
X143698544Y-65267219D01*
X143698224Y-65227470D01*
X143698569Y-65188038D01*
X143699579Y-65150592D01*
X143701258Y-65116797D01*
X143703604Y-65088322D01*
X143706191Y-65069173D01*
X143710508Y-65042303D01*
X143712656Y-65021785D01*
X143712619Y-65005782D01*
X143710380Y-64992461D01*
X143705920Y-64979986D01*
X143705349Y-64978708D01*
X143692387Y-64959518D01*
X143673930Y-64944500D01*
X143652179Y-64934851D01*
X143629336Y-64931768D01*
X143620585Y-64932607D01*
X143598542Y-64939769D01*
X143578449Y-64952525D01*
X143562911Y-64969001D01*
X143557846Y-64977661D01*
X143551698Y-64995197D01*
X143546069Y-65019899D01*
X143541061Y-65050479D01*
X143536781Y-65085652D01*
X143533333Y-65124128D01*
X143530820Y-65164621D01*
X143529348Y-65205844D01*
X143529022Y-65246509D01*
X143271160Y-65246509D01*
X143271117Y-65230714D01*
X143271489Y-65189046D01*
G37*
G36*
X145721184Y-61912649D02*
G01*
X145727374Y-61922484D01*
X145736478Y-61937534D01*
X145747876Y-61956720D01*
X145760942Y-61978963D01*
X145775056Y-62003186D01*
X145789593Y-62028311D01*
X145803931Y-62053259D01*
X145817448Y-62076952D01*
X145829520Y-62098313D01*
X145839524Y-62116262D01*
X145846838Y-62129722D01*
X145850839Y-62137615D01*
X145851397Y-62139094D01*
X145849060Y-62143649D01*
X145842299Y-62153220D01*
X145832175Y-62166376D01*
X145820572Y-62180694D01*
X145807078Y-62196854D01*
X145797572Y-62207528D01*
X145790654Y-62213761D01*
X145784926Y-62216596D01*
X145778991Y-62217077D01*
X145772724Y-62216413D01*
X145748899Y-62216203D01*
X145721855Y-62220609D01*
X145695016Y-62228995D01*
X145687472Y-62232212D01*
X145657881Y-62250099D01*
X145632719Y-62273936D01*
X145612733Y-62302330D01*
X145598674Y-62333886D01*
X145591289Y-62367210D01*
X145591328Y-62400907D01*
X145592543Y-62408993D01*
X145602841Y-62444248D01*
X145619684Y-62475676D01*
X145642083Y-62502565D01*
X145669054Y-62524202D01*
X145699607Y-62539875D01*
X145732757Y-62548872D01*
X145767517Y-62550480D01*
X145785462Y-62548241D01*
X145820348Y-62537886D01*
X145851399Y-62520971D01*
X145877912Y-62498506D01*
X145899185Y-62471500D01*
X145914514Y-62440961D01*
X145923196Y-62407899D01*
X145924529Y-62373322D01*
X145921623Y-62352805D01*
X145915721Y-62324811D01*
X145942249Y-62293213D01*
X146008654Y-62408192D01*
X146025007Y-62436554D01*
X146039958Y-62462576D01*
X146052990Y-62485349D01*
X146063585Y-62503966D01*
X146071226Y-62517520D01*
X146075397Y-62525103D01*
X146076016Y-62526364D01*
X146073747Y-62530836D01*
X146066568Y-62540671D01*
X146055261Y-62554970D01*
X146040606Y-62572831D01*
X146023385Y-62593355D01*
X146004379Y-62615640D01*
X145984371Y-62638787D01*
X145964141Y-62661894D01*
X145944470Y-62684060D01*
X145926140Y-62704386D01*
X145909933Y-62721971D01*
X145896630Y-62735914D01*
X145887012Y-62745315D01*
X145883407Y-62748348D01*
X145846805Y-62771757D01*
X145810610Y-62787615D01*
X145773009Y-62796539D01*
X145734188Y-62799157D01*
X145718863Y-62798890D01*
X145705520Y-62797877D01*
X145692196Y-62795706D01*
X145676932Y-62791967D01*
X145657766Y-62786247D01*
X145632737Y-62778136D01*
X145630506Y-62777399D01*
X145532088Y-62746752D01*
X145435225Y-62720567D01*
X145337934Y-62698428D01*
X145238233Y-62679923D01*
X145134143Y-62664636D01*
X145038037Y-62653588D01*
X145014216Y-62651689D01*
X144983459Y-62650040D01*
X144947288Y-62648660D01*
X144907228Y-62647567D01*
X144864802Y-62646777D01*
X144821533Y-62646309D01*
X144778946Y-62646182D01*
X144738563Y-62646411D01*
X144701909Y-62647016D01*
X144670508Y-62648014D01*
X144650816Y-62649065D01*
X144499615Y-62663319D01*
X144351431Y-62685480D01*
X144206255Y-62715550D01*
X144064080Y-62753529D01*
X143954664Y-62788853D01*
X143930779Y-62797070D01*
X143912750Y-62802848D01*
X143898468Y-62806608D01*
X143885824Y-62808773D01*
X143872706Y-62809763D01*
X143857007Y-62809998D01*
X143848866Y-62809972D01*
X143814289Y-62808422D01*
X143786481Y-62804245D01*
X143779040Y-62802332D01*
X143737735Y-62786486D01*
X143697879Y-62763902D01*
X143684902Y-62754738D01*
X143676909Y-62747709D01*
X143664913Y-62735832D01*
X143649963Y-62720274D01*
X143633109Y-62702202D01*
X143615400Y-62682783D01*
X143597887Y-62663184D01*
X143581618Y-62644573D01*
X143567642Y-62628116D01*
X143557010Y-62614982D01*
X143550771Y-62606336D01*
X143549752Y-62604427D01*
X143551336Y-62599840D01*
X143556595Y-62589097D01*
X143564917Y-62573270D01*
X143575689Y-62553437D01*
X143588298Y-62530670D01*
X143602130Y-62506046D01*
X143616572Y-62480638D01*
X143631012Y-62455523D01*
X143644835Y-62431774D01*
X143657429Y-62410467D01*
X143668180Y-62392676D01*
X143676476Y-62379476D01*
X143681703Y-62371943D01*
X143683148Y-62370591D01*
X143686567Y-62373784D01*
X143694641Y-62382541D01*
X143706567Y-62395952D01*
X143721543Y-62413109D01*
X143738766Y-62433106D01*
X143749416Y-62445584D01*
X143773061Y-62473118D01*
X143792273Y-62494766D01*
X143807880Y-62511276D01*
X143820710Y-62523393D01*
X143831592Y-62531863D01*
X143841352Y-62537432D01*
X143850819Y-62540846D01*
X143856574Y-62542146D01*
X143862296Y-62543107D01*
X143867791Y-62543473D01*
X143874224Y-62542969D01*
X143882762Y-62541320D01*
X143894568Y-62538252D01*
X143910808Y-62533490D01*
X143932646Y-62526760D01*
X143961248Y-62517786D01*
X143965244Y-62516528D01*
X144102609Y-62477462D01*
X144243592Y-62445446D01*
X144387300Y-62420533D01*
X144532842Y-62402778D01*
X144679326Y-62392236D01*
X144825861Y-62388961D01*
X144971554Y-62393008D01*
X145115515Y-62404431D01*
X145256850Y-62423285D01*
X145317343Y-62433831D01*
X145348231Y-62439055D01*
X145372504Y-62441625D01*
X145391639Y-62441362D01*
X145407114Y-62438090D01*
X145420407Y-62431630D01*
X145432996Y-62421807D01*
X145435284Y-62419684D01*
X145451499Y-62398982D01*
X145460032Y-62375495D01*
X145460620Y-62350455D01*
X145454679Y-62328879D01*
X145446290Y-62312410D01*
X145435759Y-62299714D01*
X145421666Y-62289922D01*
X145402593Y-62282164D01*
X145377120Y-62275570D01*
X145363060Y-62272726D01*
X145214283Y-62248580D01*
X145063070Y-62232269D01*
X144910103Y-62223758D01*
X144756067Y-62223013D01*
X144601642Y-62230001D01*
X144447512Y-62244686D01*
X144294360Y-62267035D01*
X144142868Y-62297013D01*
X143993720Y-62334588D01*
X143966338Y-62342398D01*
X143943918Y-62348879D01*
X143924465Y-62354438D01*
X143909377Y-62358680D01*
X143900051Y-62361211D01*
X143897707Y-62361755D01*
X143894202Y-62358674D01*
X143886275Y-62350180D01*
X143874878Y-62337396D01*
X143860966Y-62321447D01*
X143845492Y-62303457D01*
X143829409Y-62284549D01*
X143813672Y-62265847D01*
X143799234Y-62248476D01*
X143787048Y-62233558D01*
X143778069Y-62222218D01*
X143773249Y-62215580D01*
X143772692Y-62214421D01*
X143774721Y-62209890D01*
X143780392Y-62199188D01*
X143789081Y-62183399D01*
X143800162Y-62163610D01*
X143813012Y-62140908D01*
X143827004Y-62116379D01*
X143841516Y-62091109D01*
X143855920Y-62066184D01*
X143869594Y-62042691D01*
X143881913Y-62021716D01*
X143892251Y-62004344D01*
X143899984Y-61991664D01*
X143904487Y-61984759D01*
X143905313Y-61983818D01*
X143908829Y-61986474D01*
X143916509Y-61994290D01*
X143927088Y-62005936D01*
X143935228Y-62015288D01*
X143955012Y-62036284D01*
X143972930Y-62050362D01*
X143990429Y-62058394D01*
X144008955Y-62061252D01*
X144011555Y-62061289D01*
X144020289Y-62060383D01*
X144035629Y-62057871D01*
X144055934Y-62054057D01*
X144079565Y-62049248D01*
X144101398Y-62044527D01*
X144193998Y-62025372D01*
X144287256Y-62009007D01*
X144383350Y-61995101D01*
X144484458Y-61983324D01*
X144538670Y-61978029D01*
X144567593Y-61975894D01*
X144603504Y-61974082D01*
X144645041Y-61972601D01*
X144690847Y-61971454D01*
X144739561Y-61970649D01*
X144789825Y-61970191D01*
X144840278Y-61970086D01*
X144889562Y-61970341D01*
X144936317Y-61970960D01*
X144979184Y-61971949D01*
X145016802Y-61973316D01*
X145047814Y-61975064D01*
X145057080Y-61975787D01*
X145210939Y-61991899D01*
X145358371Y-62013332D01*
X145487589Y-62037586D01*
X145517973Y-62043771D01*
X145542296Y-62047783D01*
X145562009Y-62049075D01*
X145578565Y-62047100D01*
X145593414Y-62041312D01*
X145608009Y-62031163D01*
X145623799Y-62016108D01*
X145642238Y-61995600D01*
X145662590Y-61971679D01*
X145679108Y-61952300D01*
X145693831Y-61935368D01*
X145705876Y-61921873D01*
X145714360Y-61912799D01*
X145718401Y-61909136D01*
X145718533Y-61909105D01*
X145721184Y-61912649D01*
G37*
G36*
X147811366Y-65535657D02*
G01*
X147815632Y-65541015D01*
X147821678Y-65549980D01*
X147829872Y-65563113D01*
X147840579Y-65580973D01*
X147854166Y-65604121D01*
X147870998Y-65633119D01*
X147891444Y-65668526D01*
X147906975Y-65695472D01*
X147927120Y-65730553D01*
X147945963Y-65763608D01*
X147963079Y-65793870D01*
X147978042Y-65820576D01*
X147990425Y-65842961D01*
X147999802Y-65860260D01*
X148005748Y-65871709D01*
X148007820Y-65876419D01*
X148007520Y-65884319D01*
X148005253Y-65899287D01*
X148001268Y-65920221D01*
X147995810Y-65946020D01*
X147989126Y-65975582D01*
X147981462Y-66007805D01*
X147973065Y-66041589D01*
X147964181Y-66075831D01*
X147958329Y-66097569D01*
X147910736Y-66255703D01*
X147855287Y-66410745D01*
X147792068Y-66562532D01*
X147721167Y-66710899D01*
X147642670Y-66855681D01*
X147556662Y-66996713D01*
X147463230Y-67133832D01*
X147362461Y-67266872D01*
X147313497Y-67326858D01*
X147275490Y-67372351D01*
X147102598Y-67372351D01*
X147065274Y-67372293D01*
X147030717Y-67372128D01*
X146999813Y-67371867D01*
X146973450Y-67371523D01*
X146952513Y-67371110D01*
X146937889Y-67370639D01*
X146930464Y-67370124D01*
X146929706Y-67369893D01*
X146932480Y-67366202D01*
X146940208Y-67357365D01*
X146952004Y-67344359D01*
X146966980Y-67328163D01*
X146984247Y-67309754D01*
X146986402Y-67307472D01*
X147022520Y-67268910D01*
X147054257Y-67234152D01*
X147083373Y-67201178D01*
X147111630Y-67167970D01*
X147140789Y-67132508D01*
X147161538Y-67106693D01*
X147255960Y-66981712D01*
X147343710Y-66851920D01*
X147424600Y-66717756D01*
X147498445Y-66579659D01*
X147565057Y-66438068D01*
X147624249Y-66293421D01*
X147675834Y-66146158D01*
X147719626Y-65996717D01*
X147755438Y-65845537D01*
X147783082Y-65693057D01*
X147792752Y-65624567D01*
X147795988Y-65599916D01*
X147799099Y-65577068D01*
X147801830Y-65557847D01*
X147803923Y-65544075D01*
X147804787Y-65539080D01*
X147805592Y-65535617D01*
X147806712Y-65533519D01*
X147808515Y-65533345D01*
X147811366Y-65535657D01*
G37*
G36*
X143762112Y-67746877D02*
G01*
X143787353Y-67759572D01*
X143816727Y-67778607D01*
X143843144Y-67803969D01*
X143864567Y-67833573D01*
X143870651Y-67844838D01*
X143884838Y-67873656D01*
X143884838Y-68514881D01*
X143884824Y-68604726D01*
X143884782Y-68686454D01*
X143884709Y-68760415D01*
X143884601Y-68826955D01*
X143884456Y-68886424D01*
X143884271Y-68939168D01*
X143884043Y-68985536D01*
X143883769Y-69025876D01*
X143883447Y-69060535D01*
X143883073Y-69089863D01*
X143882645Y-69114205D01*
X143882160Y-69133911D01*
X143881615Y-69149329D01*
X143881008Y-69160805D01*
X143880334Y-69168690D01*
X143879592Y-69173329D01*
X143879447Y-69173859D01*
X143868414Y-69199174D01*
X143851473Y-69224626D01*
X143830686Y-69247505D01*
X143811691Y-69262804D01*
X143796210Y-69272482D01*
X143781059Y-69280805D01*
X143769487Y-69285989D01*
X143769372Y-69286029D01*
X143765297Y-69286858D01*
X143757880Y-69287612D01*
X143746745Y-69288297D01*
X143731518Y-69288915D01*
X143711823Y-69289473D01*
X143687285Y-69289974D01*
X143657529Y-69290422D01*
X143622179Y-69290823D01*
X143580860Y-69291180D01*
X143533198Y-69291499D01*
X143478817Y-69291783D01*
X143417342Y-69292037D01*
X143348398Y-69292265D01*
X143271608Y-69292473D01*
X143217252Y-69292599D01*
X142680856Y-69293771D01*
X142680856Y-69120136D01*
X142854364Y-69120136D01*
X143244759Y-69120112D01*
X143319871Y-69120067D01*
X143386735Y-69119941D01*
X143445567Y-69119731D01*
X143496583Y-69119434D01*
X143539999Y-69119048D01*
X143576031Y-69118571D01*
X143604894Y-69117999D01*
X143626804Y-69117331D01*
X143641977Y-69116564D01*
X143650630Y-69115696D01*
X143652068Y-69115393D01*
X143669138Y-69107216D01*
X143685944Y-69093478D01*
X143699907Y-69076758D01*
X143708447Y-69059637D01*
X143708702Y-69058759D01*
X143709365Y-69052159D01*
X143709982Y-69037730D01*
X143710550Y-69016102D01*
X143711072Y-68987908D01*
X143711545Y-68953781D01*
X143711970Y-68914353D01*
X143712346Y-68870255D01*
X143712673Y-68822120D01*
X143712950Y-68770581D01*
X143713178Y-68716269D01*
X143713356Y-68659817D01*
X143713484Y-68601857D01*
X143713560Y-68543021D01*
X143713586Y-68483941D01*
X143713560Y-68425250D01*
X143713483Y-68367581D01*
X143713353Y-68311564D01*
X143713171Y-68257832D01*
X143712936Y-68207019D01*
X143712649Y-68159755D01*
X143712307Y-68116673D01*
X143711912Y-68078405D01*
X143711463Y-68045584D01*
X143710960Y-68018842D01*
X143710401Y-67998810D01*
X143709788Y-67986122D01*
X143709276Y-67981748D01*
X143700845Y-67963549D01*
X143686904Y-67945679D01*
X143669983Y-67931115D01*
X143662421Y-67926611D01*
X143659461Y-67925203D01*
X143656093Y-67923963D01*
X143651789Y-67922881D01*
X143646023Y-67921945D01*
X143638269Y-67921145D01*
X143628001Y-67920470D01*
X143614691Y-67919910D01*
X143597814Y-67919454D01*
X143576843Y-67919091D01*
X143551251Y-67918811D01*
X143520513Y-67918603D01*
X143484102Y-67918456D01*
X143441491Y-67918360D01*
X143392154Y-67918304D01*
X143335564Y-67918278D01*
X143271195Y-67918270D01*
X142854364Y-67918270D01*
X142854364Y-69120136D01*
X142680856Y-69120136D01*
X142680856Y-67744635D01*
X143762112Y-67746877D01*
G37*
G36*
X146873234Y-63908291D02*
G01*
X146879739Y-63918834D01*
X146889531Y-63935149D01*
X146902146Y-63956451D01*
X146917120Y-63981955D01*
X146933990Y-64010876D01*
X146952292Y-64042431D01*
X146959863Y-64055535D01*
X147045995Y-64204757D01*
X147049033Y-64245640D01*
X147052946Y-64282452D01*
X147058702Y-64313781D01*
X147066079Y-64338699D01*
X147074853Y-64356279D01*
X147076084Y-64357977D01*
X147092320Y-64373331D01*
X147113066Y-64384558D01*
X147134840Y-64389834D01*
X147137137Y-64389972D01*
X147153543Y-64390626D01*
X147195032Y-64462597D01*
X147208735Y-64486363D01*
X147221792Y-64508999D01*
X147233305Y-64528948D01*
X147242375Y-64544656D01*
X147248056Y-64554480D01*
X147259592Y-64574393D01*
X147237861Y-64579053D01*
X147208093Y-64587756D01*
X147182628Y-64600852D01*
X147158282Y-64620045D01*
X147154382Y-64623696D01*
X147130777Y-64651579D01*
X147114340Y-64682522D01*
X147104938Y-64715398D01*
X147102431Y-64749081D01*
X147106686Y-64782443D01*
X147117564Y-64814359D01*
X147134930Y-64843703D01*
X147158647Y-64869347D01*
X147186509Y-64889016D01*
X147201131Y-64898657D01*
X147208915Y-64907596D01*
X147210798Y-64912791D01*
X147214419Y-64934992D01*
X147217757Y-64964429D01*
X147220774Y-64999875D01*
X147223430Y-65040106D01*
X147225685Y-65083896D01*
X147227500Y-65130020D01*
X147228836Y-65177252D01*
X147229653Y-65224368D01*
X147229912Y-65270142D01*
X147229574Y-65313348D01*
X147228598Y-65352762D01*
X147226947Y-65387158D01*
X147226334Y-65396044D01*
X147211380Y-65542022D01*
X147188564Y-65684868D01*
X147157881Y-65824604D01*
X147119324Y-65961249D01*
X147072885Y-66094827D01*
X147018558Y-66225357D01*
X146956337Y-66352861D01*
X146886214Y-66477361D01*
X146886095Y-66477559D01*
X146809013Y-66597419D01*
X146725242Y-66712303D01*
X146635086Y-66821919D01*
X146538846Y-66925972D01*
X146436827Y-67024170D01*
X146329331Y-67116219D01*
X146216661Y-67201827D01*
X146099120Y-67280700D01*
X145987944Y-67346506D01*
X145941552Y-67372293D01*
X145758521Y-67372322D01*
X145720083Y-67372255D01*
X145684386Y-67372051D01*
X145652294Y-67371725D01*
X145624667Y-67371293D01*
X145602367Y-67370770D01*
X145586255Y-67370171D01*
X145577193Y-67369512D01*
X145575491Y-67369065D01*
X145578118Y-67363904D01*
X145585247Y-67353812D01*
X145595746Y-67340179D01*
X145608484Y-67324393D01*
X145622331Y-67307840D01*
X145636155Y-67291910D01*
X145648826Y-67277990D01*
X145654450Y-67272143D01*
X145683780Y-67244029D01*
X145714431Y-67218065D01*
X145747902Y-67193169D01*
X145785691Y-67168258D01*
X145829297Y-67142253D01*
X145852437Y-67129228D01*
X145969527Y-67059607D01*
X146081426Y-66983476D01*
X146187902Y-66901087D01*
X146288722Y-66812698D01*
X146383655Y-66718561D01*
X146472468Y-66618931D01*
X146554931Y-66514064D01*
X146630810Y-66404213D01*
X146699873Y-66289633D01*
X146761890Y-66170579D01*
X146798292Y-66090962D01*
X146845856Y-65971584D01*
X146886055Y-65849989D01*
X146919088Y-65725414D01*
X146945153Y-65597094D01*
X146964451Y-65464267D01*
X146966451Y-65446827D01*
X146969256Y-65414915D01*
X146971447Y-65376211D01*
X146973025Y-65332365D01*
X146973988Y-65285026D01*
X146974339Y-65235844D01*
X146974076Y-65186467D01*
X146973200Y-65138547D01*
X146971712Y-65093731D01*
X146969611Y-65053670D01*
X146966898Y-65020013D01*
X146966389Y-65015171D01*
X146956046Y-64932648D01*
X146943233Y-64853057D01*
X146927543Y-64774665D01*
X146908569Y-64695739D01*
X146885905Y-64614544D01*
X146859143Y-64529348D01*
X146837272Y-64465021D01*
X146824416Y-64426999D01*
X146814533Y-64394222D01*
X146807248Y-64364474D01*
X146802188Y-64335538D01*
X146798978Y-64305197D01*
X146797244Y-64271236D01*
X146796614Y-64231436D01*
X146796589Y-64223801D01*
X146796783Y-64186059D01*
X146797694Y-64154717D01*
X146799580Y-64127724D01*
X146802701Y-64103029D01*
X146807318Y-64078581D01*
X146813689Y-64052329D01*
X146822074Y-64022221D01*
X146822123Y-64022053D01*
X146828120Y-64002871D01*
X146835337Y-63982101D01*
X146843178Y-63961191D01*
X146851050Y-63941591D01*
X146858356Y-63924751D01*
X146864501Y-63912119D01*
X146868891Y-63905144D01*
X146870479Y-63904303D01*
X146873234Y-63908291D01*
G37*
D12*
%TO.C,VR1*%
X122050000Y-53655000D02*
X126880000Y-53655000D01*
X126880000Y-63185000D02*
X122050000Y-63185000D01*
X122050000Y-63185000D02*
X122050000Y-53655000D01*
X126880000Y-53655000D02*
X126880000Y-63185000D01*
D13*
X124560000Y-53170000D02*
G75*
G03*
X124560000Y-53170000I-100000J0D01*
G01*
D11*
%TO.C,R1*%
X146280000Y-59150000D02*
X145950000Y-59150000D01*
X145950000Y-52610000D02*
X146280000Y-52610000D01*
X148690000Y-52610000D02*
X148360000Y-52610000D01*
X148690000Y-59150000D02*
X148690000Y-52610000D01*
X148360000Y-59150000D02*
X148690000Y-59150000D01*
X145950000Y-59150000D02*
X145950000Y-52610000D01*
D12*
%TO.C,J10*%
X172565617Y-67670729D02*
X162665617Y-67670729D01*
X162665617Y-62770729D02*
X172565617Y-62770729D01*
X172565617Y-62770729D02*
X172565617Y-67670729D01*
X162665617Y-67670729D02*
X162665617Y-62770729D01*
D13*
X173115617Y-64570729D02*
G75*
G03*
X173115617Y-64570729I-100000J0D01*
G01*
D11*
%TO.C,Q2*%
X118486000Y-24425000D02*
X118486000Y-26666000D01*
X108965000Y-24425000D02*
X110035000Y-24425000D01*
X108965000Y-26666000D02*
X110035000Y-26666000D01*
X123735000Y-26666000D02*
X124805000Y-26666000D01*
X118285000Y-26666000D02*
X120935000Y-26666000D01*
X112835000Y-26666000D02*
X115486000Y-26666000D01*
X108965000Y-29465000D02*
X124805000Y-29465000D01*
X108965000Y-24425000D02*
X108965000Y-29465000D01*
X118285000Y-24425000D02*
X120935000Y-24425000D01*
X123735000Y-24425000D02*
X124805000Y-24425000D01*
X115285000Y-24425000D02*
X115285000Y-26666000D01*
X112835000Y-24425000D02*
X115486000Y-24425000D01*
X124805000Y-24425000D02*
X124805000Y-29465000D01*
D12*
%TO.C,J1*%
X120760000Y-65270000D02*
X120760000Y-64270000D01*
X106810000Y-68820000D02*
X104010000Y-66370000D01*
X121260000Y-64770000D02*
X120260000Y-64770000D01*
X104010000Y-63170000D02*
X106810000Y-60720000D01*
X119510000Y-68820000D02*
X106810000Y-68820000D01*
X104010000Y-66370000D02*
X104010000Y-63170000D01*
X119510000Y-60720000D02*
X119510000Y-68820000D01*
X106810000Y-60720000D02*
X119510000Y-60720000D01*
X103260000Y-64770000D02*
X102260000Y-64770000D01*
%TO.C,J7*%
X162700740Y-46161093D02*
X172600740Y-46161093D01*
X172600740Y-51061093D02*
X162700740Y-51061093D01*
X172600740Y-46161093D02*
X172600740Y-51061093D01*
X162700740Y-51061093D02*
X162700740Y-46161093D01*
D13*
X173150740Y-47961093D02*
G75*
G03*
X173150740Y-47961093I-100000J0D01*
G01*
D11*
%TO.C,D1*%
X142240000Y-48130000D02*
X142240000Y-50620000D01*
X140770000Y-55160000D02*
X143710000Y-55160000D01*
X140770000Y-55040000D02*
X143710000Y-55040000D01*
X140770000Y-50620000D02*
X140770000Y-56060000D01*
X140770000Y-56060000D02*
X143710000Y-56060000D01*
X140770000Y-55280000D02*
X143710000Y-55280000D01*
X142240000Y-58550000D02*
X142240000Y-56060000D01*
X143710000Y-56060000D02*
X143710000Y-50620000D01*
X143710000Y-50620000D02*
X140770000Y-50620000D01*
%TO.C,U1*%
X131350000Y-50110000D02*
X132860000Y-50110000D01*
X131350000Y-53380000D02*
X131350000Y-43140000D01*
X131350000Y-43140000D02*
X135991000Y-43140000D01*
X132860000Y-53380000D02*
X132860000Y-43140000D01*
X135991000Y-53380000D02*
X135991000Y-43140000D01*
X131350000Y-53380000D02*
X135991000Y-53380000D01*
X131350000Y-46409000D02*
X132860000Y-46409000D01*
%TO.C,D3*%
X126820000Y-64570000D02*
X126820000Y-67510000D01*
X134750000Y-66040000D02*
X132260000Y-66040000D01*
X131240000Y-67510000D02*
X131240000Y-64570000D01*
X132260000Y-67510000D02*
X132260000Y-64570000D01*
X126820000Y-67510000D02*
X132260000Y-67510000D01*
X132260000Y-64570000D02*
X126820000Y-64570000D01*
X131480000Y-67510000D02*
X131480000Y-64570000D01*
X131360000Y-67510000D02*
X131360000Y-64570000D01*
X124330000Y-66040000D02*
X126820000Y-66040000D01*
D12*
%TO.C,J5*%
X162758592Y-34280780D02*
X162758592Y-29380780D01*
X162758592Y-29380780D02*
X172658592Y-29380780D01*
X172658592Y-29380780D02*
X172658592Y-34280780D01*
X172658592Y-34280780D02*
X162758592Y-34280780D01*
D13*
X173208592Y-31180780D02*
G75*
G03*
X173208592Y-31180780I-100000J0D01*
G01*
D12*
%TO.C,J4*%
X162705962Y-56616993D02*
X162705962Y-51716993D01*
X172605962Y-56616993D02*
X162705962Y-56616993D01*
X172605962Y-51716993D02*
X172605962Y-56616993D01*
X162705962Y-51716993D02*
X172605962Y-51716993D01*
D13*
X173155962Y-53516993D02*
G75*
G03*
X173155962Y-53516993I-100000J0D01*
G01*
D11*
%TO.C,R2*%
X131540000Y-38000000D02*
X131540000Y-38330000D01*
X125000000Y-38000000D02*
X131540000Y-38000000D01*
X125000000Y-40410000D02*
X125000000Y-40740000D01*
X125000000Y-38330000D02*
X125000000Y-38000000D01*
X125000000Y-40740000D02*
X131540000Y-40740000D01*
X131540000Y-40740000D02*
X131540000Y-40410000D01*
%TO.C,D4*%
X147539631Y-36593558D02*
X147539631Y-31153558D01*
X146069631Y-28663558D02*
X146069631Y-31153558D01*
X147539631Y-32053558D02*
X144599631Y-32053558D01*
X147539631Y-32173558D02*
X144599631Y-32173558D01*
X144599631Y-31153558D02*
X144599631Y-36593558D01*
X147539631Y-31933558D02*
X144599631Y-31933558D01*
X147539631Y-31153558D02*
X144599631Y-31153558D01*
X146069631Y-39083558D02*
X146069631Y-36593558D01*
X144599631Y-36593558D02*
X147539631Y-36593558D01*
D12*
%TO.C,J2*%
X158990000Y-25270000D02*
X158990000Y-37970000D01*
X150890000Y-25270000D02*
X158990000Y-25270000D01*
X154940000Y-41520000D02*
X154940000Y-42520000D01*
X150890000Y-37970000D02*
X150890000Y-25270000D01*
X156540000Y-40770000D02*
X153340000Y-40770000D01*
X155440000Y-24020000D02*
X154440000Y-24020000D01*
X153340000Y-40770000D02*
X150890000Y-37970000D01*
X154940000Y-23520000D02*
X154940000Y-24520000D01*
X158990000Y-37970000D02*
X156540000Y-40770000D01*
%TO.C,J9*%
X162729999Y-40601862D02*
X172629999Y-40601862D01*
X172629999Y-45501862D02*
X162729999Y-45501862D01*
X172629999Y-40601862D02*
X172629999Y-45501862D01*
X162729999Y-45501862D02*
X162729999Y-40601862D01*
D13*
X173179999Y-42401862D02*
G75*
G03*
X173179999Y-42401862I-100000J0D01*
G01*
%TD*%
M02*
