<?xml version="1.0" standalone="no"?>
<!DOCTYPE svg PUBLIC "-//W3C//DTD SVG 20010904//EN"
 "http://www.w3.org/TR/2001/REC-SVG-20010904/DTD/svg10.dtd">
<svg version="1.0" xmlns="http://www.w3.org/2000/svg"
 width="2363.000000pt" height="2363.000000pt" viewBox="0 0 2363.000000 2363.000000"
 preserveAspectRatio="xMidYMid meet">

<g transform="translate(0.000000,2363.000000) scale(0.100000,-0.100000)"
fill="#3d3f86" stroke="none">
<path d="M11580 21939 c-328 -37 -689 -181 -940 -374 -74 -57 -172 -146 -166
-152 2 -2 82 5 177 16 362 42 532 53 960 58 524 7 880 -12 1289 -66 l135 -19
24 24 25 23 -25 27 c-13 14 -64 56 -114 93 -387 289 -885 424 -1365 370z"/>
<path d="M13289 21081 c-94 -100 -101 -101 -352 -67 -437 59 -745 79 -1197 79
-471 0 -871 -29 -1264 -90 -175 -27 -272 -34 -316 -20 -24 7 -31 -4 -180 -264
-85 -148 -156 -274 -158 -279 -4 -12 99 -140 113 -140 6 0 88 16 183 35 916
186 1867 213 2792 79 148 -22 437 -72 505 -89 16 -4 43 23 130 127 61 72 114
139 118 148 7 13 -24 73 -115 231 -68 118 -140 237 -159 266 l-35 52 -65 -68z"/>
<path d="M13758 20090 c-70 -82 -142 -157 -160 -166 -51 -27 -116 -22 -333 23
-773 162 -1655 195 -2483 93 -265 -33 -446 -65 -855 -154 -58 -12 -76 -13
-120 -1 -46 12 -61 23 -128 95 l-76 83 -20 -34 c-11 -19 -82 -141 -157 -271
-121 -210 -136 -240 -124 -256 55 -76 284 -332 294 -328 39 15 351 101 474
130 554 134 1088 196 1675 196 409 0 765 -28 1145 -90 264 -44 277 -47 323
-89 49 -44 67 -85 67 -151 0 -92 -57 -165 -147 -189 -35 -10 -65 -7 -180 14
-395 72 -649 95 -1089 102 -383 6 -600 -3 -894 -38 -459 -54 -941 -159 -1324
-289 -180 -61 -204 -49 -412 196 -86 101 -158 183 -159 182 -4 -4 -288 -497
-304 -526 -11 -20 -2 -34 115 -170 145 -169 210 -228 309 -276 102 -51 190
-69 305 -63 80 4 115 12 222 50 677 244 1489 366 2242 337 594 -24 1117 -116
1676 -296 184 -59 208 -64 288 -64 52 0 111 7 143 16 76 23 176 75 227 119 37
32 404 457 426 493 5 8 -47 108 -138 265 -80 138 -151 260 -158 270 -13 17
-15 16 -42 -12 -29 -30 -29 -30 -16 -91 38 -178 -51 -355 -218 -438 -72 -35
-81 -37 -172 -37 -86 0 -101 3 -162 32 -194 92 -283 307 -209 503 40 105 134
197 241 236 25 9 81 18 125 19 l80 3 72 83 c40 46 73 88 73 92 0 8 -296 526
-308 539 -4 4 -64 -60 -134 -142z"/>
<path d="M14829 18272 c-227 -272 -328 -361 -502 -442 -113 -53 -230 -81 -363
-87 -142 -7 -204 4 -433 78 -527 170 -984 253 -1553 281 -694 33 -1467 -81
-2133 -316 -179 -64 -271 -80 -420 -73 -186 8 -350 60 -503 159 -111 73 -173
128 -274 247 -50 58 -94 107 -97 109 -4 1 -78 -120 -164 -270 l-158 -272 78
-79 c389 -395 952 -570 1477 -462 44 9 179 50 300 90 415 139 749 210 1206
257 193 20 745 17 955 -6 408 -43 723 -111 1126 -242 256 -83 340 -98 549 -98
194 -1 303 16 485 75 216 70 414 185 586 339 98 87 271 291 263 310 -5 15
-278 491 -299 522 -10 15 -27 -2 -126 -120z"/>
<path d="M15330 17341 c-90 -90 -181 -172 -240 -213 -469 -330 -1016 -453
-1545 -347 -55 11 -188 49 -295 84 -520 170 -984 245 -1511 245 -528 0 -1007
-79 -1520 -250 -114 -38 -242 -78 -285 -89 -198 -51 -436 -70 -629 -52 -458
44 -862 222 -1206 532 -58 52 -79 66 -86 56 -10 -11 -267 -457 -291 -503 -10
-18 7 -41 144 -200 300 -347 451 -602 569 -959 82 -246 122 -471 132 -745 13
-377 -50 -735 -201 -1127 -136 -358 -207 -639 -248 -998 -19 -167 -16 -627 5
-805 104 -857 471 -1602 1083 -2200 l149 -145 72 3 c93 5 164 -16 244 -71 118
-81 175 -199 167 -349 -5 -102 -36 -175 -102 -246 -194 -207 -526 -153 -653
106 -26 52 -28 67 -28 172 l-1 116 -154 155 c-466 465 -800 1008 -998 1619
-264 813 -266 1706 -5 2515 20 61 62 179 95 264 70 181 118 351 149 528 20
110 23 163 23 373 1 213 -2 262 -23 375 -65 363 -203 685 -410 959 -68 90
-221 266 -231 266 -4 0 -90 -143 -190 -317 -101 -175 -188 -325 -192 -333 -7
-11 5 -41 40 -103 104 -185 193 -452 226 -677 52 -361 21 -650 -114 -1066
-115 -354 -184 -664 -226 -1014 -13 -106 -18 -240 -20 -500 -2 -195 -6 -366
-9 -380 -10 -40 -53 -88 -97 -111 -33 -17 -55 -20 -105 -17 -69 4 -97 20 -146
81 -38 46 -46 115 -46 400 -2 589 80 1083 279 1692 74 228 100 359 107 548 9
231 -28 465 -104 654 l-29 73 -234 -407 c-200 -347 -237 -416 -247 -470 -6
-34 -36 -138 -67 -230 -215 -659 -299 -1166 -300 -1828 -1 -529 42 -898 165
-1393 207 -842 603 -1621 1169 -2303 132 -158 517 -543 680 -681 293 -246 633
-481 931 -642 l86 -46 598 0 599 0 -30 31 c-43 45 -187 150 -279 202 -44 26
-141 73 -215 105 -313 137 -540 262 -835 457 -656 436 -1190 1006 -1590 1695
-152 262 -337 670 -420 931 -28 85 -28 86 -82 114 -65 34 -137 111 -172 185
-23 48 -26 68 -26 160 0 99 2 109 33 172 42 85 105 148 190 190 62 31 74 33
167 33 93 0 105 -2 167 -33 86 -42 153 -109 192 -192 29 -60 31 -73 31 -170 0
-98 -2 -110 -32 -170 -17 -36 -47 -80 -66 -99 l-35 -33 28 -82 c77 -227 233
-571 359 -791 364 -636 880 -1186 1491 -1590 253 -167 448 -273 750 -407 193
-85 338 -168 477 -271 119 -88 325 -291 388 -380 l40 -57 438 0 438 0 -6 23
c-4 12 -33 72 -65 134 -264 507 -691 880 -1232 1077 -87 32 -148 132 -133 215
17 93 89 161 178 169 64 5 187 -38 377 -132 580 -287 1050 -805 1286 -1413
l28 -73 497 0 497 0 51 88 c97 163 184 275 326 418 190 191 262 243 610 439
1002 565 1776 1504 2144 2603 168 499 243 968 243 1507 0 576 -88 1071 -291
1634 -101 280 -135 467 -135 741 -1 204 12 315 54 490 52 212 134 411 239 579
l52 84 -147 256 c-81 141 -157 273 -168 293 -12 21 -24 37 -28 35 -8 -3 -444
-520 -502 -596 -267 -347 -377 -809 -295 -1238 29 -152 60 -237 168 -463 196
-406 293 -678 366 -1012 195 -906 21 -1948 -470 -2809 -412 -720 -1030 -1303
-1764 -1663 -243 -119 -495 -213 -731 -273 l-112 -28 -25 -49 c-35 -68 -112
-147 -177 -180 -199 -101 -439 -20 -538 182 -31 62 -33 73 -33 172 0 99 2 110
33 172 41 85 128 167 209 199 45 17 79 23 148 23 110 0 181 -24 252 -88 l48
-44 144 40 c201 55 387 125 591 224 395 192 691 403 1005 718 617 619 994
1422 1087 2316 18 172 15 548 -6 705 -56 430 -175 802 -406 1265 -74 150 -107
231 -145 365 -163 567 -37 1216 330 1700 33 44 185 228 337 408 l277 328 -126
217 c-69 119 -148 256 -175 305 -28 48 -51 87 -52 86 0 -1 -66 -67 -146 -148z
m-3510 -690 c104 -39 177 -110 228 -218 24 -51 27 -70 27 -158 0 -87 -4 -107
-27 -158 -37 -80 -117 -160 -197 -200 -61 -30 -73 -32 -166 -32 -92 0 -106 3
-167 32 -40 19 -89 53 -119 83 l-51 51 -111 -16 c-600 -87 -1182 -331 -1660
-695 -207 -157 -222 -167 -263 -173 -126 -21 -252 101 -229 222 13 69 42 106
150 192 560 444 1218 736 1895 839 74 12 149 23 165 25 22 4 36 15 49 40 25
46 101 117 157 146 96 50 220 58 319 20z m783 -262 c499 -103 971 -298 1402
-580 l121 -78 49 15 c79 25 200 14 278 -24 80 -40 150 -110 190 -192 30 -60
32 -72 32 -170 0 -95 -3 -111 -28 -162 -82 -166 -261 -261 -430 -228 -184 36
-316 184 -325 363 l-4 79 -97 63 c-391 255 -818 431 -1278 525 -118 25 -167
51 -201 110 -59 99 -22 223 80 274 63 31 81 32 211 5z m-443 -998 c669 -98
1247 -387 1720 -861 513 -512 815 -1157 881 -1880 16 -183 7 -523 -20 -700
-185 -1216 -1075 -2201 -2261 -2500 -274 -69 -524 -95 -824 -87 -583 16 -1104
181 -1586 502 -190 126 -313 227 -475 390 -509 510 -813 1167 -875 1890 -25
302 8 752 64 851 65 117 222 136 315 40 54 -56 62 -107 38 -256 -28 -177 -30
-592 -3 -765 23 -151 83 -391 131 -521 52 -142 192 -421 272 -544 198 -301
469 -570 774 -769 121 -79 324 -190 332 -181 13 13 927 2083 923 2088 -3 3
-291 29 -638 58 -348 29 -646 54 -663 56 -21 2 -30 8 -30 20 0 10 505 539
1125 1179 619 639 1182 1221 1252 1294 l128 133 -118 42 c-143 51 -346 101
-507 126 -150 24 -569 27 -710 6 -500 -75 -947 -268 -1320 -569 -129 -104
-329 -310 -432 -443 -45 -58 -92 -115 -104 -127 -81 -74 -229 -51 -290 45 -24
38 -29 57 -29 107 0 55 4 69 38 121 128 198 381 463 622 651 421 328 986 558
1505 612 55 6 116 13 135 15 92 11 501 -4 630 -23z"/>
<path d="M12355 13788 c-248 -551 -449 -1004 -449 -1007 1 -4 287 -27 635 -52
767 -57 703 -51 707 -70 2 -9 -506 -543 -1269 -1335 -699 -725 -1278 -1324
-1286 -1331 -14 -11 -9 -16 33 -34 191 -83 522 -166 758 -190 172 -17 517 -7
675 20 562 96 1045 344 1442 740 397 397 641 873 741 1447 20 113 22 163 22
414 0 307 -11 410 -69 639 -159 628 -543 1176 -1080 1540 -140 95 -370 221
-403 221 -4 0 -210 -451 -457 -1002z"/>
<path d="M16566 15435 c-101 -242 -143 -470 -133 -720 9 -211 39 -349 129
-595 148 -403 251 -889 287 -1349 14 -172 14 -587 1 -762 -75 -975 -419 -1895
-999 -2674 -437 -586 -981 -1061 -1631 -1425 -259 -145 -357 -216 -496 -363
-76 -80 -164 -187 -164 -200 0 -4 194 -7 432 -7 l431 0 86 46 c459 248 915
596 1316 1005 453 462 774 915 1056 1493 306 627 476 1230 556 1961 24 226 24
851 0 1084 -26 248 -22 233 -73 260 -24 13 -66 46 -94 74 -155 155 -155 403
-1 557 54 54 147 104 212 115 21 4 39 10 39 13 0 4 -54 99 -120 212 -95 164
-123 206 -142 208 -87 12 -152 53 -185 115 -21 41 -42 166 -43 250 l0 68 -207
359 c-115 198 -211 360 -214 360 -4 0 -23 -38 -43 -85z"/>
<path d="M17844 13272 l-40 -47 17 -155 c68 -603 42 -1250 -72 -1840 -290
-1492 -1121 -2820 -2329 -3724 -97 -72 -187 -139 -200 -148 -24 -16 1 -17 461
-17 l486 -1 119 109 c576 525 1061 1165 1425 1876 455 889 689 1771 739 2779
l11 219 -277 481 c-153 264 -283 489 -289 498 -10 15 -16 11 -51 -30z"/>
<path d="M5455 12882 c-126 -218 -274 -475 -328 -569 l-100 -173 12 -172 c100
-1475 647 -2827 1597 -3944 124 -145 573 -603 645 -657 l36 -27 482 2 481 3
-108 76 c-393 277 -812 667 -1137 1059 -469 564 -846 1234 -1080 1922 -224
657 -327 1273 -328 1968 -1 308 11 522 43 770 9 74 16 136 16 137 -1 1 -105
-177 -231 -395z"/>
<path d="M18815 11634 c-102 -883 -338 -1676 -730 -2454 -321 -634 -759 -1252
-1224 -1722 l-116 -118 411 0 411 0 39 43 c22 23 85 98 140 167 653 811 1121
1712 1409 2711 46 162 121 463 140 570 6 33 -9 63 -221 430 -125 217 -233 402
-240 413 -11 16 -13 11 -19 -40z"/>
<path d="M4480 11193 c-107 -185 -197 -341 -198 -345 -2 -5 20 -32 50 -61 168
-166 162 -419 -13 -582 -68 -62 -143 -94 -239 -101 -59 -5 -90 0 -186 31 -18
6 -26 -5 -66 -92 -92 -199 -148 -414 -169 -652 -18 -203 -12 -232 78 -444 140
-329 342 -723 534 -1044 72 -119 86 -137 152 -186 153 -115 352 -219 537 -281
149 -50 420 -102 420 -82 0 3 -55 78 -123 168 -426 567 -775 1186 -1043 1851
-71 176 -79 228 -45 295 66 129 238 150 326 40 15 -19 62 -119 104 -223 303
-742 705 -1412 1211 -2022 l101 -123 406 0 406 0 -49 53 c-27 28 -99 106 -161
172 -955 1025 -1601 2374 -1808 3780 -15 99 -28 181 -29 182 -1 1 -89 -149
-196 -334z"/>
<path d="M19556 10216 c-21 -77 -73 -247 -116 -376 -274 -833 -679 -1609
-1211 -2317 l-140 -186 88 7 c260 19 548 104 764 224 l84 47 88 140 c289 462
563 1012 762 1530 l57 150 -11 85 c-33 241 -129 505 -272 746 l-54 91 -39
-141z"/>
<path d="M3571 6427 c-24 -12 -57 -42 -75 -66 l-31 -43 0 -1697 0 -1697 28
-42 c15 -23 46 -52 70 -64 l42 -23 1348 -3 1347 -2 0 205 0 205 -1137 0
c-1086 0 -1140 1 -1178 19 -47 22 -89 64 -104 104 -15 39 -15 1335 0 1374 13
34 64 89 104 111 27 15 102 17 768 20 l737 3 0 199 0 200 -742 2 c-722 3 -744
4 -777 23 -19 11 -48 37 -65 58 l-31 39 0 283 0 283 31 39 c17 21 46 48 64 61
l33 22 1148 0 1149 0 0 205 0 205 -1343 0 -1344 0 -42 -23z"/>
<path d="M6710 4620 l0 -1830 1228 0 c843 0 1247 3 1287 11 164 30 294 160
324 324 15 82 15 2907 0 2991 -23 124 -119 247 -236 302 l-58 27 -1272 3
-1273 2 0 -1830z m2319 1406 c34 -18 99 -88 111 -122 11 -28 14 -2500 4 -2552
-9 -43 -69 -111 -118 -133 -39 -18 -89 -19 -973 -19 l-933 0 0 1420 0 1420
940 0 c798 0 945 -2 969 -14z"/>
<path d="M9962 4623 l3 -1828 203 -3 202 -2 0 1020 0 1020 813 0 c483 0 836
-4 872 -10 132 -21 250 -112 312 -238 l28 -57 3 -867 2 -868 205 0 205 0 0
830 c0 576 -3 845 -11 882 -32 148 -152 274 -298 311 l-55 14 40 7 c152 28
286 164 315 321 6 33 9 235 7 517 -3 459 -3 463 -26 521 -33 82 -125 177 -210
219 l-67 33 -1272 3 -1273 2 2 -1827z m2316 1403 c37 -20 99 -85 111 -119 17
-44 14 -509 -2 -550 -19 -44 -88 -104 -136 -117 -27 -7 -308 -9 -888 -8 -838
3 -848 3 -888 24 -22 11 -53 40 -70 63 l-30 43 -3 260 c-3 245 -2 262 18 302
23 48 51 77 95 100 27 14 131 16 898 16 730 0 872 -2 895 -14z"/>
<path d="M13505 6436 c-163 -52 -265 -176 -286 -349 -6 -52 -9 -608 -7 -1527
l3 -1445 22 -58 c30 -80 79 -145 143 -190 110 -76 30 -72 1215 -75 665 -2
1084 1 1124 7 134 21 245 105 304 229 l32 67 0 1525 0 1525 -31 66 c-41 85
-118 162 -203 203 l-66 31 -1105 2 c-873 1 -1113 -1 -1145 -11z m2042 -422
c26 -15 57 -45 74 -72 l29 -46 0 -1275 0 -1276 -23 -40 c-12 -21 -42 -53 -65
-70 l-44 -30 -872 -3 -872 -2 -45 23 c-24 13 -57 43 -74 66 l-30 43 0 1286 0
1287 24 39 c13 21 45 51 70 67 l45 29 870 0 869 0 44 -26z"/>
<path d="M16759 6436 c-107 -29 -203 -110 -253 -216 l-31 -65 -3 -1682 -2
-1683 200 0 200 0 0 1625 0 1625 610 0 610 0 2 -1622 3 -1623 203 -3 202 -2 0
1625 0 1625 610 0 610 0 0 -1625 0 -1625 200 0 200 0 -2 1683 -3 1682 -27 57
c-49 104 -148 190 -257 222 -47 14 -133 16 -616 16 l-562 0 -44 -23 c-24 -13
-57 -43 -74 -66 -27 -39 -30 -52 -35 -144 l-5 -102 -13 45 c-31 103 -125 209
-229 258 l-58 27 -695 2 c-529 1 -706 -1 -741 -11z"/>
</g>
</svg>
